<svg width="24" height="24" viewBox="0 0 24 24" fill="none" xmlns="http://www.w3.org/2000/svg">
<path d="M7 4.82936C7 6.37714 8.72593 8.00761 10.1497 9.08932C10.9489 9.69644 11.3484 10 12 10C12.6516 10 13.0512 9.69644 13.8503 9.08933C15.2741 8.00763 17 6.37717 17 4.82935C17 2.03918 14.2499 0.997463 12 3.15285C9.75008 0.997463 7 2.03918 7 4.82936Z" fill="#D97757"/>
<path d="M10.1497 9.08932L9.69603 9.68652V9.68652L10.1497 9.08932ZM12 3.15285L11.4812 3.69443C11.7712 3.97232 12.2288 3.97232 12.5188 3.69443L12 3.15285ZM13.8503 9.08933L14.304 9.68653V9.68653L13.8503 9.08933ZM12 10L12 10.75H12L12 10ZM10.1497 9.08932L10.6035 8.49212C9.91348 7.96793 9.17637 7.32963 8.6187 6.65589C8.0454 5.96327 7.75 5.33897 7.75 4.82936H7H6.25C6.25 5.86754 6.81757 6.83236 7.46319 7.61234C8.12443 8.41121 8.96219 9.129 9.69603 9.68652L10.1497 9.08932ZM7 4.82936H7.75C7.75 3.69459 8.2878 3.06055 8.90451 2.84425C9.54213 2.62061 10.5056 2.75984 11.4812 3.69443L12 3.15285L12.5188 2.61126C11.2445 1.39047 9.70795 0.972865 8.40805 1.42879C7.08724 1.89204 6.25 3.17395 6.25 4.82936H7ZM13.8503 9.08933L14.304 9.68653C15.0378 9.12902 15.8756 8.41123 16.5368 7.61235C17.1824 6.83236 17.75 5.86754 17.75 4.82935H17H16.25C16.25 5.33898 15.9546 5.96329 15.3813 6.65591C14.8236 7.32965 14.0865 7.96794 13.3966 8.49213L13.8503 9.08933ZM17 4.82935H17.75C17.75 3.17394 16.9128 1.89204 15.5919 1.42878C14.292 0.972866 12.7555 1.39047 11.4812 2.61126L12 3.15285L12.5188 3.69443C13.4944 2.75984 14.4579 2.62061 15.0955 2.84425C15.7122 3.06055 16.25 3.69459 16.25 4.82935H17ZM10.1497 9.08932L9.69603 9.68652C10.4475 10.2574 11.0512 10.75 12 10.75L12 10L12 9.25C11.6457 9.25 11.4503 9.13548 10.6035 8.49212L10.1497 9.08932ZM13.8503 9.08933L13.3966 8.49213C12.5497 9.13548 12.3543 9.25 12 9.25L12 10L12 10.75C12.9488 10.75 13.5526 10.2574 14.304 9.68653L13.8503 9.08933Z" fill="#D97757"/>
<path opacity="0.5" d="M6.25993 21.3884H6C5.05719 21.3884 4.58579 21.3884 4.29289 21.0955C4 20.8026 4 20.3312 4 19.3884V18.2764C4 17.7579 4 17.4987 4.13318 17.2672C4.26636 17.0356 4.46727 16.9188 4.8691 16.6851C7.51457 15.1464 11.2715 14.2803 13.7791 15.7759C13.9475 15.8764 14.0991 15.9977 14.2285 16.1431C14.7866 16.77 14.746 17.7161 14.1028 18.2775C13.9669 18.396 13.8222 18.486 13.6764 18.5172C13.7962 18.5033 13.911 18.4874 14.0206 18.4699C14.932 18.3245 15.697 17.8375 16.3974 17.3084L18.2046 15.9433C18.8417 15.462 19.7873 15.4619 20.4245 15.943C20.9982 16.3762 21.1736 17.0894 20.8109 17.6707C20.388 18.3487 19.7921 19.216 19.2199 19.7459C18.6469 20.2766 17.7939 20.7504 17.0975 21.0865C16.326 21.4589 15.4738 21.6734 14.6069 21.8138C12.8488 22.0983 11.0166 22.0549 9.27633 21.6964C8.29253 21.4937 7.27079 21.3884 6.25993 21.3884Z" fill="#D97757" stroke="#D97757" stroke-width="1.5" stroke-linecap="round"/>
</svg>
