<svg preserveAspectRatio="none" overflow="visible" style="display: block;" width="18.5017" height="8.49987" viewBox="0 0 18.5017 8.49987" fill="none" xmlns="http://www.w3.org/2000/svg">
<path id="Vector" opacity="0.5" d="M0.75006 7.13825H3.00999C4.02085 7.13825 5.04259 7.24356 6.02639 7.44625C7.76663 7.80477 9.59891 7.84821 11.357 7.56362C12.2239 7.4233 13.0761 7.20875 13.8475 6.8364C14.5439 6.50026 15.397 6.02648 15.97 5.49578C16.5422 4.96584 17.138 4.09855 17.561 3.42061C17.9237 2.83928 17.7482 2.12606 17.1746 1.69291C16.5374 1.21176 15.5918 1.21185 14.9547 1.69312L13.1475 3.05829C12.4471 3.58738 11.682 4.07441 10.7706 4.21978C10.6611 4.23725 10.5462 4.25318 10.4264 4.26706M8.50183 4.2825C9.18122 4.34665 9.79351 4.33276 10.3169 4.27903C10.3538 4.27523 10.3904 4.27124 10.4264 4.26706M10.4264 4.26706C10.5722 4.23582 10.717 4.14591 10.8528 4.02736C11.496 3.46597 11.5367 2.51986 10.9786 1.89299C10.8491 1.74754 10.6976 1.62625 10.5291 1.52576C7.73179 -0.142688 3.37948 1.12807 0.75006 2.99278M10.4264 4.26706C10.3899 4.27488 10.3534 4.27903 10.3169 4.27903" stroke="#55433D" stroke-width="1.5" stroke-linecap="round"/>
</svg>
