<svg preserveAspectRatio="none" overflow="visible" style="display: block;" width="11.5" height="9.17675" viewBox="0 0 11.5 9.17675" fill="none" xmlns="http://www.w3.org/2000/svg">
<path id="Vector" d="M3.89974 7.55296L3.45794 8.15902V8.15902L3.89974 7.55296ZM5.75 1.85693L5.24245 2.4091C5.52941 2.67287 5.97059 2.67287 6.25755 2.4091L5.75 1.85693ZM7.60027 7.55297L8.04206 8.15904V8.15904L7.60027 7.55297ZM5.75 8.42675L5.75 9.17675H5.75L5.75 8.42675ZM3.89974 7.55296L4.34154 6.9469C3.65132 6.44375 2.91512 5.83189 2.35883 5.18705C1.78452 4.5213 1.5 3.9331 1.5 3.46554H0.75H0C0 4.48307 0.578451 5.41963 1.22305 6.16685C1.88569 6.93496 2.72435 7.62426 3.45794 8.15902L3.89974 7.55296ZM0.75 3.46554H1.5C1.5 2.4069 2.02002 1.80308 2.6455 1.59259C3.29754 1.37316 4.26987 1.51512 5.24245 2.4091L5.75 1.85693L6.25755 1.30476C4.98021 0.130651 3.45254 -0.261667 2.16707 0.170933C0.855022 0.612476 0 1.84701 0 3.46554H0.75ZM7.60027 7.55297L8.04206 8.15904C8.77566 7.62428 9.61432 6.93498 10.277 6.16686C10.9216 5.41963 11.5 4.48307 11.5 3.46552H10.75H10C10 3.93311 9.71548 4.52132 9.14117 5.18706C8.58489 5.83191 7.84868 6.44377 7.15847 6.9469L7.60027 7.55297ZM10.75 3.46552H11.5C11.5 1.847 10.645 0.612471 9.33293 0.170931C8.04746 -0.261667 6.51979 0.130651 5.24245 1.30476L5.75 1.85693L6.25755 2.4091C7.23013 1.51512 8.20246 1.37316 8.85451 1.59259C9.47998 1.80308 10 2.40689 10 3.46552H10.75ZM3.89974 7.55296L3.45794 8.15902C4.21304 8.70947 4.81181 9.17675 5.75 9.17675L5.75 8.42675L5.75001 7.67675C5.38502 7.67675 5.18467 7.56151 4.34154 6.9469L3.89974 7.55296ZM7.60027 7.55297L7.15847 6.9469C6.31534 7.56151 6.11499 7.67675 5.75001 7.67675L5.75 8.42675L5.75 9.17675C6.6882 9.17675 7.28696 8.70947 8.04206 8.15904L7.60027 7.55297Z" fill="#55433D"/>
</svg>
