<svg preserveAspectRatio="none" overflow="visible" style="display: block;" width="8.84153" height="8.84153" viewBox="0 0 8.84153 8.84153" fill="none" xmlns="http://www.w3.org/2000/svg">
<path id="Vector" d="M5.44485 6.98098C3.13507 7.90489 1.98018 8.36685 1.32053 7.91859C1.16412 7.8123 1.02923 7.67741 0.922943 7.521C0.474684 6.86135 0.93664 5.70646 1.86055 3.39668C2.05762 2.90401 2.15615 2.65767 2.32562 2.46442C2.36881 2.41517 2.41517 2.36881 2.46442 2.32562C2.65767 2.15615 2.90401 2.05762 3.39668 1.86055C5.70646 0.93664 6.86135 0.474684 7.521 0.922943C7.67741 1.02923 7.81231 1.16412 7.91859 1.32053C8.36685 1.98018 7.90489 3.13507 6.98098 5.44485C6.78391 5.93752 6.68538 6.18386 6.51591 6.37711C6.47272 6.42636 6.42636 6.47272 6.37711 6.51591C6.18386 6.68538 5.93752 6.78391 5.44485 6.98098Z" stroke="#55433D" stroke-width="1.5"/>
</svg>
