<svg width="24" height="24" viewBox="0 0 24 24" fill="none" xmlns="http://www.w3.org/2000/svg">
<g opacity="0.5">
<path d="M12 22C17.5228 22 22 17.5228 22 12C22 6.47715 17.5228 2 12 2C6.47715 2 2 6.47715 2 12C2 17.5228 6.47715 22 12 22Z" fill="#D97757"/>
<path d="M22 12H21.25C21.25 17.1086 17.1086 21.25 12 21.25V22V22.75C17.9371 22.75 22.75 17.9371 22.75 12H22ZM12 22V21.25C6.89137 21.25 2.75 17.1086 2.75 12H2H1.25C1.25 17.9371 6.06294 22.75 12 22.75V22ZM2 12H2.75C2.75 6.89137 6.89137 2.75 12 2.75V2V1.25C6.06294 1.25 1.25 6.06294 1.25 12H2ZM12 2V2.75C17.1086 2.75 21.25 6.89137 21.25 12H22H22.75C22.75 6.06294 17.9371 1.25 12 1.25V2Z" fill="#D97757"/>
</g>
<path d="M13.024 14.5601C13.5166 14.363 13.763 14.2645 13.9562 14.095C14.0055 14.0518 14.0518 14.0055 14.095 13.9562C14.2645 13.763 14.363 13.5166 14.5601 13.024C15.484 10.7142 15.946 9.5593 15.4977 8.89964C15.3914 8.74324 15.2565 8.60834 15.1001 8.50206C14.4405 8.0538 13.2856 8.51575 10.9758 9.43966C10.4831 9.63673 10.2368 9.73527 10.0435 9.90474C9.99429 9.94792 9.94792 9.99429 9.90474 10.0435C9.73527 10.2368 9.63673 10.4831 9.43966 10.9758C8.51575 13.2856 8.0538 14.4405 8.50206 15.1001C8.60834 15.2565 8.74324 15.3914 8.89964 15.4977C9.5593 15.946 10.7142 15.484 13.024 14.5601Z" fill="#D97757"/>
<path d="M13.024 14.5601L12.7454 13.8637L13.024 14.5601ZM13.9562 14.095L14.4507 14.6589V14.6589L13.9562 14.095ZM14.5601 13.024L15.2565 13.3025L14.5601 13.024ZM14.095 13.9562L14.6589 14.4507V14.4507L14.095 13.9562ZM9.43966 10.9758L8.74331 10.6972L9.43966 10.9758ZM8.50206 15.1001L7.88173 15.5217V15.5217L8.50206 15.1001ZM8.89964 15.4977L8.47811 16.118H8.47811L8.89964 15.4977ZM10.9758 9.43966L11.2543 10.136L10.9758 9.43966ZM10.0435 9.90474L9.54904 9.34085V9.34085L10.0435 9.90474ZM9.90474 10.0435L9.34085 9.54904V9.54904L9.90474 10.0435ZM15.1001 8.50206L15.5217 7.88173V7.88173L15.1001 8.50206ZM15.4977 8.89964L16.118 8.47811V8.47811L15.4977 8.89964ZM13.024 14.5601L13.3025 15.2565C13.7464 15.0789 14.1383 14.9329 14.4507 14.6589L13.9562 14.095L13.4617 13.5311C13.3876 13.5961 13.2869 13.6472 12.7454 13.8637L13.024 14.5601ZM14.5601 13.024L13.8637 12.7454C13.6472 13.2869 13.5961 13.3876 13.5311 13.4617L14.095 13.9562L14.6589 14.4507C14.9329 14.1383 15.0789 13.7464 15.2565 13.3025L14.5601 13.024ZM13.9562 14.095L14.4507 14.6589C14.5246 14.5941 14.5941 14.5246 14.6589 14.4507L14.095 13.9562L13.5311 13.4617C13.5095 13.4864 13.4864 13.5095 13.4617 13.5311L13.9562 14.095ZM9.43966 10.9758L8.74331 10.6972C8.28916 11.8326 7.92085 12.7497 7.73134 13.4646C7.54845 14.1544 7.45976 14.9007 7.88173 15.5217L8.50206 15.1001L9.12239 14.6786C9.0961 14.6399 9.01425 14.4789 9.18125 13.8489C9.34164 13.244 9.66626 12.4287 10.136 11.2543L9.43966 10.9758ZM13.024 14.5601L12.7454 13.8637C11.571 14.3335 10.7558 14.6581 10.1508 14.8185C9.52089 14.9855 9.35986 14.9037 9.32118 14.8774L8.89964 15.4977L8.47811 16.118C9.09908 16.54 9.84532 16.4513 10.5352 16.2684C11.25 16.0789 12.1671 15.7106 13.3025 15.2565L13.024 14.5601ZM8.50206 15.1001L7.88173 15.5217C8.04115 15.7563 8.2435 15.9586 8.47811 16.118L8.89964 15.4977L9.32118 14.8774C9.24297 14.8242 9.17553 14.7568 9.12239 14.6786L8.50206 15.1001ZM10.9758 9.43966L10.6973 8.74331C10.2533 8.92087 9.86143 9.0669 9.54904 9.34085L10.0435 9.90474L10.538 10.4686C10.6121 10.4036 10.7129 10.3526 11.2543 10.136L10.9758 9.43966ZM9.43966 10.9758L10.136 11.2543C10.3526 10.7129 10.4036 10.6121 10.4686 10.538L9.90474 10.0435L9.34085 9.54904C9.0669 9.86143 8.92087 10.2533 8.74331 10.6972L9.43966 10.9758ZM10.0435 9.90474L9.54904 9.34085C9.47517 9.40562 9.40562 9.47517 9.34085 9.54904L9.90474 10.0435L10.4686 10.538C10.4902 10.5134 10.5134 10.4902 10.538 10.4686L10.0435 9.90474ZM10.9758 9.43966L11.2543 10.136C12.4287 9.66626 13.244 9.34164 13.8489 9.18125C14.4789 9.01425 14.6399 9.0961 14.6786 9.12239L15.1001 8.50206L15.5217 7.88173C14.9007 7.45976 14.1544 7.54845 13.4646 7.73134C12.7497 7.92085 11.8326 8.28916 10.6973 8.74331L10.9758 9.43966ZM14.5601 13.024L15.2565 13.3025C15.7106 12.1671 16.0789 11.25 16.2684 10.5352C16.4513 9.84532 16.54 9.09908 16.118 8.47811L15.4977 8.89964L14.8774 9.32118C14.9037 9.35986 14.9855 9.52089 14.8185 10.1508C14.6581 10.7558 14.3335 11.571 13.8637 12.7454L14.5601 13.024ZM15.1001 8.50206L14.6786 9.12239C14.7568 9.17553 14.8242 9.24298 14.8774 9.32118L15.4977 8.89964L16.118 8.47811C15.9586 8.2435 15.7563 8.04115 15.5217 7.88173L15.1001 8.50206Z" fill="#D97757"/>
</svg>
