<svg width="24" height="24" viewBox="0 0 24 24" fill="none" xmlns="http://www.w3.org/2000/svg">
<path fill-rule="evenodd" clip-rule="evenodd" d="M21.5315 11.5856L20.75 10.9605V21.25H22C22.4142 21.25 22.75 21.5858 22.75 22C22.75 22.4142 22.4142 22.75 22 22.75H2C1.58578 22.75 1.25 22.4142 1.25 22C1.25 21.5858 1.58578 21.25 2 21.25H3.25V10.9605L2.46852 11.5856C2.14507 11.8444 1.6731 11.792 1.41435 11.4685C1.15559 11.1451 1.20803 10.6731 1.53148 10.4143L9.65739 3.91362C11.027 2.81796 12.973 2.81796 14.3426 3.91362L22.4685 10.4143C22.792 10.6731 22.8444 11.1451 22.5856 11.4685C22.3269 11.792 21.8549 11.8444 21.5315 11.5856ZM12 6.75C10.4812 6.75 9.25 7.98122 9.25 9.5C9.25 11.0188 10.4812 12.25 12 12.25C13.5188 12.25 14.75 11.0188 14.75 9.5C14.75 7.98122 13.5188 6.75 12 6.75ZM13.7458 13.3116C13.2871 13.2499 12.7142 13.25 12.0494 13.25H11.9506C11.2858 13.25 10.7129 13.2499 10.2542 13.3116C9.76252 13.3777 9.29125 13.5268 8.90901 13.909C8.52676 14.2913 8.3777 14.7625 8.3116 15.2542C8.24993 15.7129 8.24996 16.2858 8.25 16.9506L8.25 21.25H9.75H14.25H15.75L15.75 16.9506L15.75 16.827C15.7498 16.2146 15.7462 15.6842 15.6884 15.2542C15.6223 14.7625 15.4732 14.2913 15.091 13.909C14.7087 13.5268 14.2375 13.3777 13.7458 13.3116Z" fill="#D97757"/>
<g opacity="0.5">
<path fill-rule="evenodd" clip-rule="evenodd" d="M10.75 9.5C10.75 8.80964 11.3096 8.25 12 8.25C12.6904 8.25 13.25 8.80964 13.25 9.5C13.25 10.1904 12.6904 10.75 12 10.75C11.3096 10.75 10.75 10.1904 10.75 9.5Z" fill="#D97757"/>
<path fill-rule="evenodd" clip-rule="evenodd" d="M10.75 9.5C10.75 8.80964 11.3096 8.25 12 8.25C12.6904 8.25 13.25 8.80964 13.25 9.5C13.25 10.1904 12.6904 10.75 12 10.75C11.3096 10.75 10.75 10.1904 10.75 9.5Z" fill="#D97757"/>
</g>
<path opacity="0.5" d="M12.0494 13.25C12.7143 13.25 13.2871 13.25 13.7459 13.3117C14.2375 13.3778 14.7088 13.5268 15.091 13.9091C15.4733 14.2913 15.6223 14.7626 15.6884 15.2542C15.7463 15.6843 15.7498 16.2146 15.75 16.8271L15.75 21.25H8.25003L8.25003 16.9507C8.25 16.2858 8.24996 15.7129 8.31164 15.2542C8.37774 14.7626 8.5268 14.2913 8.90904 13.9091C9.29129 13.5268 9.76255 13.3778 10.2542 13.3117C10.7129 13.25 11.2858 13.25 11.9507 13.25H12.0494Z" fill="#D97757"/>
<path opacity="0.5" d="M16 3H18.5C18.7761 3 19 3.22386 19 3.5L19 7.63955L15.5 4.83955V3.5C15.5 3.22386 15.7239 3 16 3Z" fill="#D97757"/>
</svg>
