<svg preserveAspectRatio="none" overflow="visible" style="display: block;" width="21.5001" height="19.6581" viewBox="0 0 21.5001 19.6581" fill="none" xmlns="http://www.w3.org/2000/svg">
<g id="Vector">
<path fill-rule="evenodd" clip-rule="evenodd" d="M20.2815 8.49378L19.5 7.86859V18.1581H20.75C21.1642 18.1581 21.5 18.4939 21.5 18.9081C21.5 19.3223 21.1642 19.6581 20.75 19.6581H0.750028C0.335814 19.6581 2.76566e-05 19.3223 2.76566e-05 18.9081C2.76566e-05 18.4939 0.335814 18.1581 0.750028 18.1581H2.00003V7.86859L1.21855 8.49378C0.895102 8.75253 0.423133 8.70009 0.164376 8.37665C-0.0943811 8.0532 -0.0419401 7.58123 0.281506 7.32247L8.40742 0.821742C9.77699 -0.273914 11.7231 -0.273914 13.0926 0.821742L21.2185 7.32247C21.542 7.58123 21.5944 8.0532 21.3357 8.37665C21.0769 8.70009 20.605 8.75253 20.2815 8.49378ZM10.75 3.65812C9.23124 3.65812 8.00003 4.88934 8.00003 6.40812C8.00003 7.92691 9.23124 9.15812 10.75 9.15812C12.2688 9.15812 13.5 7.92691 13.5 6.40812C13.5 4.88934 12.2688 3.65812 10.75 3.65812ZM12.4959 10.2197C12.0371 10.1581 11.4643 10.1581 10.7994 10.1581H10.7007C10.0358 10.1581 9.46293 10.1581 9.00418 10.2197C8.51255 10.2858 8.04128 10.4349 7.65904 10.8171C7.27679 11.1994 7.12773 11.6706 7.06163 12.1623C6.99996 12.621 6.99999 13.1939 7.00003 13.8588L7.00003 18.1581H8.50003H13H14.5L14.5 13.8588L14.5 13.7352C14.4998 13.1227 14.4962 12.5924 14.4384 12.1623C14.3723 11.6706 14.2233 11.1994 13.841 10.8171C13.4588 10.4349 12.9875 10.2858 12.4959 10.2197Z" fill="#D97757"/>
</g>
</svg>
