<svg preserveAspectRatio="none" overflow="visible" style="display: block;" width="7.5" height="8" viewBox="0 0 7.5 8" fill="none" xmlns="http://www.w3.org/2000/svg">
<path id="Subtract" opacity="0.5" d="M3.79937 1.81685e-06C4.46424 -3.53764e-05 5.0371 -6.73234e-05 5.49585 0.0616092C5.98748 0.127708 6.45875 0.276766 6.84099 0.659013C7.22324 1.04126 7.3723 1.51252 7.4384 2.00416C7.49622 2.43423 7.49981 2.9646 7.5 3.57705L7.5 8H3.60117e-06L1.69382e-06 3.70063C-3.37117e-05 3.03577 -6.77668e-05 2.4629 0.0616086 2.00416C0.127707 1.51252 0.276766 1.04126 0.659013 0.659013C1.04126 0.276766 1.51252 0.127708 2.00416 0.0616092C2.46291 -6.73234e-05 3.03577 -3.53764e-05 3.70063 1.81685e-06H3.79937Z" fill="#D97757"/>
</svg>
