<svg width="24" height="24" viewBox="0 0 24 24" fill="none" xmlns="http://www.w3.org/2000/svg">
<path d="M18.5116 10.0771C18.5116 10.8157 17.8869 11.4146 17.1163 11.4146C16.3457 11.4146 15.7209 10.8157 15.7209 10.0771C15.7209 9.33841 16.3457 8.7396 17.1163 8.7396C17.8869 8.7396 18.5116 9.33841 18.5116 10.0771Z" fill="#D97757"/>
<path fill-rule="evenodd" clip-rule="evenodd" d="M18.0363 5.53245C16.9766 5.39588 15.6225 5.39589 13.9129 5.3959H10.0871C8.37751 5.39589 7.02343 5.39588 5.9637 5.53245C4.87308 5.673 3.99033 5.96913 3.29418 6.63641C2.59803 7.30369 2.28908 8.14982 2.14245 9.19521C1.99997 10.211 1.99999 11.5089 2 13.1475V13.2482C1.99999 14.8868 1.99997 16.1847 2.14245 17.2005C2.28908 18.2459 2.59803 19.092 3.29418 19.7593C3.99033 20.4266 4.87307 20.7227 5.9637 20.8633C7.02344 20.9998 8.37751 20.9998 10.0871 20.9998H13.9129C15.6225 20.9998 16.9766 20.9998 18.0363 20.8633C19.1269 20.7227 20.0097 20.4266 20.7058 19.7593C21.402 19.092 21.7109 18.2459 21.8575 17.2005C22 16.1847 22 14.8868 22 13.2482V13.1476C22 11.5089 22 10.211 21.8575 9.19521C21.7109 8.14982 21.402 7.30369 20.7058 6.63641C20.0097 5.96913 19.1269 5.673 18.0363 5.53245ZM6.14963 6.858C5.21373 6.97861 4.67452 7.20479 4.28084 7.58215C3.88716 7.9595 3.65119 8.47635 3.52536 9.37343C3.42443 10.093 3.40184 10.9923 3.3968 12.1686L3.86764 11.7737C4.99175 10.8309 6.68596 10.885 7.74215 11.8974L11.7326 15.7223C12.1321 16.1053 12.7611 16.1575 13.2234 15.8461L13.5008 15.6593C14.8313 14.763 16.6314 14.8668 17.8402 15.9096L20.2479 17.9866C20.3463 17.7226 20.4206 17.4075 20.4746 17.0223C20.6032 16.106 20.6047 14.8981 20.6047 13.1979C20.6047 11.4976 20.6032 10.2897 20.4746 9.37343C20.3488 8.47635 20.1128 7.9595 19.7192 7.58215C19.3255 7.20479 18.7863 6.97861 17.8504 6.858C16.8944 6.7348 15.6343 6.73338 13.8605 6.73338H10.1395C8.36575 6.73338 7.10559 6.7348 6.14963 6.858Z" fill="#D97757"/>
<path d="M10.0871 5.3959L10.087 6.1459H10.0871V5.3959ZM13.9129 5.3959V6.1459H13.913L13.9129 5.3959ZM18.0363 5.53245L17.9404 6.2763V6.2763L18.0363 5.53245ZM21.8575 9.19521L21.1148 9.29939V9.29939L21.8575 9.19521ZM22 13.1476L21.25 13.1475V13.1476H22ZM22 13.2482H21.25V13.2482L22 13.2482ZM21.8575 17.2005L21.1148 17.0963V17.0963L21.8575 17.2005ZM20.7058 19.7593L20.1868 19.2179V19.2179L20.7058 19.7593ZM18.0363 20.8633L17.9404 20.1194H17.9404L18.0363 20.8633ZM13.9129 20.9998L13.9129 20.2498H13.9129V20.9998ZM10.0871 20.9998V20.2498H10.0871L10.0871 20.9998ZM5.9637 20.8633L6.05956 20.1194H6.05956L5.9637 20.8633ZM3.29418 19.7593L3.81316 19.2179H3.81316L3.29418 19.7593ZM2.14245 17.2005L1.39972 17.3047V17.3047L2.14245 17.2005ZM2 13.2482L2.75 13.2482V13.2482H2ZM2 13.1475H2.75V13.1475L2 13.1475ZM2.14245 9.19521L2.88518 9.29939V9.29939L2.14245 9.19521ZM5.9637 5.53245L6.05956 6.2763V6.2763L5.9637 5.53245ZM4.28084 7.58215L3.76186 7.04071L3.76186 7.04071L4.28084 7.58215ZM6.14963 6.858L6.24549 7.60185V7.60185L6.14963 6.858ZM3.52536 9.37343L4.26809 9.4776L3.52536 9.37343ZM20.4746 17.0223L19.7319 16.9181V16.9181L20.4746 17.0223ZM20.4746 9.37343L19.7319 9.4776V9.4776L20.4746 9.37343ZM19.7192 7.58215L20.2381 7.04071V7.04071L19.7192 7.58215ZM17.8504 6.858L17.9462 6.11415V6.11415L17.8504 6.858ZM3.86764 11.7737L3.38568 11.1991L3.38568 11.1991L3.86764 11.7737ZM7.74215 11.8974L8.26114 11.356V11.356L7.74215 11.8974ZM11.7326 15.7223L11.2136 16.2638V16.2638L11.7326 15.7223ZM13.2234 15.8461L12.8044 15.2241V15.2241L13.2234 15.8461ZM13.5008 15.6593L13.9198 16.2813V16.2813L13.5008 15.6593ZM17.8402 15.9096L17.3503 16.4775V16.4775L17.8402 15.9096ZM20.2479 17.9866L19.758 18.5545L20.5742 19.2586L20.9506 18.2486L20.2479 17.9866ZM3.3968 12.1686L2.6468 12.1654L2.63987 13.7823L3.87875 12.7433L3.3968 12.1686ZM18.0363 5.53245L18.1322 4.7886C17.0136 4.64445 15.6033 4.64589 13.9129 4.6459L13.9129 5.3959L13.913 6.1459C15.6416 6.14589 16.9395 6.14731 17.9404 6.2763L18.0363 5.53245ZM20.7058 6.63641L21.2248 6.09497C20.3649 5.27076 19.3001 4.93911 18.1322 4.7886L18.0363 5.53245L17.9404 6.2763C18.9538 6.40688 19.6544 6.6675 20.1868 7.17785L20.7058 6.63641ZM21.8575 9.19521L22.6003 9.09103C22.4412 7.95676 22.0892 6.92347 21.2248 6.09497L20.7058 6.63641L20.1868 7.17785C20.7148 7.68391 20.9807 8.34288 21.1148 9.29939L21.8575 9.19521ZM22 13.1476L22.75 13.1476C22.75 11.5297 22.7517 10.1707 22.6003 9.09103L21.8575 9.19521L21.1148 9.29939C21.2483 10.2513 21.25 11.4881 21.25 13.1475L22 13.1476ZM21.8575 17.2005L22.6003 17.3047C22.7517 16.225 22.75 14.866 22.75 13.2481L22 13.2482L21.25 13.2482C21.25 14.9076 21.2483 16.1444 21.1148 17.0963L21.8575 17.2005ZM20.7058 19.7593L21.2248 20.3007C22.0892 19.4722 22.4412 18.439 22.6003 17.3047L21.8575 17.2005L21.1148 17.0963C20.9807 18.0528 20.7148 18.7118 20.1868 19.2179L20.7058 19.7593ZM18.0363 20.8633L18.1322 21.6071C19.3001 21.4566 20.3649 21.125 21.2248 20.3007L20.7058 19.7593L20.1868 19.2179C19.6544 19.7282 18.9538 19.9888 17.9404 20.1194L18.0363 20.8633ZM13.9129 20.9998L13.9129 21.7498C15.6033 21.7498 17.0136 21.7513 18.1322 21.6071L18.0363 20.8633L17.9404 20.1194C16.9395 20.2484 15.6416 20.2498 13.9129 20.2498L13.9129 20.9998ZM5.9637 20.8633L5.86784 21.6071C6.9864 21.7513 8.39666 21.7498 10.0871 21.7498L10.0871 20.9998L10.0871 20.2498C8.35837 20.2498 7.06047 20.2484 6.05956 20.1194L5.9637 20.8633ZM3.29418 19.7593L2.7752 20.3007C3.63507 21.125 4.69991 21.4566 5.86784 21.6071L5.9637 20.8633L6.05956 20.1194C5.04624 19.9888 4.34559 19.7282 3.81316 19.2179L3.29418 19.7593ZM2.14245 17.2005L1.39972 17.3047C1.55882 18.439 1.91085 19.4722 2.7752 20.3007L3.29418 19.7593L3.81316 19.2179C3.28521 18.7118 3.01934 18.0528 2.88518 17.0963L2.14245 17.2005ZM2 13.2482L1.25 13.2482C1.24999 14.866 1.24829 16.225 1.39972 17.3047L2.14245 17.2005L2.88518 17.0963C2.75166 16.1444 2.74999 14.9076 2.75 13.2482L2 13.2482ZM2.14245 9.19521L1.39972 9.09103C1.24829 10.1707 1.24999 11.5297 1.25 13.1476L2 13.1475L2.75 13.1475C2.74999 11.4881 2.75166 10.2513 2.88518 9.29939L2.14245 9.19521ZM3.29418 6.63641L2.7752 6.09497C1.91085 6.92347 1.55882 7.95676 1.39972 9.09103L2.14245 9.19521L2.88518 9.29939C3.01934 8.34288 3.28521 7.68391 3.81316 7.17785L3.29418 6.63641ZM5.9637 5.53245L5.86784 4.7886C4.69991 4.93911 3.63507 5.27076 2.7752 6.09497L3.29418 6.63641L3.81316 7.17785C4.34559 6.6675 5.04624 6.40688 6.05956 6.2763L5.9637 5.53245ZM10.0871 5.3959L10.0871 4.6459C8.39666 4.64589 6.9864 4.64445 5.86784 4.7886L5.9637 5.53245L6.05956 6.2763C7.06047 6.14731 8.35836 6.14589 10.087 6.1459L10.0871 5.3959ZM4.28084 7.58215L4.79982 8.12359C5.03005 7.90291 5.38746 7.71242 6.24549 7.60185L6.14963 6.858L6.05377 6.11415C5.04 6.24479 4.319 6.50667 3.76186 7.04071L4.28084 7.58215ZM3.52536 9.37343L4.26809 9.4776C4.38136 8.67 4.57405 8.34 4.79982 8.12359L4.28084 7.58215L3.76186 7.04071C3.20027 7.57901 2.92101 8.28269 2.78263 9.26925L3.52536 9.37343ZM20.6047 13.1979H19.8547C19.8547 14.9205 19.8514 16.066 19.7319 16.9181L20.4746 17.0223L21.2174 17.1265C21.3549 16.1459 21.3547 14.8757 21.3547 13.1979H20.6047ZM20.4746 9.37343L19.7319 9.4776C19.8514 10.3297 19.8547 11.4752 19.8547 13.1979H20.6047H21.3547C21.3547 11.52 21.3549 10.2498 21.2174 9.26925L20.4746 9.37343ZM19.7192 7.58215L19.2002 8.12359C19.426 8.34 19.6186 8.67 19.7319 9.4776L20.4746 9.37343L21.2174 9.26925C21.079 8.28269 20.7997 7.57901 20.2381 7.04071L19.7192 7.58215ZM17.8504 6.858L17.7545 7.60185C18.6125 7.71242 18.97 7.90291 19.2002 8.12359L19.7192 7.58215L20.2381 7.04071C19.681 6.50667 18.96 6.24479 17.9462 6.11415L17.8504 6.858ZM13.8605 6.73338V7.48338C15.6549 7.48338 16.8577 7.48628 17.7545 7.60185L17.8504 6.858L17.9462 6.11415C16.9311 5.98333 15.6136 5.98338 13.8605 5.98338V6.73338ZM10.1395 6.73338V7.48338H13.8605V6.73338V5.98338H10.1395V6.73338ZM6.14963 6.858L6.24549 7.60185C7.14228 7.48628 8.34511 7.48338 10.1395 7.48338V6.73338V5.98338C8.38639 5.98338 7.06891 5.98333 6.05377 6.11415L6.14963 6.858ZM13.9129 5.3959V4.6459H10.0871V5.3959V6.1459H13.9129V5.3959ZM22 13.2482H22.75V13.1476H22H21.25V13.2482H22ZM10.0871 20.9998V21.7498H13.9129V20.9998V20.2498H10.0871V20.9998ZM2 13.1475H1.25V13.2482H2H2.75V13.1475H2ZM18.5116 10.0771H17.7616C17.7616 10.3719 17.503 10.6646 17.1163 10.6646V11.4146V12.1646C18.2709 12.1646 19.2616 11.2596 19.2616 10.0771H18.5116ZM17.1163 11.4146V10.6646C16.7296 10.6646 16.4709 10.3719 16.4709 10.0771H15.7209H14.9709C14.9709 11.2596 15.9617 12.1646 17.1163 12.1646V11.4146ZM15.7209 10.0771H16.4709C16.4709 9.78225 16.7296 9.4896 17.1163 9.4896V8.7396V7.9896C15.9617 7.9896 14.9709 8.89457 14.9709 10.0771H15.7209ZM17.1163 8.7396V9.4896C17.503 9.4896 17.7616 9.78224 17.7616 10.0771H18.5116H19.2616C19.2616 8.89457 18.2709 7.9896 17.1163 7.9896V8.7396ZM7.74215 11.8974L8.26114 11.356C6.92743 10.0776 4.80175 10.0114 3.38568 11.1991L3.86764 11.7737L4.34959 12.3484C5.18176 11.6504 6.4445 11.6925 7.22317 12.4388L7.74215 11.8974ZM11.7326 15.7223L12.2516 15.1809L8.26114 11.356L7.74215 11.8974L7.22317 12.4388L11.2136 16.2638L11.7326 15.7223ZM13.2234 15.8461L12.8044 15.2241C12.6317 15.3404 12.3937 15.3171 12.2516 15.1809L11.7326 15.7223L11.2136 16.2638C11.8706 16.8935 12.8905 16.9747 13.6424 16.4681L13.2234 15.8461ZM13.5008 15.6593L13.0818 15.0372L12.8044 15.2241L13.2234 15.8461L13.6424 16.4681L13.9198 16.2813L13.5008 15.6593ZM17.8402 15.9096L18.3301 15.3417C16.8634 14.0765 14.6909 13.9533 13.0818 15.0372L13.5008 15.6593L13.9198 16.2813C14.9718 15.5727 16.3994 15.6572 17.3503 16.4775L17.8402 15.9096ZM20.2479 17.9866L20.7378 17.4187L18.3301 15.3417L17.8402 15.9096L17.3503 16.4775L19.758 18.5545L20.2479 17.9866ZM20.4746 17.0223L19.7319 16.9181C19.6829 17.2676 19.619 17.5263 19.5451 17.7247L20.2479 17.9866L20.9506 18.2486C21.0735 17.9188 21.1583 17.5474 21.2174 17.1265L20.4746 17.0223ZM3.86764 11.7737L3.38568 11.1991L2.91484 11.594L3.3968 12.1686L3.87875 12.7433L4.34959 12.3484L3.86764 11.7737ZM3.3968 12.1686L4.14679 12.1718C4.15186 10.9912 4.17517 10.14 4.26809 9.4776L3.52536 9.37343L2.78263 9.26925C2.67369 10.0459 2.65183 10.9934 2.6468 12.1654L3.3968 12.1686Z" fill="#D97757"/>
<g opacity="0.5">
<path d="M17.0866 2.61039C16.2268 2.49997 15.1321 2.49998 13.7675 2.5H10.6778C9.31314 2.49998 8.21844 2.49997 7.35863 2.61039C6.46826 2.72473 5.72591 2.96835 5.13712 3.53075C4.79755 3.8551 4.56886 4.22833 4.41309 4.64928C4.91729 4.41928 5.48734 4.28374 6.12735 4.20084C7.21173 4.06037 8.5973 4.06038 10.3466 4.06039H14.2615C16.0108 4.06038 17.3963 4.06037 18.4807 4.20084C19.0397 4.27325 19.5453 4.38581 20.0003 4.56638C19.8457 4.17917 19.6253 3.83365 19.3081 3.53075C18.7193 2.96835 17.977 2.72473 17.0866 2.61039Z" fill="#D97757"/>
<path d="M17.0866 2.61039L16.9911 3.35428V3.35428L17.0866 2.61039ZM13.7675 2.5V3.25H13.7675L13.7675 2.5ZM19.3081 3.53075L19.8262 2.9884L19.8262 2.9884L19.3081 3.53075ZM5.13712 3.53075L5.65516 4.0731L5.13712 3.53075ZM7.35863 2.61039L7.45417 3.35428V3.35428L7.35863 2.61039ZM10.6778 2.5L10.6778 3.25H10.6778V2.5ZM10.3466 4.06039L10.3466 4.81039H10.3466V4.06039ZM14.2615 4.06039V4.81039H14.2615L14.2615 4.06039ZM18.4807 4.20084L18.3844 4.94462V4.94462L18.4807 4.20084ZM6.12735 4.20084L6.2237 4.94462V4.94462L6.12735 4.20084ZM4.41309 4.64928L3.7097 4.38899L3.08398 6.0799L4.72435 5.33164L4.41309 4.64928ZM20.0003 4.56638L19.7236 5.26349L21.3429 5.90615L20.6968 4.28823L20.0003 4.56638ZM17.0866 2.61039L17.1822 1.8665C16.2638 1.74856 15.1133 1.74998 13.7675 1.75L13.7675 2.5L13.7675 3.25C15.1509 3.24998 16.1898 3.25138 16.9911 3.35428L17.0866 2.61039ZM19.3081 3.53075L19.8262 2.9884C19.0736 2.26954 18.1493 1.9907 17.1822 1.8665L17.0866 2.61039L16.9911 3.35428C17.8047 3.45875 18.3651 3.66716 18.7901 4.0731L19.3081 3.53075ZM7.35863 2.61039L7.2631 1.8665C6.29592 1.9907 5.37169 2.26954 4.61909 2.9884L5.13712 3.53075L5.65516 4.0731C6.08014 3.66716 6.64061 3.45875 7.45417 3.35428L7.35863 2.61039ZM10.6778 2.5L10.6778 1.75C9.33195 1.74998 8.18148 1.74856 7.2631 1.8665L7.35863 2.61039L7.45417 3.35428C8.25541 3.25138 9.29433 3.24998 10.6778 3.25L10.6778 2.5ZM13.7675 2.5V1.75H10.6778V2.5V3.25H13.7675V2.5ZM18.4807 4.20084L18.5771 3.45705C17.4336 3.30892 15.9915 3.31038 14.2615 3.31039L14.2615 4.06039L14.2615 4.81039C16.03 4.81038 17.3591 4.81181 18.3844 4.94462L18.4807 4.20084ZM10.3466 4.06039L10.3466 3.31039C8.61654 3.31038 7.1745 3.30892 6.031 3.45705L6.12735 4.20084L6.2237 4.94462C7.24896 4.81181 8.57805 4.81038 10.3466 4.81039L10.3466 4.06039ZM14.2615 4.06039V3.31039H10.3466V4.06039V4.81039H14.2615V4.06039ZM6.12735 4.20084L6.031 3.45705C5.34749 3.54559 4.69763 3.69513 4.10182 3.96692L4.41309 4.64928L4.72435 5.33164C5.13694 5.14343 5.62718 5.02189 6.2237 4.94462L6.12735 4.20084ZM5.13712 3.53075L4.61909 2.9884C4.18772 3.40043 3.90026 3.87403 3.7097 4.38899L4.41309 4.64928L5.11647 4.90956C5.23746 4.58262 5.40738 4.30977 5.65516 4.0731L5.13712 3.53075ZM20.0003 4.56638L20.277 3.86928C19.7456 3.65841 19.1745 3.53445 18.5771 3.45705L18.4807 4.20084L18.3844 4.94462C18.9048 5.01205 19.345 5.11321 19.7236 5.26349L20.0003 4.56638ZM20.0003 4.56638L20.6968 4.28823C20.5063 3.81115 20.2284 3.37263 19.8262 2.9884L19.3081 3.53075L18.7901 4.0731C19.0221 4.29467 19.185 4.54719 19.3038 4.84454L20.0003 4.56638Z" fill="#D97757"/>
</g>
</svg>
