<svg preserveAspectRatio="none" overflow="visible" style="display: block;" width="160" height="160" viewBox="0 0 160 160" fill="none" xmlns="http://www.w3.org/2000/svg">
<g id="Decorative background pattern" opacity="0.1">
<path id="Icon" d="M16.6667 60C12 60 8.05556 58.3889 4.83333 55.1667C1.61111 51.9444 0 48 0 43.3333C0 38.6667 1.61111 34.7222 4.83333 31.5C8.05556 28.2778 12 26.6667 16.6667 26.6667C21.3333 26.6667 25.2778 28.2778 28.5 31.5C31.7222 34.7222 33.3333 38.6667 33.3333 43.3333C33.3333 48 31.7222 51.9444 28.5 55.1667C25.2778 58.3889 21.3333 60 16.6667 60V60M46.6667 33.3333C42 33.3333 38.0556 31.7222 34.8333 28.5C31.6111 25.2778 30 21.3333 30 16.6667C30 12 31.6111 8.05556 34.8333 4.83333C38.0556 1.61111 42 0 46.6667 0C51.3333 0 55.2778 1.61111 58.5 4.83333C61.7222 8.05556 63.3333 12 63.3333 16.6667C63.3333 21.3333 61.7222 25.2778 58.5 28.5C55.2778 31.7222 51.3333 33.3333 46.6667 33.3333V33.3333M86.6667 33.3333C82 33.3333 78.0556 31.7222 74.8333 28.5C71.6111 25.2778 70 21.3333 70 16.6667C70 12 71.6111 8.05556 74.8333 4.83333C78.0556 1.61111 82 0 86.6667 0C91.3333 0 95.2778 1.61111 98.5 4.83333C101.722 8.05556 103.333 12 103.333 16.6667C103.333 21.3333 101.722 25.2778 98.5 28.5C95.2778 31.7222 91.3333 33.3333 86.6667 33.3333V33.3333M116.667 60C112 60 108.056 58.3889 104.833 55.1667C101.611 51.9444 100 48 100 43.3333C100 38.6667 101.611 34.7222 104.833 31.5C108.056 28.2778 112 26.6667 116.667 26.6667C121.333 26.6667 125.278 28.2778 128.5 31.5C131.722 34.7222 133.333 38.6667 133.333 43.3333C133.333 48 131.722 51.9444 128.5 55.1667C125.278 58.3889 121.333 60 116.667 60V60M31 126.667C26 126.667 21.8056 124.75 18.4167 120.917C15.0278 117.083 13.3333 112.556 13.3333 107.333C13.3333 101.556 15.3056 96.5 19.25 92.1667C23.1944 87.8333 27.1111 83.5556 31 79.3333C34.2222 75.8889 37 72.1389 39.3333 68.0833C41.6667 64.0278 44.4444 60.2222 47.6667 56.6667C50.1111 53.7778 52.9444 51.3889 56.1667 49.5C59.3889 47.6111 62.8889 46.6667 66.6667 46.6667C70.4444 46.6667 73.9444 47.5556 77.1667 49.3333C80.3889 51.1111 83.2222 53.4444 85.6667 56.3333C88.7778 59.8889 91.5278 63.7222 93.9167 67.8333C96.3056 71.9444 99.1111 75.7778 102.333 79.3333C106.222 83.5556 110.139 87.8333 114.083 92.1667C118.028 96.5 120 101.556 120 107.333C120 112.556 118.306 117.083 114.917 120.917C111.528 124.75 107.333 126.667 102.333 126.667C96.3333 126.667 90.3889 126.167 84.5 125.167C78.6111 124.167 72.6667 123.667 66.6667 123.667C60.6667 123.667 54.7222 124.167 48.8333 125.167C42.9444 126.167 37 126.667 31 126.667V126.667" fill="white"/>
</g>
</svg>
