<svg preserveAspectRatio="none" overflow="visible" style="display: block;" width="19" height="20.5" viewBox="0 0 19 20.5" fill="none" xmlns="http://www.w3.org/2000/svg">
<g id="Container">
<path id="Icon" d="M6 20.5L4 19V15H3C2.45 15 1.97917 14.8042 1.5875 14.4125C1.19583 14.0208 1 13.55 1 13V5.5V5.5C0.716667 5.5 0.479167 5.40417 0.2875 5.2125C0.0958333 5.02083 0 4.78333 0 4.5C0 4.21667 0.0958333 3.97917 0.2875 3.7875C0.479167 3.59583 0.716667 3.5 1 3.5H4V2H3.5C3.21667 2 2.97917 1.90417 2.7875 1.7125C2.59583 1.52083 2.5 1.28333 2.5 1C2.5 0.716667 2.59583 0.479167 2.7875 0.2875C2.97917 0.0958333 3.21667 0 3.5 0H6.5C6.78333 0 7.02083 0.0958333 7.2125 0.2875C7.40417 0.479167 7.5 0.716667 7.5 1C7.5 1.28333 7.40417 1.52083 7.2125 1.7125C7.02083 1.90417 6.78333 2 6.5 2H6V3.5H9C9.28333 3.5 9.52083 3.59583 9.7125 3.7875C9.90417 3.97917 10 4.21667 10 4.5C10 4.78333 9.90417 5.02083 9.7125 5.2125C9.52083 5.40417 9.28333 5.5 9 5.5V5.5V13C9 13.55 8.80417 14.0208 8.4125 14.4125C8.02083 14.8042 7.55 15 7 15H6V20.5V20.5M3 13H7V11.5H5.25C5.05 11.5 4.875 11.425 4.725 11.275C4.575 11.125 4.5 10.95 4.5 10.75C4.5 10.55 4.575 10.375 4.725 10.225C4.875 10.075 5.05 10 5.25 10H7V8.5H5.25C5.05 8.5 4.875 8.425 4.725 8.275C4.575 8.125 4.5 7.95 4.5 7.75C4.5 7.55 4.575 7.375 4.725 7.225C4.875 7.075 5.05 7 5.25 7H7V5.5H3V13V13M13 20C12.45 20 11.9792 19.8042 11.5875 19.4125C11.1958 19.0208 11 18.55 11 18V11.5C11 11.0167 11.0833 10.6167 11.25 10.3C11.4167 9.98333 11.5917 9.70833 11.775 9.475C11.9583 9.24167 12.125 9.05417 12.275 8.9125C12.425 8.77083 12.5 8.63333 12.5 8.5V8V8C12.2167 8 11.9792 7.90417 11.7875 7.7125C11.5958 7.52083 11.5 7.28333 11.5 7C11.5 6.71667 11.5958 6.47917 11.7875 6.2875C11.9792 6.09583 12.2167 6 12.5 6H17.5C17.7833 6 18.0208 6.09583 18.2125 6.2875C18.4042 6.47917 18.5 6.71667 18.5 7C18.5 7.28333 18.4042 7.52083 18.2125 7.7125C18.0208 7.90417 17.7833 8 17.5 8V8V8.5C17.5 8.63333 17.5833 8.78333 17.75 8.95C17.9167 9.11667 18.1 9.31667 18.3 9.55C18.4833 9.78333 18.6458 10.0583 18.7875 10.375C18.9292 10.6917 19 11.0667 19 11.5V18C19 18.55 18.8042 19.0208 18.4125 19.4125C18.0208 19.8042 17.55 20 17 20H13V20M13 12H17V11.5C17 11.25 16.925 11.0333 16.775 10.85C16.625 10.6667 16.4583 10.4667 16.275 10.25C16.0917 10.0333 15.9167 9.79167 15.75 9.525C15.5833 9.25833 15.5 8.91667 15.5 8.5V8H14.5V8.5C14.5 8.9 14.4208 9.23333 14.2625 9.5C14.1042 9.76667 13.9333 10.0083 13.75 10.225C13.5667 10.4417 13.3958 10.6458 13.2375 10.8375C13.0792 11.0292 13 11.25 13 11.5V12V12M13 15H17V13.5H13V15V15M13 18H17V16.5H13V18V18M13 15V15H17V15H13V15" fill="#99462A"/>
</g>
</svg>
