<svg preserveAspectRatio="none" width="100%" height="100%" overflow="visible" style="display: block;" viewBox="0 0 15.5 12.1377" fill="none" xmlns="http://www.w3.org/2000/svg">
<path id="Vector" d="M1.79779 3.73698L2.03497 3.02547H2.03497L1.79779 3.73698ZM3.97309 4.46208L3.73592 5.17359H3.73592L3.97309 4.46208ZM4.76682 6.14399L4.06681 5.87475H4.06681L4.76682 6.14399ZM3.52003 9.38564L4.22004 9.65487H4.22004L3.52003 9.38564ZM13.7022 3.73698L13.465 3.02547H13.465L13.7022 3.73698ZM11.5269 4.46208L11.7641 5.17359H11.7641L11.5269 4.46208ZM10.7332 6.14399L11.4332 5.87475V5.87475L10.7332 6.14399ZM11.98 9.38564L11.28 9.65487V9.65487L11.98 9.38564ZM6.17417 10.6454L6.82535 11.0175V11.0175L6.17417 10.6454ZM7.75 7.88772L8.40118 7.51561C8.26765 7.28193 8.01914 7.13772 7.75 7.13772C7.48086 7.13772 7.23235 7.28193 7.09882 7.51561L7.75 7.88772ZM12.8965 0.784887L12.7394 0.051535V0.051535L12.8965 0.784887ZM10.999 1.19151L11.1561 1.92486V1.92486L10.999 1.19151ZM4.50102 1.19151L4.65817 0.458157V0.458157L4.50102 1.19151ZM2.60345 0.784887L2.44631 1.51824V1.51824L2.60345 0.784887ZM9.32583 10.6454L8.67465 11.0175V11.0175L9.32583 10.6454ZM10.7884 1.23625L10.6365 0.501793L10.6365 0.501793L10.7884 1.23625ZM4.71161 1.23625L4.55969 1.9707L4.55969 1.9707L4.71161 1.23625ZM11.0337 4.65453L11.4277 5.29274V5.29274L11.0337 4.65453ZM10.5682 5.64095L11.3113 5.53935V5.53934L10.5682 5.64095ZM4.46625 4.65453L4.0723 5.29274H4.0723L4.46625 4.65453ZM4.93177 5.64095L5.67485 5.74257V5.74256L4.93177 5.64095ZM1.79779 3.73698L1.56062 4.4485L3.73592 5.17359L3.97309 4.46208L4.21026 3.75057L2.03497 3.02547L1.79779 3.73698ZM4.76682 6.14399L4.06681 5.87475L2.82002 9.1164L3.52003 9.38564L4.22004 9.65487L5.46683 6.41322L4.76682 6.14399ZM13.7022 3.73698L13.465 3.02547L11.2897 3.75057L11.5269 4.46208L11.7641 5.17359L13.9394 4.4485L13.7022 3.73698ZM10.7332 6.14399L10.0332 6.41322L11.28 9.65487L11.98 9.38564L12.68 9.1164L11.4332 5.87475L10.7332 6.14399ZM6.17417 10.6454L6.82535 11.0175L8.40118 8.25982L7.75 7.88772L7.09882 7.51561L5.52299 10.2733L6.17417 10.6454ZM12.8965 0.784887L12.7394 0.051535L10.8418 0.458156L10.999 1.19151L11.1561 1.92486L13.0537 1.51824L12.8965 0.784887ZM4.50102 1.19151L4.65817 0.458157L2.7606 0.0515352L2.60345 0.784887L2.44631 1.51824L4.34387 1.92486L4.50102 1.19151ZM7.75 7.88772L7.09882 8.25982L8.67465 11.0175L9.32583 10.6454L9.97701 10.2733L8.40118 7.51561L7.75 7.88772ZM10.999 1.19151L10.8418 0.458156C10.7353 0.48098 10.6856 0.491637 10.6365 0.501793L10.7884 1.23625L10.9403 1.9707C10.9958 1.95921 11.0516 1.94726 11.1561 1.92486L10.999 1.19151ZM4.50102 1.19151L4.34387 1.92486C4.4484 1.94726 4.50416 1.95921 4.55969 1.9707L4.71161 1.23625L4.86353 0.501793C4.81443 0.491637 4.76468 0.48098 4.65817 0.458157L4.50102 1.19151ZM10.7884 1.23625L10.6365 0.501793C8.73231 0.895664 6.76769 0.895664 4.86353 0.501793L4.71161 1.23625L4.55969 1.9707C6.66429 2.40603 8.83571 2.40603 10.9403 1.9707L10.7884 1.23625ZM4.89506 11.3877V12.1377C5.69287 12.1377 6.42952 11.7102 6.82535 11.0175L6.17417 10.6454L5.52299 10.2733C5.39422 10.4987 5.15459 10.6377 4.89506 10.6377V11.3877ZM11.98 9.38564L11.28 9.65487C11.4622 10.1286 11.1125 10.6377 10.6049 10.6377V11.3877V12.1377C12.1652 12.1377 13.2401 10.5726 12.68 9.1164L11.98 9.38564ZM11.5269 4.46208L11.2897 3.75057C11.0678 3.82454 10.8316 3.89795 10.6398 4.01633L11.0337 4.65453L11.4277 5.29274C11.4188 5.2982 11.4263 5.29167 11.4842 5.26978C11.545 5.24677 11.627 5.21929 11.7641 5.17359L11.5269 4.46208ZM10.7332 6.14399L11.4332 5.87475C11.3813 5.73988 11.3504 5.65911 11.3295 5.59753C11.3096 5.53893 11.3099 5.52904 11.3113 5.53935L10.5682 5.64095L9.82515 5.74256C9.85568 5.96586 9.94919 6.19488 10.0332 6.41322L10.7332 6.14399ZM11.0337 4.65453L10.6398 4.01633C10.0507 4.37996 9.73136 5.05667 9.82515 5.74257L10.5682 5.64095L11.3113 5.53934C11.2979 5.44136 11.3435 5.34469 11.4277 5.29274L11.0337 4.65453ZM14.75 2.28325H14C14 2.62 13.7845 2.91898 13.465 3.02547L13.7022 3.73698L13.9394 4.4485C14.8714 4.13783 15.5 3.26565 15.5 2.28325H14.75ZM3.52003 9.38564L2.82002 9.1164C2.25994 10.5726 3.33484 12.1377 4.89506 12.1377V11.3877V10.6377C4.38751 10.6377 4.03784 10.1286 4.22004 9.65487L3.52003 9.38564ZM3.97309 4.46208L3.73592 5.17359C3.87301 5.21929 3.95501 5.24677 4.01583 5.26978C4.07371 5.29167 4.08115 5.2982 4.0723 5.29274L4.46625 4.65453L4.8602 4.01633C4.66842 3.89795 4.43219 3.82454 4.21026 3.75057L3.97309 4.46208ZM4.76682 6.14399L5.46683 6.41322C5.55081 6.19488 5.64432 5.96586 5.67485 5.74257L4.93177 5.64095L4.18868 5.53934C4.19009 5.52904 4.1904 5.53893 4.17051 5.59753C4.1496 5.65911 4.11869 5.73988 4.06681 5.87475L4.76682 6.14399ZM4.46625 4.65453L4.0723 5.29274C4.15646 5.34469 4.20208 5.44136 4.18868 5.53934L4.93177 5.64095L5.67485 5.74256C5.76864 5.05667 5.44929 4.37996 4.8602 4.01633L4.46625 4.65453ZM0.75 2.28325H0C0 3.26565 0.628635 4.13783 1.56062 4.4485L1.79779 3.73698L2.03497 3.02547C1.71549 2.91898 1.5 2.62 1.5 2.28325H0.75ZM0.75 2.28325H1.5C1.5 1.78515 1.95927 1.41387 2.44631 1.51824L2.60345 0.784887L2.7606 0.0515352C1.33979 -0.252923 0 0.830184 0 2.28325H0.75ZM9.32583 10.6454L8.67465 11.0175C9.07048 11.7102 9.80713 12.1377 10.6049 12.1377V11.3877V10.6377C10.3454 10.6377 10.1058 10.4987 9.97701 10.2733L9.32583 10.6454ZM14.75 2.28325H15.5C15.5 0.830185 14.1602 -0.252923 12.7394 0.051535L12.8965 0.784887L13.0537 1.51824C13.5407 1.41387 14 1.78515 14 2.28325H14.75Z" fill="#6B8F6B"/>
</svg>
