<?xml version="1.0" encoding="UTF-8"?>
<svg xmlns="http://www.w3.org/2000/svg" width="1566" height="1382" viewBox="0 0 1566 1382">
<path d="M 587 15.073 C 520.863 15.618, 517.089 15.747, 509 17.743 C 470.013 27.362, 439.227 48.103, 418.071 79 C 405.434 97.457, 396.868 118.530, 392.700 141.417 L 390.500 153.500 390.500 412.500 C 390.500 657.927, 390.595 671.998, 392.304 681 C 396.867 705.033, 404.632 724.064, 416.915 741.316 C 439.115 772.497, 472.518 794.006, 510.658 801.679 C 518.967 803.351, 534.702 803.478, 771.500 803.791 C 951.929 804.029, 1027.008 803.806, 1035.850 803.004 C 1070.764 799.838, 1101.837 785.069, 1126.888 759.732 C 1147.158 739.230, 1159.389 715.976, 1166.193 685 L 1168.500 674.500 1168.500 412.500 L 1168.500 150.500 1166.204 139.166 C 1158.125 99.291, 1138.175 67.094, 1107 43.618 C 1085.378 27.336, 1056.586 16.635, 1031 15.371 C 1015.275 14.594, 672.931 14.365, 587 15.073 M 876.322 114.086 C 863.700 115.673, 849.601 123.557, 837.749 135.654 C 821.607 152.131, 811.617 170.639, 805.016 196.298 C 800.471 213.965, 799.679 221.148, 800.282 239.211 C 800.735 252.798, 801.314 257.408, 803.774 267.006 C 809.265 288.427, 816.258 301.949, 828.013 313.877 C 838.541 324.559, 849.140 329.749, 864 331.497 C 874.229 332.701, 892.920 327.279, 903.401 320.068 C 919.989 308.655, 936.041 286.983, 943.930 265.348 C 945.504 261.031, 948.055 252.100, 949.598 245.500 C 952.158 234.554, 952.407 231.788, 952.435 214 C 952.462 197.227, 952.143 193.049, 950.159 184.119 C 945.588 163.552, 939.581 150.087, 929.220 137.176 C 915.142 119.635, 896.591 111.537, 876.322 114.086 M 658.742 116.355 C 639.127 123.039, 622.233 142.078, 613.615 167.209 C 607.288 185.660, 604.619 211.042, 606.926 230.815 C 608.468 244.036, 613.910 263.879, 618.932 274.596 C 627.906 293.746, 643.814 312.922, 657.705 321.333 C 669.256 328.327, 685.836 332.733, 695.983 331.504 C 704.022 330.530, 715.494 326.443, 721.643 322.362 C 734.604 313.758, 746.335 296.570, 752.793 276.721 C 758.299 259.797, 759.493 252.107, 759.427 234 C 759.384 222.015, 758.861 216.013, 757.122 207.534 C 747.692 161.563, 723.064 126.722, 692.824 116.576 C 682.381 113.072, 668.637 112.983, 658.742 116.355 M 514 253.882 C 505.889 256.500, 502.669 258.433, 496.720 264.255 C 491.050 269.805, 484.505 280.119, 480.956 289.095 C 474.052 306.559, 474.357 333.956, 481.684 354.350 C 491.745 382.357, 510.725 403.524, 532.500 411.022 C 540.883 413.908, 552.972 414.632, 560.329 412.689 C 573.734 409.147, 586.402 398.031, 593.591 383.500 C 599.240 372.082, 600.965 363.778, 600.965 348 C 600.965 318.300, 589.688 291.264, 568.633 270.489 C 558.779 260.765, 551.289 256.092, 541.458 253.531 C 533.605 251.486, 520.925 251.648, 514 253.882 M 1018.294 253.472 C 1006.390 256.820, 996.883 262.919, 987.502 273.224 C 958.648 304.921, 949.775 353.040, 966.807 385.452 C 976.643 404.170, 994.996 415.217, 1013.645 413.645 C 1028.003 412.435, 1040.989 405.878, 1053.541 393.500 C 1065.529 381.679, 1075.733 363.681, 1080.472 346 C 1083.068 336.319, 1083.704 311.697, 1081.620 301.618 C 1077.272 280.595, 1065.532 263.282, 1050.690 256.005 C 1044.563 253.001, 1042.859 252.633, 1033.690 252.337 C 1026.854 252.116, 1021.786 252.490, 1018.294 253.472 M 689.238 369.042 C 662.794 373.792, 633.015 394.923, 606.489 427.759 C 590.474 447.583, 569.584 481.045, 560.993 500.632 C 555.394 513.399, 548.580 533.549, 546.579 543.256 C 544.404 553.805, 542 574.948, 542 583.520 C 542 611.797, 552.477 642.878, 569.441 664.924 C 581.377 680.435, 601.178 692.942, 623.796 699.256 C 630.571 701.147, 634.094 701.409, 653 701.427 C 671.573 701.446, 675.885 701.145, 684.676 699.220 C 696.859 696.553, 717.811 690.332, 727.500 686.506 C 737.218 682.669, 752.919 673.763, 756.405 670.110 L 759.310 667.067 748.405 656.239 C 742.407 650.283, 723.775 633.016, 707 617.867 C 671.921 586.189, 649.446 564.207, 642.997 555.267 C 640.524 551.838, 636.872 545.313, 634.881 540.767 L 631.263 532.500 639.595 531.354 C 651.752 529.682, 656.323 526.277, 662.220 514.500 C 667.563 503.830, 668.483 499.430, 668.492 484.500 C 668.500 469.883, 667.411 458.628, 666.067 459.459 C 665.635 459.726, 664.976 463.307, 664.604 467.417 C 663.636 478.100, 660.534 493.544, 658.004 500.282 C 655.428 507.140, 650.742 513.576, 645.958 516.826 C 643.023 518.820, 641.549 519.117, 636.215 518.788 C 630.455 518.433, 629.600 518.071, 625.976 514.446 C 615.538 504.008, 615.596 485.953, 626.136 464.412 C 637.074 442.059, 663.774 426, 690 426 C 709.883 426, 726.322 433.738, 735.358 447.352 C 739.192 453.128, 744.295 458.067, 748.878 460.437 C 750.445 461.247, 757.077 463.511, 763.614 465.467 C 780.509 470.523, 782.480 471.521, 784.529 476.065 C 785.867 479.032, 786.151 481.601, 785.760 487.210 C 785.133 496.194, 782.183 504.151, 776.772 511.455 C 771.493 518.581, 765.542 521.607, 754 523.035 C 736.227 525.234, 731.766 526.100, 727.244 528.225 C 720.639 531.330, 715.603 536.782, 713.011 543.635 C 711.149 548.559, 710.872 550.864, 711.283 558 C 712.118 572.503, 717.150 581.897, 732.398 597.418 C 740.790 605.960, 778.511 638, 780.175 638 C 780.575 638, 785.345 634.063, 790.774 629.250 C 796.204 624.438, 804.663 617.062, 809.573 612.859 C 821.823 602.374, 834.521 589.640, 839.606 582.742 C 848.846 570.206, 847.749 565.739, 833.295 557.040 C 821.543 549.967, 816.955 545.430, 813.102 537.071 C 808.947 528.057, 808.374 521.243, 810.484 505.970 C 811.900 495.725, 812.083 489.728, 811.510 472.360 C 810.750 449.329, 811.209 446.332, 815.311 447.559 C 819.346 448.767, 826.864 454.103, 837.016 462.966 L 847.089 471.759 854.582 469.380 C 864.348 466.279, 877.018 466.121, 886.161 468.987 C 889.647 470.080, 892.996 470.980, 893.602 470.987 C 894.208 470.994, 897.808 468.236, 901.602 464.859 C 911.621 455.939, 919.348 450.414, 924.623 448.400 C 929.127 446.680, 929.298 446.685, 930.735 448.565 C 931.982 450.196, 932.096 453.330, 931.460 468.500 C 930.522 490.911, 930.587 493.092, 932.584 505.858 C 934.366 517.253, 933.986 523.598, 930.928 533.499 C 928.533 541.252, 919.261 555.218, 909.584 565.649 C 902.425 573.366, 878.252 595.652, 851.576 619.127 C 825.396 642.166, 808.488 657.722, 804.587 662.359 L 800.500 667.218 805 671.219 C 814.701 679.843, 844.762 692.020, 872.964 698.748 C 883.803 701.334, 885.828 701.496, 906.500 701.432 C 925.877 701.372, 929.440 701.105, 936.384 699.189 C 961.136 692.359, 981.795 678.071, 994.095 659.276 C 1019.619 620.275, 1023.613 573.726, 1005.960 521 C 990.549 474.969, 949.291 416.162, 913.500 389.211 C 902.701 381.079, 887.419 373.196, 877 370.383 C 868.805 368.171, 848.895 367.898, 841 369.890 C 819.294 375.365, 797.203 390.773, 785.433 408.645 C 782.407 413.240, 779.590 417, 779.173 417 C 778.757 417, 776.769 414.188, 774.757 410.750 C 764.553 393.321, 741.178 375.294, 722.500 370.449 C 715.172 368.548, 696.407 367.754, 689.238 369.042 M 707.888 455.500 C 704.686 457.240, 702.548 462.064, 703.427 465.566 C 704.363 469.295, 708.747 473, 712.223 473 C 716.291 473, 721 468.177, 721 464.011 C 721 459.816, 719.546 457.334, 716.020 455.510 C 712.465 453.672, 711.254 453.670, 707.888 455.500 M 1206.500 837.826 C 1204.300 838.770, 1198.283 841.701, 1193.130 844.341 C 1187.976 846.981, 1176.951 852.083, 1168.630 855.680 C 1140.994 867.624, 1137.432 869.862, 1133.896 877.500 C 1129.965 885.991, 1131.922 892.039, 1141.950 902.381 C 1149.855 910.533, 1152.534 915.713, 1153.964 925.608 C 1155.351 935.202, 1155.339 1196.319, 1153.951 1204.871 C 1152.459 1214.066, 1149.820 1218.434, 1139.956 1228.027 C 1132.080 1235.688, 1131.119 1237.025, 1130.495 1241.185 C 1130.113 1243.732, 1130.102 1247.188, 1130.471 1248.866 C 1131.311 1252.692, 1136.920 1257.713, 1141.229 1258.496 C 1143.028 1258.822, 1168.430 1258.957, 1197.677 1258.795 C 1249.591 1258.507, 1250.921 1258.451, 1253.616 1256.438 C 1258.308 1252.934, 1260.333 1249.421, 1260.333 1244.788 C 1260.332 1238.410, 1257.479 1233.530, 1250.109 1227.298 C 1237.629 1216.745, 1236.215 1212.846, 1235.133 1186 C 1234.723 1175.825, 1234.344 1095.675, 1234.291 1007.889 C 1234.207 867.976, 1234.009 847.921, 1232.692 845.389 C 1230.755 841.663, 1227.236 838.412, 1223.685 837.067 C 1219.535 835.494, 1211.067 835.869, 1206.500 837.826 M 23.500 864.852 C 18.733 867.075, 16.605 869.308, 14.538 874.254 C 10.951 882.840, 13.123 888.330, 24.943 900.548 C 32.871 908.744, 34.066 910.474, 35.904 916.423 C 39.773 928.952, 40.225 944.592, 40.366 1071 C 40.508 1198.597, 40.486 1199.281, 35.836 1211.709 C 34.091 1216.373, 32.022 1219.076, 24.911 1225.981 C 15.478 1235.142, 14 1237.666, 14 1244.615 C 14 1250.854, 16.311 1254.784, 21.316 1257.057 C 25.268 1258.851, 28.632 1258.956, 82 1258.956 C 135.579 1258.956, 138.719 1258.857, 142.729 1257.036 C 150.629 1253.450, 153.119 1245.010, 148.869 1236.230 C 147.540 1233.484, 144.254 1229.779, 140.134 1226.381 C 125.295 1214.141, 124.770 1211.791, 124.223 1155.117 L 123.804 1111.734 126.512 1112.414 C 134.176 1114.337, 158.371 1117.088, 172.500 1117.643 C 198.341 1118.656, 229.307 1114.623, 251 1107.418 C 262.810 1103.495, 278.496 1096.121, 287.545 1090.239 C 312.959 1073.717, 329.784 1047.739, 335.693 1015.901 C 338.308 1001.809, 338.039 974.852, 335.147 961.266 C 328.475 929.919, 314.467 908.473, 289.955 892.078 C 269.912 878.671, 250.830 871.277, 221 865.360 C 213.481 863.869, 201.821 863.634, 120 863.331 C 31.427 863.002, 27.330 863.067, 23.500 864.852 M 148.105 895.583 C 140.286 897.685, 133.066 901.943, 130.343 906.058 C 126.019 912.592, 125.029 920.917, 123.867 960.500 C 122.597 1003.793, 123.807 1055.316, 126.277 1063.148 C 128.599 1070.512, 132.420 1074.651, 140.392 1078.441 C 151.500 1083.722, 160.822 1085.350, 176.367 1084.725 C 198.302 1083.843, 211.178 1078.798, 224.105 1066.018 C 241.774 1048.552, 248.733 1025.495, 247.651 988 C 246.942 963.410, 244.146 951.102, 235.372 933.942 C 224.748 913.166, 207.829 900.464, 184.066 895.427 C 175.484 893.607, 155.121 893.696, 148.105 895.583 M 456 974.090 C 418.375 978.929, 382.972 995.558, 368.350 1015.260 C 360.598 1025.706, 358.540 1031.116, 358.562 1041 C 358.578 1048.231, 358.978 1050.264, 361.241 1054.620 C 365.905 1063.595, 373.301 1068.199, 385.932 1069.990 C 399.714 1071.945, 413.547 1067.852, 420.462 1059.774 C 422.394 1057.516, 427.197 1049.400, 431.135 1041.738 C 442.569 1019.490, 449.562 1011.660, 461 1008.299 C 468.824 1006.001, 480.110 1006.308, 487.328 1009.016 C 494.047 1011.536, 502.929 1019.627, 507.327 1027.233 C 514.427 1039.510, 520.566 1061.376, 523.401 1084.481 C 524.209 1091.071, 524.737 1096.596, 524.574 1096.759 C 524.412 1096.922, 520.278 1095.720, 515.389 1094.088 C 496.581 1087.809, 487.827 1086.572, 462.500 1086.615 C 442.740 1086.649, 438.124 1086.957, 429.734 1088.808 C 416.225 1091.787, 406.215 1095.293, 394.551 1101.130 C 382.105 1107.358, 374.203 1112.983, 366.443 1121.136 C 350.742 1137.631, 343.379 1155.134, 342.308 1178.500 C 341.409 1198.101, 344.950 1212.392, 354.241 1226.660 C 361.944 1238.490, 371.321 1246.788, 384.218 1253.187 C 414.630 1268.276, 453.955 1268.378, 487.697 1253.455 C 499.508 1248.232, 514.078 1236.860, 521.603 1226.993 C 523.697 1224.247, 525.715 1222, 526.087 1222 C 526.458 1222, 527.299 1224.138, 527.954 1226.750 C 530.141 1235.465, 534.643 1243.355, 540.755 1249.185 C 551.142 1259.093, 561.256 1262.983, 578.500 1263.704 C 592.828 1264.304, 600.287 1262.858, 611.762 1257.257 C 638.495 1244.208, 651.757 1209.074, 650.831 1153.749 C 650.649 1142.886, 650.656 1133.998, 650.848 1133.999 C 651.039 1134, 655.058 1135.912, 659.778 1138.250 C 668.070 1142.356, 668.685 1142.500, 677.930 1142.500 C 686.392 1142.500, 688.162 1142.175, 693.214 1139.694 C 702.572 1135.099, 709.975 1124.995, 713.602 1111.869 C 716.004 1103.177, 716.461 1085.077, 714.571 1073.500 C 712.487 1060.729, 709.184 1048.397, 707.465 1046.971 C 705.841 1045.624, 702.659 1047.063, 701.381 1049.722 C 700.912 1050.700, 700.506 1062.300, 700.479 1075.500 C 700.434 1097.579, 700.257 1099.960, 698.271 1105.243 C 694.103 1116.331, 687.180 1122, 677.806 1122 C 654.997 1122, 644.751 1090.535, 655.510 1053.532 C 662.444 1029.686, 675.928 1012.445, 692.757 1005.907 C 701.438 1002.535, 716.403 1002.093, 724.887 1004.957 C 733.065 1007.718, 740.279 1012.382, 746.166 1018.715 C 751.765 1024.738, 754.974 1030.839, 759.652 1044.356 C 766.477 1064.077, 773.332 1071.101, 791.500 1076.995 C 800.136 1079.797, 800.788 1080.304, 801.595 1084.850 C 801.952 1086.858, 803.844 1091.585, 805.801 1095.355 C 809.229 1101.961, 809.314 1102.380, 808.131 1106.855 C 806.464 1113.164, 800.589 1124.571, 796.328 1129.774 C 790.666 1136.686, 784.326 1139.040, 766 1141.034 C 754.002 1142.339, 749.926 1143.427, 742.708 1147.253 C 732.176 1152.836, 721.767 1166.806, 717.564 1181 C 714.017 1192.981, 714.626 1216.132, 719.116 1240 C 721.682 1253.635, 722.698 1256.675, 725.299 1258.497 C 728.267 1260.576, 733.880 1260.371, 737.696 1258.044 C 742.447 1255.147, 742.625 1251.853, 738.940 1235 C 736.297 1222.912, 735.747 1218.171, 735.635 1206.500 C 735.486 1191.084, 736.761 1184.813, 741.529 1177.500 C 746.834 1169.364, 754.425 1165.896, 772.333 1163.428 C 778.475 1162.582, 785.558 1161.287, 788.073 1160.551 C 807.231 1154.945, 819.589 1139.968, 826.896 1113.500 C 836.099 1080.165, 832.286 1065.028, 813.223 1059.209 C 809.525 1058.081, 803.125 1056.140, 799 1054.896 C 789.953 1052.168, 784.286 1047.183, 781.499 1039.500 C 773.023 1016.141, 769.719 1010.421, 758.029 998.870 C 751.919 992.832, 748.345 990.277, 740.904 986.626 C 728.775 980.675, 721.656 978.865, 710.500 978.896 C 700.066 978.926, 692.325 980.744, 682.500 985.472 C 659.097 996.734, 643.099 1018.683, 634.488 1051.344 C 630.276 1067.323, 629.822 1075.283, 630.573 1120 C 631.339 1165.587, 630.541 1180.453, 626.594 1194.079 C 623.152 1205.962, 618.077 1212, 611.530 1212 C 607.594 1212, 605.232 1210.376, 603.116 1206.217 C 599.400 1198.911, 598.791 1190.170, 598.014 1133 C 597.239 1075.956, 596.937 1071.550, 592.526 1052.895 C 587.663 1032.324, 580.437 1018.562, 568.236 1006.630 C 558.297 996.912, 545.134 988.571, 530.849 982.940 C 511.115 975.162, 478.056 971.253, 456 974.090 M 824 981.706 C 821.668 982.559, 817.954 986.223, 816.405 989.200 C 814.508 992.847, 814.629 1001.382, 816.633 1005.258 C 817.532 1006.995, 821.125 1011.928, 824.620 1016.221 C 828.114 1020.514, 831.826 1025.708, 832.869 1027.763 C 833.912 1029.819, 837.081 1040.199, 839.912 1050.830 C 842.743 1061.462, 846.365 1074.287, 847.960 1079.330 C 852.028 1092.185, 870.716 1155.525, 877.515 1179.500 C 887.635 1215.188, 895.059 1239.381, 897.613 1245 C 900.563 1251.490, 904.086 1255.456, 909.267 1258.121 C 921.433 1264.377, 936.520 1261.716, 946.377 1251.573 C 952.162 1245.621, 955.575 1238.051, 959.634 1222.170 C 964.445 1203.344, 981.993 1137.842, 982.719 1136 C 983.179 1134.831, 983.407 1134.942, 983.749 1136.500 C 985.530 1144.595, 1010.835 1231.005, 1013.173 1236.975 C 1016.919 1246.539, 1021.831 1253.303, 1027.763 1257.065 C 1033.588 1260.759, 1037.966 1262, 1045 1261.951 C 1058.241 1261.858, 1068.584 1253.883, 1073.523 1239.957 C 1074.393 1237.506, 1079.106 1219.975, 1083.996 1201 C 1088.887 1182.025, 1096.086 1154.125, 1099.994 1139 C 1103.902 1123.875, 1111.553 1092.945, 1116.996 1070.266 C 1122.439 1047.587, 1127.832 1026.907, 1128.981 1024.311 C 1130.129 1021.715, 1132.886 1017.184, 1135.107 1014.242 C 1143.206 1003.515, 1144.743 996.612, 1140.725 989.013 C 1136.264 980.576, 1140.200 981, 1066.331 981 C 1022.787 981, 1000.195 981.353, 998.315 982.061 C 994.967 983.323, 989.627 988.277, 986.935 992.616 C 985.872 994.330, 982.798 1004.905, 980.104 1016.116 C 977.409 1027.327, 971.975 1050, 968.027 1066.500 C 955.913 1117.128, 955.073 1120.621, 947.930 1150 C 944.119 1165.675, 940.740 1179.619, 940.422 1180.986 C 939.945 1183.036, 939.689 1183.195, 938.961 1181.894 C 938.475 1181.027, 934.428 1166.183, 929.968 1148.909 C 925.507 1131.634, 918.981 1106.700, 915.465 1093.500 C 906.505 1059.858, 902.211 1041.988, 901.431 1035.092 C 900.538 1027.199, 902.373 1019.974, 906.717 1014.284 C 913.143 1005.865, 913.992 1003.895, 913.996 997.398 C 914.001 990.171, 911.442 985.496, 905.980 982.752 C 902.838 981.173, 898.756 981.011, 864 981.081 C 842.825 981.123, 824.825 981.405, 824 981.706 M 1268.500 981.908 C 1261.763 983.580, 1257.343 988.109, 1256.325 994.382 C 1255.319 1000.583, 1257.588 1004.511, 1268.413 1015.307 C 1277.832 1024.700, 1279.071 1026.402, 1284.210 1037 C 1289.591 1048.097, 1308.469 1093.563, 1319.704 1122.484 C 1338.765 1171.550, 1363.416 1231.982, 1367.795 1240.378 C 1373.319 1250.970, 1381.491 1256.470, 1394.750 1258.519 C 1397.088 1258.880, 1399 1259.632, 1399 1260.190 C 1399 1261.896, 1389.144 1283.720, 1381.925 1298 C 1370.566 1320.467, 1362.221 1328.606, 1351.408 1327.760 C 1343.578 1327.147, 1340.797 1324.543, 1334.987 1312.377 C 1326.321 1294.229, 1318.836 1288.469, 1304 1288.532 C 1295.099 1288.569, 1288.872 1291.128, 1282.725 1297.275 C 1268.487 1311.513, 1270.302 1338.592, 1286.523 1353.933 C 1299.407 1366.119, 1323.765 1371.634, 1346.868 1367.596 C 1374.305 1362.802, 1394.035 1346.698, 1412.563 1313.976 C 1420.780 1299.463, 1436.369 1262.309, 1461.606 1197.093 C 1467.904 1180.817, 1477.060 1157.375, 1481.951 1145 C 1486.843 1132.625, 1497.894 1104.275, 1506.508 1082 C 1515.123 1059.725, 1523.472 1038.759, 1525.061 1035.410 C 1529.184 1026.717, 1535.227 1018.977, 1542.488 1013.085 C 1549.717 1007.220, 1552.002 1003.198, 1551.996 996.349 C 1551.992 990.823, 1549.571 986.076, 1545.344 983.304 C 1542.854 981.671, 1539.358 981.470, 1508.546 981.187 C 1489.821 981.015, 1472.555 981.160, 1470.178 981.509 C 1464.117 982.400, 1458.398 988.166, 1457.475 994.315 C 1456.500 1000.822, 1459.299 1006.383, 1466.859 1012.959 C 1479.191 1023.684, 1481.197 1034.580, 1475.061 1057.500 C 1473.293 1064.100, 1465.755 1085.925, 1458.308 1106 C 1450.862 1126.075, 1441.227 1152.092, 1436.897 1163.816 C 1428.466 1186.646, 1427.566 1188.738, 1426.749 1187.378 C 1426.459 1186.895, 1423.872 1180.200, 1420.999 1172.500 C 1418.127 1164.800, 1407.697 1137.800, 1397.821 1112.500 C 1377.827 1061.281, 1371.439 1043.167, 1370.472 1034.945 C 1369.433 1026.116, 1371.139 1021.805, 1378.928 1013.576 C 1386.364 1005.720, 1388.537 1001.042, 1387.689 994.720 C 1387.039 989.872, 1384.495 986.209, 1379.895 983.500 C 1376.627 981.575, 1374.539 981.494, 1324 981.331 C 1295.125 981.239, 1270.150 981.498, 1268.500 981.908 M 1046.609 1008.750 C 1046.320 1009.712, 1045.136 1015.225, 1043.979 1021 C 1042.821 1026.775, 1041.489 1031.891, 1041.018 1032.369 C 1040.539 1032.856, 1039.183 1031.315, 1037.937 1028.869 C 1034.947 1022.999, 1031.333 1018.373, 1027.735 1015.811 L 1024.761 1013.694 1025.489 1024.831 L 1026.217 1035.969 1023.015 1037.734 C 1011.529 1044.070, 1003.976 1051.658, 1002.058 1058.791 C 1001.510 1060.831, 1000.333 1065.180, 999.443 1068.455 C 997.784 1074.561, 994.822 1078.296, 987.008 1084.134 L 983.517 1086.744 984.794 1091.622 C 987.583 1102.268, 994.869 1113.330, 1001.274 1116.642 C 1002.964 1117.516, 1007.411 1118.616, 1011.155 1119.086 C 1026.627 1121.028, 1034.260 1129.599, 1034.237 1145 C 1034.227 1151.209, 1033.517 1154.508, 1030.113 1164.163 C 1025.486 1177.283, 1024.947 1182.737, 1028.004 1185.503 C 1029.794 1187.123, 1030.576 1187.189, 1035.333 1186.125 C 1047.495 1183.403, 1060.406 1172.412, 1068.915 1157.535 C 1080.286 1137.657, 1085.647 1108.231, 1081.491 1088.500 C 1079.699 1079.991, 1079.310 1078.966, 1071.450 1062 C 1068.010 1054.575, 1063.990 1044.031, 1062.517 1038.568 C 1061.044 1033.106, 1059.135 1026.806, 1058.276 1024.568 C 1056.430 1019.761, 1048.848 1007, 1047.837 1007 C 1047.451 1007, 1046.898 1007.788, 1046.609 1008.750 M 428.703 1127.442 C 419.680 1130.661, 412.417 1138.239, 409.993 1146.965 C 408.366 1152.823, 408.799 1164.449, 410.845 1169.833 C 415.643 1182.461, 433.264 1201.727, 459.801 1223.359 L 466.989 1229.218 477.244 1220.393 C 492.167 1207.553, 509.912 1189.542, 515.514 1181.551 C 522.367 1171.775, 524.947 1165.014, 524.976 1156.761 C 525.034 1140.340, 514.286 1127.644, 499.179 1126.287 C 488.569 1125.335, 479.403 1129.811, 472.066 1139.529 C 469.794 1142.538, 467.311 1145, 466.549 1145 C 465.787 1145, 464.202 1143.445, 463.027 1141.544 C 455.527 1129.409, 440.498 1123.235, 428.703 1127.442" fill="#D97757" fill-rule="evenodd" clip-rule="evenodd"/>
<path d="M 876.322 114.086 C 863.700 115.673, 849.601 123.557, 837.749 135.654 C 821.607 152.131, 811.617 170.639, 805.016 196.298 C 800.471 213.965, 799.679 221.148, 800.282 239.211 C 800.735 252.798, 801.314 257.408, 803.774 267.006 C 809.265 288.427, 816.258 301.949, 828.013 313.877 C 838.541 324.559, 849.140 329.749, 864 331.497 C 874.229 332.701, 892.920 327.279, 903.401 320.068 C 919.989 308.655, 936.041 286.983, 943.930 265.348 C 945.504 261.031, 948.055 252.100, 949.598 245.500 C 952.158 234.554, 952.407 231.788, 952.435 214 C 952.462 197.227, 952.143 193.049, 950.159 184.119 C 945.588 163.552, 939.581 150.087, 929.220 137.176 C 915.142 119.635, 896.591 111.537, 876.322 114.086 M 658.742 116.355 C 639.127 123.039, 622.233 142.078, 613.615 167.209 C 607.288 185.660, 604.619 211.042, 606.926 230.815 C 608.468 244.036, 613.910 263.879, 618.932 274.596 C 627.906 293.746, 643.814 312.922, 657.705 321.333 C 669.256 328.327, 685.836 332.733, 695.983 331.504 C 704.022 330.530, 715.494 326.443, 721.643 322.362 C 734.604 313.758, 746.335 296.570, 752.793 276.721 C 758.299 259.797, 759.493 252.107, 759.427 234 C 759.384 222.015, 758.861 216.013, 757.122 207.534 C 747.692 161.563, 723.064 126.722, 692.824 116.576 C 682.381 113.072, 668.637 112.983, 658.742 116.355 M 514 253.882 C 505.889 256.500, 502.669 258.433, 496.720 264.255 C 491.050 269.805, 484.505 280.119, 480.956 289.095 C 474.052 306.559, 474.357 333.956, 481.684 354.350 C 491.745 382.357, 510.725 403.524, 532.500 411.022 C 540.883 413.908, 552.972 414.632, 560.329 412.689 C 573.734 409.147, 586.402 398.031, 593.591 383.500 C 599.240 372.082, 600.965 363.778, 600.965 348 C 600.965 318.300, 589.688 291.264, 568.633 270.489 C 558.779 260.765, 551.289 256.092, 541.458 253.531 C 533.605 251.486, 520.925 251.648, 514 253.882 M 1018.294 253.472 C 1006.390 256.820, 996.883 262.919, 987.502 273.224 C 958.648 304.921, 949.775 353.040, 966.807 385.452 C 976.643 404.170, 994.996 415.217, 1013.645 413.645 C 1028.003 412.435, 1040.989 405.878, 1053.541 393.500 C 1065.529 381.679, 1075.733 363.681, 1080.472 346 C 1083.068 336.319, 1083.704 311.697, 1081.620 301.618 C 1077.272 280.595, 1065.532 263.282, 1050.690 256.005 C 1044.563 253.001, 1042.859 252.633, 1033.690 252.337 C 1026.854 252.116, 1021.786 252.490, 1018.294 253.472 M 689.238 369.042 C 662.794 373.792, 633.015 394.923, 606.489 427.759 C 590.474 447.583, 569.584 481.045, 560.993 500.632 C 555.394 513.399, 548.580 533.549, 546.579 543.256 C 544.404 553.805, 542 574.948, 542 583.520 C 542 611.797, 552.477 642.878, 569.441 664.924 C 581.377 680.435, 601.178 692.942, 623.796 699.256 C 630.571 701.147, 634.094 701.409, 653 701.427 C 671.573 701.446, 675.885 701.145, 684.676 699.220 C 696.859 696.553, 717.811 690.332, 727.500 686.506 C 737.218 682.669, 752.919 673.763, 756.405 670.110 L 759.310 667.067 748.405 656.239 C 742.407 650.283, 723.775 633.016, 707 617.867 C 671.921 586.189, 649.446 564.207, 642.997 555.267 C 640.524 551.838, 636.872 545.313, 634.881 540.767 L 631.263 532.500 639.595 531.354 C 651.752 529.682, 656.323 526.277, 662.220 514.500 C 667.563 503.830, 668.483 499.430, 668.492 484.500 C 668.500 469.883, 667.411 458.628, 666.067 459.459 C 665.635 459.726, 664.976 463.307, 664.604 467.417 C 663.636 478.100, 660.534 493.544, 658.004 500.282 C 655.428 507.140, 650.742 513.576, 645.958 516.826 C 643.023 518.820, 641.549 519.117, 636.215 518.788 C 630.455 518.433, 629.600 518.071, 625.976 514.446 C 615.538 504.008, 615.596 485.953, 626.136 464.412 C 637.074 442.059, 663.774 426, 690 426 C 709.883 426, 726.322 433.738, 735.358 447.352 C 739.192 453.128, 744.295 458.067, 748.878 460.437 C 750.445 461.247, 757.077 463.511, 763.614 465.467 C 780.509 470.523, 782.480 471.521, 784.529 476.065 C 785.867 479.032, 786.151 481.601, 785.760 487.210 C 785.133 496.194, 782.183 504.151, 776.772 511.455 C 771.493 518.581, 765.542 521.607, 754 523.035 C 736.227 525.234, 731.766 526.100, 727.244 528.225 C 720.639 531.330, 715.603 536.782, 713.011 543.635 C 711.149 548.559, 710.872 550.864, 711.283 558 C 712.118 572.503, 717.150 581.897, 732.398 597.418 C 740.790 605.960, 778.511 638, 780.175 638 C 780.575 638, 785.345 634.063, 790.774 629.250 C 796.204 624.438, 804.663 617.062, 809.573 612.859 C 821.823 602.374, 834.521 589.640, 839.606 582.742 C 848.846 570.206, 847.749 565.739, 833.295 557.040 C 821.543 549.967, 816.955 545.430, 813.102 537.071 C 808.947 528.057, 808.374 521.243, 810.484 505.970 C 811.900 495.725, 812.083 489.728, 811.510 472.360 C 810.750 449.329, 811.209 446.332, 815.311 447.559 C 819.346 448.767, 826.864 454.103, 837.016 462.966 L 847.089 471.759 854.582 469.380 C 864.348 466.279, 877.018 466.121, 886.161 468.987 C 889.647 470.080, 892.996 470.980, 893.602 470.987 C 894.208 470.994, 897.808 468.236, 901.602 464.859 C 911.621 455.939, 919.348 450.414, 924.623 448.400 C 929.127 446.680, 929.298 446.685, 930.735 448.565 C 931.982 450.196, 932.096 453.330, 931.460 468.500 C 930.522 490.911, 930.587 493.092, 932.584 505.858 C 934.366 517.253, 933.986 523.598, 930.928 533.499 C 928.533 541.252, 919.261 555.218, 909.584 565.649 C 902.425 573.366, 878.252 595.652, 851.576 619.127 C 825.396 642.166, 808.488 657.722, 804.587 662.359 L 800.500 667.218 805 671.219 C 814.701 679.843, 844.762 692.020, 872.964 698.748 C 883.803 701.334, 885.828 701.496, 906.500 701.432 C 925.877 701.372, 929.440 701.105, 936.384 699.189 C 961.136 692.359, 981.795 678.071, 994.095 659.276 C 1019.619 620.275, 1023.613 573.726, 1005.960 521 C 990.549 474.969, 949.291 416.162, 913.500 389.211 C 902.701 381.079, 887.419 373.196, 877 370.383 C 868.805 368.171, 848.895 367.898, 841 369.890 C 819.294 375.365, 797.203 390.773, 785.433 408.645 C 782.407 413.240, 779.590 417, 779.173 417 C 778.757 417, 776.769 414.188, 774.757 410.750 C 764.553 393.321, 741.178 375.294, 722.500 370.449 C 715.172 368.548, 696.407 367.754, 689.238 369.042 M 707.888 455.500 C 704.686 457.240, 702.548 462.064, 703.427 465.566 C 704.363 469.295, 708.747 473, 712.223 473 C 716.291 473, 721 468.177, 721 464.011 C 721 459.816, 719.546 457.334, 716.020 455.510 C 712.465 453.672, 711.254 453.670, 707.888 455.500" fill="#FFFFFF" fill-rule="evenodd" clip-rule="evenodd"/>
</svg>
