<?xml version="1.0" encoding="UTF-8"?>
<svg xmlns="http://www.w3.org/2000/svg" width="1978" height="754" viewBox="0 0 1978 754">
<path d="M 1497.274 9.105 C 1488.380 10.588, 1462.463 21.560, 1441 32.928 C 1429.725 38.899, 1415.550 46.257, 1409.500 49.277 C 1397.692 55.172, 1394.184 57.986, 1391.445 63.758 C 1389.138 68.619, 1388.392 79.627, 1390.032 84.598 C 1390.892 87.204, 1394.734 92.027, 1401.731 99.286 C 1413.645 111.646, 1416.941 117.494, 1419.606 131 C 1421.122 138.681, 1421.325 154.945, 1421.713 299.841 C 1421.981 399.941, 1421.758 469.634, 1421.118 485.341 C 1419.569 523.409, 1416.983 530.849, 1400.356 545.079 C 1395.485 549.248, 1390.162 554.817, 1388.528 557.456 C 1385.947 561.621, 1385.556 563.207, 1385.556 569.492 C 1385.556 575.651, 1385.951 577.328, 1388.210 580.742 C 1389.671 582.948, 1392.583 585.822, 1394.683 587.127 L 1398.500 589.500 1474.500 589.500 C 1546.736 589.500, 1550.673 589.408, 1554 587.636 C 1559.777 584.559, 1562.984 580.863, 1564.549 575.479 C 1567.414 565.626, 1563.324 554.705, 1553.804 546.789 C 1536.477 532.380, 1533.244 527.430, 1530.326 510.841 C 1528.848 502.438, 1528.651 482.266, 1528.366 310 C 1528.182 198.698, 1527.630 111.171, 1527.047 101 C 1526.496 91.375, 1525.772 71.350, 1525.438 56.500 C 1525.014 37.634, 1524.393 27.906, 1523.376 24.209 C 1521.380 16.954, 1516.266 11.454, 1509.707 9.506 C 1506.919 8.678, 1504.156 8.053, 1503.568 8.117 C 1502.981 8.181, 1500.148 8.626, 1497.274 9.105 M 26.500 64.958 C 11.194 68.569, 3.552 86.400, 11.029 101.056 C 12.205 103.363, 17.420 109.330, 22.616 114.318 C 33.240 124.514, 36.645 130.222, 40.025 143.500 C 43.246 156.155, 44.055 195.403, 44.290 350.346 C 44.516 500.256, 44.312 507.648, 39.532 522.630 C 36.609 531.795, 32.812 536.981, 23.834 544.073 C 15.961 550.293, 13.471 553.156, 10.422 559.500 C 7.663 565.242, 7.219 573.194, 9.370 578.343 C 11.562 583.589, 18.167 588.557, 24.691 589.867 C 32.123 591.359, 165.665 591.435, 175 589.952 C 188.019 587.884, 194.546 580.990, 194.423 569.437 C 194.335 561.059, 191.332 555.255, 183.704 548.716 C 170.405 537.316, 165.963 532.615, 163.428 527.256 C 159.753 519.487, 158.018 509.890, 157.070 492.071 C 156.096 473.776, 156.306 398.361, 157.334 397.333 C 157.722 396.945, 162.868 397.405, 168.770 398.356 C 187.887 401.436, 206.052 403.069, 228 403.680 C 277.322 405.054, 317.784 397.311, 355 379.375 C 373.972 370.232, 386.451 361.639, 399.045 349.045 C 417.341 330.749, 429.933 309.037, 436.824 283.905 C 441.508 266.821, 442.440 258.575, 442.465 234 C 442.486 213.409, 442.206 209.097, 440.198 199.166 C 435.672 176.771, 428.599 159.014, 417.725 142.741 C 392.008 104.257, 340.838 76.448, 278.500 67.078 C 266.307 65.245, 258.177 65.096, 147.500 64.687 C 82.600 64.446, 28.150 64.568, 26.500 64.958 M 192 108.499 C 183.596 110.194, 175.254 113.361, 171.076 116.444 C 163.777 121.829, 160.036 131.354, 157.893 150.010 C 156.208 164.674, 156.218 302.889, 157.904 319 C 160.207 340.995, 169.459 350.721, 194.704 357.685 C 203.844 360.206, 205.839 360.387, 224.500 360.381 C 242.013 360.375, 245.495 360.100, 252.500 358.171 C 268.757 353.695, 281.586 345.754, 293.301 332.919 C 311.431 313.054, 321.351 283.557, 322.701 245.500 C 323.609 219.876, 320.860 199.146, 313.940 179.448 C 307.126 160.049, 300.779 149.103, 289.271 136.904 C 274.265 120.997, 257.279 111.844, 236.500 108.470 C 225.464 106.677, 200.952 106.693, 192 108.499 M 600.004 205.512 C 572.584 209.187, 552.872 215.185, 527.879 227.459 C 513.900 234.324, 504.763 240.498, 495.025 249.658 C 477.772 265.889, 469.832 284.704, 472.833 302.250 C 474.419 311.530, 477.043 316.885, 482.846 322.689 C 488.868 328.710, 496.003 331.899, 507.748 333.819 C 515.750 335.126, 518.573 335.175, 525.864 334.130 C 546.466 331.177, 556.391 322.201, 569.454 294.710 C 579.309 273.971, 586.970 262.869, 595.455 257.031 C 608.517 248.044, 632.298 246.630, 647.653 253.927 C 665.452 262.385, 679.889 286.380, 687.106 319.500 C 690.648 335.751, 694.707 369.445, 693.234 370.356 C 692.737 370.663, 688.956 369.604, 684.832 368.003 C 674.454 363.973, 660.602 360.435, 647 358.342 C 630.767 355.843, 593.951 355.835, 578.076 358.327 C 538.418 364.552, 508.408 378.008, 485.996 399.613 C 475.404 409.824, 470.726 415.714, 464.197 427.060 C 455.370 442.400, 450.989 456.261, 448.968 475.250 C 446.352 499.816, 452.650 526.621, 465.648 546.252 C 471.596 555.235, 486.750 570.351, 495.918 576.445 C 522.101 593.852, 568.136 601.293, 605.007 594.078 C 641.179 587, 671.207 569.650, 691.251 544.250 C 693.963 540.813, 696.525 538, 696.943 538 C 697.361 538, 698.468 540.825, 699.402 544.277 C 705.232 565.814, 717.269 584.049, 729.871 590.435 C 745.738 598.475, 776.779 597.660, 799.586 588.606 C 811.100 584.034, 818.238 579.552, 825.528 572.315 C 833.646 564.256, 836.412 558.573, 836.412 549.948 C 836.412 537.617, 830.303 531.338, 815.877 528.841 C 808.911 527.636, 803.398 525.250, 800.893 522.356 C 798.395 519.471, 796.145 508.555, 795.026 493.889 C 794.464 486.525, 793.997 455.300, 793.987 424.500 C 793.968 365.104, 793.183 346.141, 789.960 327.231 C 784.025 292.407, 772.284 267.192, 753.046 247.955 C 731.565 226.476, 701.275 212.673, 662 206.467 C 647.564 204.186, 613.779 203.666, 600.004 205.512 M 810.500 214.491 C 809.950 214.675, 808.271 215.096, 806.768 215.427 C 803.333 216.184, 797.405 221.328, 795.276 225.398 C 793.132 229.497, 793.140 239.518, 795.291 243.630 C 797.927 248.671, 801.879 252.843, 807.884 256.924 C 816.789 262.974, 823.272 269.308, 828.913 277.469 C 835.690 287.271, 840.172 297.147, 848.445 320.500 C 858.768 349.641, 869.821 380.525, 873.497 390.500 C 875.322 395.450, 878.923 406.025, 881.501 414 C 886.567 429.674, 894.862 454.505, 900.375 470.500 C 902.271 476, 907.096 490.625, 911.098 503 C 919.608 529.317, 931.359 560.809, 936.325 570.609 C 943.898 585.553, 956.854 592.121, 979 592.245 C 1005.587 592.393, 1021.867 581.597, 1031.941 557.136 C 1035.030 549.634, 1037.646 541.395, 1051.985 494 C 1057.560 475.575, 1064.369 453.075, 1067.116 444 C 1075.687 415.688, 1089.988 372.126, 1090.896 371.564 C 1091.373 371.270, 1094.329 378.335, 1097.464 387.264 C 1106.345 412.552, 1115.199 436.894, 1122.466 456 C 1132.414 482.156, 1137 494.897, 1146.578 523 C 1151.358 537.025, 1156.600 551.994, 1158.227 556.264 C 1161.832 565.723, 1169.162 577.152, 1174.976 582.379 C 1186.449 592.692, 1206.501 596.603, 1224.415 592.022 C 1243.898 587.039, 1252.587 577.261, 1261.311 550.500 C 1263.283 544.450, 1270.600 521.950, 1277.569 500.500 C 1291.815 456.657, 1309.921 405.934, 1326.471 363.500 C 1328.830 357.450, 1335.361 339.900, 1340.982 324.500 C 1358.636 276.139, 1360.626 272.654, 1380.291 255.669 C 1388.822 248.301, 1391.273 243.689, 1391.354 234.855 C 1391.406 229.170, 1390.986 227.512, 1388.457 223.430 C 1386.528 220.316, 1383.967 217.846, 1381.093 216.328 L 1376.685 214 1327.555 214 C 1278.589 214, 1278.409 214.008, 1273.976 216.250 C 1268.190 219.177, 1263.454 225.486, 1262.558 231.461 C 1261.095 241.218, 1263.960 246.893, 1275.835 257.758 C 1286.138 267.185, 1289.478 272.796, 1291.139 283.467 C 1292.364 291.335, 1291.127 304.495, 1287.892 318 C 1285.870 326.441, 1276.053 359.754, 1273.895 365.500 C 1273.275 367.150, 1264.116 394.335, 1253.542 425.911 C 1242.968 457.486, 1234.011 482.827, 1233.637 482.222 C 1232.226 479.939, 1206.928 407.199, 1195.999 374 C 1192.740 364.100, 1182.309 333.887, 1175.458 314.500 C 1171.764 304.050, 1164.514 282.550, 1159.346 266.722 C 1154.178 250.894, 1148.908 235.588, 1147.634 232.708 C 1144.467 225.547, 1136.526 218.499, 1129.234 216.380 C 1120.823 213.934, 1108.261 214.829, 1100.266 218.442 C 1093.471 221.512, 1086.508 228.112, 1083.209 234.608 C 1082.122 236.749, 1079.559 243.900, 1077.514 250.500 C 1066.020 287.587, 1062.619 298.144, 1049.969 336 C 1042.342 358.825, 1033.192 386.725, 1029.635 398 C 1020.256 427.732, 1007.425 469.504, 1005.437 476.777 C 1004.493 480.230, 1003.387 483.261, 1002.980 483.513 C 1002.572 483.765, 999.022 473.965, 995.091 461.735 C 988.729 441.945, 984.124 428.465, 963.411 369 C 956.605 349.461, 946.722 317.358, 942.833 302.156 C 940.378 292.560, 939.918 288.998, 940.229 282 C 940.727 270.784, 943.749 264.137, 952.444 255.130 C 956.011 251.436, 959.620 246.759, 960.465 244.739 C 962.362 240.199, 962.460 230.037, 960.649 225.702 C 958.863 221.428, 952.978 216.365, 948.277 215.060 C 945.803 214.373, 921.562 214.036, 878 214.085 C 841.425 214.125, 811.050 214.308, 810.500 214.491 M 1578.791 214.988 C 1573.747 216.509, 1570.101 220.050, 1566.915 226.522 C 1564.284 231.866, 1563.852 233.674, 1564.396 237.077 C 1565.427 243.522, 1568.492 248.458, 1574.707 253.678 C 1586.182 263.319, 1591.893 270.811, 1599.825 286.629 C 1604.221 295.397, 1640.316 379.198, 1654.471 413.500 C 1659.237 425.050, 1667.341 444.625, 1672.479 457 C 1677.617 469.375, 1684.151 485.350, 1687 492.500 C 1708.270 545.888, 1720.071 571.305, 1727.498 579.721 C 1733.468 586.487, 1743.520 591.544, 1754.250 593.178 C 1758.513 593.827, 1762 594.722, 1762 595.166 C 1762 596.748, 1749.743 624.724, 1743.452 637.500 C 1735.818 653.004, 1724.624 670.247, 1717.371 677.677 C 1710.253 684.967, 1702.633 688.448, 1695.423 687.704 C 1685.173 686.646, 1678.677 679.902, 1669.617 660.911 C 1664.459 650.100, 1660.052 644.514, 1653.275 640.202 C 1645.879 635.494, 1638.263 633.706, 1627.606 634.174 C 1619.981 634.509, 1617.401 635.088, 1611.741 637.738 C 1585.970 649.805, 1577.636 681.383, 1592.643 710.102 C 1601.536 727.122, 1617.559 738.355, 1640.500 743.653 C 1646.910 745.133, 1652.375 745.484, 1668 745.419 C 1685.805 745.345, 1688.335 745.110, 1697.105 742.710 C 1733.365 732.789, 1763.858 705.240, 1785.890 662.500 C 1793.926 646.910, 1812.256 605.693, 1821.689 582 C 1838.196 540.538, 1864.792 473.286, 1873.494 451 C 1881.404 430.744, 1888.885 411.685, 1911.960 353 C 1915.961 342.825, 1922.360 326.400, 1926.180 316.500 C 1939.456 282.097, 1942.887 275.914, 1957.514 260.043 C 1962.181 254.978, 1966 250.197, 1966 249.417 C 1966 248.638, 1966.429 248, 1966.953 248 C 1968.246 248, 1969.988 241.409, 1969.994 236.493 C 1970.006 227.854, 1966.150 220.606, 1959.517 216.803 L 1955.500 214.500 1907 214.500 C 1880.325 214.500, 1857.236 214.853, 1855.691 215.284 C 1854.146 215.715, 1850.878 217.915, 1848.428 220.173 C 1841.019 227.002, 1839.375 236.735, 1844.055 246.053 C 1845.037 248.008, 1850.178 253.589, 1855.481 258.456 C 1868.640 270.536, 1872.177 277.850, 1872.138 292.900 C 1872.114 302.426, 1870.203 311.565, 1864.382 330 C 1859.455 345.601, 1842.743 391.720, 1827.963 430.500 C 1822.932 443.700, 1817.099 459, 1815.001 464.500 C 1812.904 470, 1809.591 478.732, 1807.640 483.904 C 1805.689 489.076, 1803.691 493.709, 1803.200 494.200 C 1802.676 494.724, 1800.940 491.249, 1799.001 485.797 C 1797.183 480.683, 1790.316 463, 1783.742 446.500 C 1726.144 301.950, 1724.809 298.316, 1724.619 285.479 C 1724.513 278.341, 1724.852 276.746, 1727.700 270.979 C 1729.460 267.416, 1733.692 261.363, 1737.105 257.528 C 1743.845 249.954, 1746.467 245.013, 1747.504 237.929 C 1748.819 228.947, 1743.765 219.615, 1735.571 215.893 C 1731.723 214.145, 1727.400 214.047, 1656.500 214.108 C 1615.250 214.143, 1580.281 214.539, 1578.791 214.988 M 567 411.817 C 559.006 413.911, 552.924 417.898, 547.416 424.656 C 540.677 432.926, 538.541 439.538, 538.585 452 C 538.615 460.489, 539.056 463.604, 540.888 468.264 C 543.763 475.576, 548.840 483.129, 557.035 492.285 C 563.853 499.902, 587.981 523.052, 596.599 530.245 C 599.403 532.585, 604.927 537.313, 608.874 540.750 C 612.822 544.188, 616.610 547, 617.293 547 C 619.523 547, 642.142 527.029, 658.544 510.579 C 684.398 484.650, 691.741 473.995, 694.060 459.050 C 699.132 426.364, 671.995 401.926, 642.853 412.934 C 635.989 415.526, 629.442 421.121, 623.457 429.508 C 620.988 432.968, 618.394 436.018, 617.692 436.288 C 616.029 436.926, 614.339 435.543, 609.641 429.699 C 601.234 419.238, 593.562 413.815, 583.977 411.556 C 576.018 409.680, 575.108 409.694, 567 411.817" fill="#D97757" fill-rule="evenodd" clip-rule="evenodd"/>
</svg>
