<?xml version="1.0" encoding="UTF-8"?>
<svg xmlns="http://www.w3.org/2000/svg" width="2216" height="779" viewBox="0 0 2216 779">
<path d="M 1718.500 9.068 C 1716.300 9.614, 1706.519 14.104, 1696.764 19.044 C 1687.010 23.985, 1670.585 31.668, 1660.264 36.119 C 1622.214 52.527, 1615.844 56.291, 1610.398 65.584 C 1606.920 71.519, 1606.160 79.956, 1608.477 86.930 C 1609.882 91.162, 1612.034 93.969, 1619.966 101.917 C 1631.226 113.201, 1634.903 119.640, 1637.712 133 C 1639.394 140.996, 1639.500 153.058, 1639.500 336.500 C 1639.500 515.463, 1639.362 532.089, 1637.823 538.657 C 1634.818 551.485, 1632.063 555.836, 1619.540 567.527 C 1605.866 580.294, 1603.453 584.602, 1604.272 594.796 C 1604.892 602.523, 1608.110 607.124, 1615.587 610.972 L 1620.500 613.500 1696 613.500 C 1756.538 613.500, 1772.388 613.232, 1775.983 612.149 C 1781.909 610.362, 1788.426 603.845, 1789.952 598.179 C 1792.770 587.711, 1788.466 579.029, 1774.434 566.881 C 1760.486 554.806, 1757.746 549.369, 1754.840 528 C 1754.005 521.862, 1753.519 450.718, 1753.092 272 C 1752.548 44.605, 1752.366 24.256, 1750.851 21.500 C 1746.399 13.403, 1739.183 9.069, 1729.161 8.472 C 1725.498 8.254, 1720.700 8.522, 1718.500 9.068 M 26.500 47.935 C 21.426 49.170, 17.360 51.761, 13.596 56.158 C 9.351 61.118, 8.005 65.310, 8.028 73.500 C 8.053 82.856, 10.475 86.953, 23.396 99.500 C 43.073 118.607, 44.431 124.222, 46.015 193 C 47.203 244.561, 47.210 485.257, 46.025 508.536 C 44.439 539.663, 41.094 549.967, 28.776 561.657 C 10.071 579.410, 8.575 581.694, 8.530 592.573 C 8.490 601.924, 11.349 606.552, 19.699 610.652 L 25.500 613.500 106 613.500 L 186.500 613.500 191.757 611.124 C 201.273 606.823, 205.853 598.839, 204.490 588.927 C 203.477 581.560, 198.616 574.575, 188.551 566.023 C 174.181 553.812, 171.407 548.819, 168.266 529.500 C 166.904 521.129, 166.628 510.050, 166.570 461.500 C 166.521 420.879, 166.820 403.557, 167.568 403.689 C 175.359 405.071, 205.273 409.160, 214.500 410.105 C 229.848 411.677, 265.134 411.678, 280 410.106 C 343.460 403.398, 390.422 384.635, 423.703 352.692 C 443.078 334.096, 457.737 308.874, 465.011 281.618 C 476.950 236.880, 472.809 185.610, 454 145.296 C 442.350 120.324, 418.973 96.493, 390.134 80.189 C 358.616 62.370, 322.430 51.508, 283 48.031 C 269.791 46.866, 31.257 46.777, 26.500 47.935 M 205.500 92.480 C 191.613 95.059, 180.331 100.880, 175.722 107.844 C 169.173 117.740, 167.255 130.905, 166.013 174.500 C 164.819 216.442, 164.817 261.104, 166.009 296 C 167.225 331.618, 168.897 338.723, 178.167 347.691 C 189.710 358.856, 215.836 365.880, 241.500 364.719 C 269.349 363.459, 292.177 354.416, 308.954 338 C 329.847 317.555, 340.131 290.706, 343.069 248.927 C 346.175 204.760, 337.060 164.158, 317.518 135.110 C 298.415 106.716, 264.807 90.813, 224.500 91.096 C 217.900 91.143, 209.350 91.765, 205.500 92.480 M 650 204.995 C 619.740 207.332, 582.189 217.783, 558.124 230.565 C 539.548 240.432, 524.666 252.333, 515.206 264.888 C 504.196 279.498, 500.402 290.378, 501.233 304.954 C 502.395 325.338, 515.109 338.640, 537.277 342.664 C 547.540 344.528, 561.007 343.859, 570.158 341.033 C 584.396 336.635, 591.796 328.795, 603.600 305.604 C 617.571 278.154, 625.119 267.435, 635.175 260.759 C 654.471 247.951, 683.201 249.812, 700.277 264.976 C 715.302 278.317, 726.629 304.426, 733.492 341.534 C 736.127 355.784, 739.175 380.158, 738.417 380.917 C 738.186 381.148, 732.035 379.460, 724.748 377.165 C 696.279 368.202, 676.372 365.533, 643.545 366.280 C 606.365 367.126, 583.838 372.230, 554.500 386.455 C 523.713 401.382, 504.019 420.097, 490.252 447.508 C 481.703 464.528, 477.909 482.186, 477.909 504.955 C 477.909 537.550, 487.048 561.306, 508.123 583.493 C 525.381 601.661, 553.331 614.782, 584.916 619.543 C 597.244 621.402, 623.560 621.381, 636.774 619.503 C 663.038 615.769, 688.791 606.063, 707.485 592.850 C 717.678 585.647, 732.191 571.572, 736.564 564.651 C 738.179 562.095, 739.985 560.003, 740.578 560.002 C 741.171 560.001, 742.185 562.288, 742.830 565.084 C 749.118 592.326, 767.753 610.749, 796.500 618.146 C 804.082 620.097, 807.942 620.454, 821 620.412 C 839.607 620.351, 847.250 618.630, 862.500 611.067 C 880.058 602.358, 889.749 592.489, 899.844 573.038 C 908.406 556.541, 912.751 541.183, 916.972 512.500 C 919.524 495.163, 920.651 460.894, 919.175 445.523 C 918.596 439.485, 918.238 434.428, 918.381 434.286 C 918.523 434.143, 923.784 436.625, 930.070 439.802 C 946.631 448.170, 956.262 449.792, 969.356 446.416 C 984.434 442.528, 995.206 433.502, 1002.532 418.617 C 1010.099 403.245, 1011.376 396.773, 1011.438 373.500 C 1011.479 358.359, 1011.052 351.070, 1009.682 343.500 C 1007.501 331.448, 1003.347 315.571, 1001.380 311.767 C 999.606 308.337, 996.713 308.196, 993.524 311.385 C 989.162 315.747, 988.651 320.407, 990.025 343.333 C 992.297 381.246, 988.565 399.013, 975.945 410.359 C 967.181 418.239, 956.823 419.863, 945.719 415.097 C 935.237 410.598, 928.157 402.165, 923.296 388.391 C 920.596 380.741, 920.511 379.874, 920.514 360 C 920.516 340.894, 920.705 338.754, 923.294 328.522 C 931.255 297.057, 942.960 276.314, 960.798 262.061 C 973.319 252.057, 987.609 247.028, 1003.500 247.032 C 1020.480 247.037, 1034.442 251.811, 1047 261.907 C 1060.293 272.593, 1065.708 281.142, 1073.958 304.465 C 1080.762 323.698, 1083.221 328.275, 1091.279 336.692 C 1098.192 343.914, 1107.507 349.106, 1122.261 353.961 C 1127.754 355.768, 1132.406 357.900, 1132.900 358.836 C 1133.382 359.751, 1134.512 363.388, 1135.411 366.917 C 1136.309 370.446, 1138.834 376.576, 1141.022 380.540 C 1143.210 384.503, 1144.985 389.041, 1144.967 390.623 C 1144.919 394.729, 1139.116 409.444, 1134.057 418.286 C 1123.885 436.065, 1113.930 441.564, 1087.556 443.973 C 1071.449 445.445, 1063.061 447.435, 1053.263 452.113 C 1034.945 460.857, 1020.431 479.960, 1013.840 504.001 C 1011.737 511.671, 1011.516 514.499, 1011.580 533 C 1011.656 555.225, 1013.118 569.011, 1017.922 592.784 C 1019.463 600.410, 1021.487 607.814, 1022.420 609.238 C 1024.512 612.430, 1029.715 615, 1034.085 615 C 1038.685 615, 1045.222 611.588, 1047.272 608.117 C 1049.748 603.925, 1049.443 599.176, 1045.551 581.321 C 1041.156 561.159, 1040 551.664, 1040 535.734 C 1040 508.155, 1047.186 492.008, 1063.025 483.994 C 1070.407 480.259, 1073.881 479.408, 1093.608 476.499 C 1112.691 473.685, 1118.844 472.104, 1127.448 467.805 C 1147.646 457.710, 1160.266 440.161, 1169.702 409.046 C 1178.654 379.526, 1180.005 356.767, 1173.554 344.146 C 1168.753 334.755, 1161.027 329.902, 1143.132 325.036 C 1123.168 319.608, 1115.118 315.663, 1110.550 309.072 C 1109.004 306.841, 1105.591 299.050, 1102.964 291.758 C 1096.398 273.529, 1094.767 269.983, 1088.593 260.512 C 1082.262 250.798, 1067.973 235.954, 1059.500 230.287 C 1039.179 216.695, 1015.346 210.287, 994.867 212.907 C 965.033 216.724, 936.426 235.358, 918.740 262.496 C 902.796 286.962, 892.579 318.209, 889.927 350.616 C 889.064 361.174, 889.092 374.081, 890.045 404.500 C 891.987 466.474, 890.364 500.119, 884.443 520.635 C 881.321 531.453, 877.501 538.469, 872.552 542.475 C 869.348 545.068, 867.982 545.500, 862.988 545.500 C 858.233 545.500, 856.697 545.064, 854.637 543.129 C 845.678 534.712, 844.149 519.171, 843.552 430.500 C 843.108 364.566, 842.566 353.180, 838.931 333.500 C 831.930 295.600, 820.847 271.587, 801.591 252.596 C 780.325 231.624, 751.120 216.868, 716.491 209.600 C 697.354 205.583, 668.371 203.576, 650 204.995 M 1420.160 216.185 C 1412.254 217.536, 1404.785 223.392, 1399.529 232.361 C 1396.811 236.998, 1392.199 254.060, 1383.428 291.926 C 1380.954 302.610, 1376.953 319.485, 1374.539 329.426 C 1372.124 339.367, 1368.278 355.375, 1365.991 365 C 1363.704 374.625, 1357.797 399.150, 1352.864 419.500 C 1347.932 439.850, 1341.408 466.850, 1338.367 479.500 C 1331.648 507.452, 1332.103 505.931, 1331.041 504 C 1330.237 502.539, 1320.625 466.373, 1310.045 425 C 1307.161 413.725, 1301.498 392.125, 1297.459 377 C 1280.764 314.485, 1277 298.018, 1277 287.497 C 1277 277.976, 1280.036 269.783, 1287.005 260.500 C 1294.019 251.157, 1296.513 244.263, 1295.707 236.453 C 1295.106 230.626, 1292.372 224.598, 1288.834 221.298 C 1283.136 215.983, 1283.348 216, 1224.097 216 C 1187.692 216, 1168.180 216.359, 1166.315 217.064 C 1159.855 219.505, 1154.316 227.537, 1153.325 235.901 C 1152.434 243.426, 1155.095 250.761, 1161.595 258.700 C 1179.115 280.097, 1180.687 283.044, 1186.573 305.500 C 1192.294 327.328, 1196.914 343.623, 1203.016 363.500 C 1206.224 373.950, 1211.631 391.950, 1215.031 403.500 C 1218.431 415.050, 1223.835 433.275, 1227.040 444 C 1230.245 454.725, 1236.715 477.088, 1241.417 493.696 C 1258.055 552.455, 1268.128 585.590, 1271.592 592.957 C 1276.083 602.509, 1280.521 607.877, 1286.711 611.246 C 1305.327 621.378, 1328.392 617.480, 1342.470 601.822 C 1351.890 591.345, 1354.775 584.037, 1363.915 547.500 C 1366.666 536.500, 1371.217 519.175, 1374.026 509 C 1376.836 498.825, 1382.298 478.575, 1386.163 464 C 1390.027 449.425, 1393.550 437.119, 1393.991 436.654 C 1394.432 436.188, 1395.306 438.213, 1395.934 441.154 C 1397.119 446.705, 1426.642 550.179, 1431.888 567.168 C 1435.684 579.460, 1440.239 590.408, 1444.069 596.448 C 1447.997 602.641, 1455.778 610.035, 1461.237 612.761 C 1481.568 622.915, 1504.257 617.369, 1516.668 599.210 C 1523.281 589.534, 1522.262 593.173, 1562.787 434.500 C 1570.513 404.250, 1580.055 366, 1583.991 349.500 C 1602.482 271.993, 1600.465 277.955, 1614.955 258 C 1620.344 250.579, 1622.322 244.391, 1621.820 236.515 C 1621.290 228.186, 1617.344 221.558, 1610.991 218.323 L 1606.500 216.036 1515.334 215.768 C 1465.192 215.621, 1422.364 215.808, 1420.160 216.185 M 1802 216.936 C 1794.319 218.486, 1788.904 223.200, 1785.531 231.272 C 1783.594 235.906, 1783.608 238.316, 1785.606 245.046 C 1787.046 249.895, 1788.627 251.855, 1800.879 263.977 C 1821.475 284.357, 1821.256 283.919, 1864.391 391.500 C 1871.669 409.650, 1879.806 430.125, 1882.475 437 C 1887.456 449.830, 1903.996 491.169, 1917.283 524 C 1941.520 583.884, 1944.236 589.821, 1950.654 596.960 C 1958.645 605.848, 1969.361 611.036, 1982.889 612.567 C 1986.250 612.947, 1989 613.670, 1989 614.172 C 1989 615.610, 1974.596 647.724, 1966.008 665.432 C 1949.758 698.940, 1937.405 712, 1921.961 712 C 1911.309 712, 1903.781 705.583, 1897.599 691.234 C 1886.442 665.340, 1873.858 655, 1853.500 655 C 1840.644 655, 1830.566 659.479, 1821.243 669.336 C 1815.775 675.118, 1813.732 678.559, 1810.927 686.711 C 1802.731 710.534, 1814.165 741.753, 1836.356 756.140 C 1852.629 766.691, 1880.096 772.392, 1903.513 770.081 C 1936.772 766.798, 1961.666 753.677, 1983.045 728.164 C 2007.898 698.507, 2018.873 675.399, 2070.751 543.500 C 2074.644 533.600, 2081.448 516.050, 2085.870 504.500 C 2090.292 492.950, 2098.005 473.150, 2103.011 460.500 C 2108.017 447.850, 2114.808 430.525, 2118.102 422 C 2121.396 413.475, 2127.514 397.725, 2131.697 387 C 2135.881 376.275, 2144.661 353.550, 2151.209 336.500 C 2164.827 301.038, 2172.755 284.065, 2179.688 275.531 C 2182.355 272.249, 2188.579 266.090, 2193.518 261.845 C 2204.776 252.172, 2207.524 247.440, 2207.445 237.858 C 2207.398 232.230, 2206.914 230.396, 2204.404 226.332 C 2202.511 223.270, 2199.785 220.585, 2196.959 219 L 2192.500 216.500 2140 216.500 L 2087.500 216.500 2083.044 219 C 2076.322 222.772, 2072.683 228.610, 2072.186 236.422 C 2071.544 246.499, 2072.921 249.152, 2084.942 261 C 2099.637 275.484, 2102.737 282.761, 2101.743 300.450 C 2100.694 319.145, 2093.759 340.643, 2059.306 432 C 2054.818 443.901, 2034.460 499.059, 2030.794 509.250 C 2030.250 510.762, 2029.453 512, 2029.023 512 C 2028.594 512, 2025.878 505.587, 2022.989 497.750 C 2017.649 483.262, 2002.108 442.686, 1993.210 420 C 1957.177 328.134, 1950.023 308.439, 1947.984 295.500 C 1945.716 281.103, 1948.888 272.376, 1960.434 261.252 C 1969.932 252.102, 1972.336 247.628, 1972.393 239 C 1972.467 227.666, 1965.897 219.430, 1954.900 217.072 C 1949.268 215.864, 1807.935 215.739, 1802 216.936 M 1484.999 252.750 C 1484.993 256.217, 1477.635 288.607, 1476.726 289.170 C 1475.959 289.643, 1474.328 287.583, 1472.044 283.256 C 1468.585 276.704, 1459.499 265.873, 1455.803 263.895 C 1453.968 262.913, 1453.914 263.429, 1454.202 279.089 L 1454.500 295.301 1445.535 300.490 C 1435.116 306.521, 1427.043 313.992, 1423.652 320.739 C 1422.337 323.358, 1420.308 329.667, 1419.145 334.760 C 1415.841 349.227, 1415.277 350.035, 1398.358 364.523 L 1394.828 367.546 1396.480 374.023 C 1398.845 383.297, 1405.111 395.631, 1410.635 401.885 C 1416.047 408.012, 1425.272 412.998, 1431.201 412.999 C 1433.236 413, 1437.286 413.506, 1440.201 414.124 C 1455.242 417.316, 1464.394 427.387, 1467.091 443.718 C 1468.570 452.679, 1466.799 462.227, 1460.438 479.579 C 1456.675 489.842, 1455.680 493.867, 1455.600 499.144 C 1455.520 504.475, 1455.895 506.227, 1457.500 508.007 C 1460.650 511.501, 1468.682 510.328, 1480.261 504.685 C 1509.608 490.381, 1530.571 452.934, 1536.067 405 C 1538.936 379.973, 1534.500 359.827, 1519.590 330.169 C 1513.898 318.848, 1510.972 310.887, 1506.488 294.525 C 1504.608 287.666, 1501.732 278.911, 1500.097 275.069 C 1495.381 263.987, 1485.005 248.649, 1484.999 252.750 M 605 424.311 C 593.962 426.832, 582.938 435.321, 577.915 445.167 C 574.957 450.965, 573 459.722, 573 467.161 C 573 486.771, 581.555 501.736, 607.497 527.500 C 619.822 539.741, 650.542 566.994, 654.649 569.330 C 656.589 570.433, 658.138 569.333, 673.192 556.162 C 708.180 525.547, 726.411 505.017, 735.336 486.178 C 738.383 479.747, 738.500 479.020, 738.500 466.500 C 738.500 454.555, 738.288 453.054, 735.888 448 C 728.637 432.733, 714.331 423.052, 698.960 423.012 C 692.960 422.996, 683.490 425.524, 678.419 428.495 C 673.943 431.118, 665.958 439.016, 660.802 445.921 C 658.986 448.353, 656.980 450.514, 656.345 450.723 C 655.710 450.932, 652.605 447.669, 649.446 443.472 C 642.994 434.899, 635.544 428.774, 628.150 425.965 C 621.546 423.456, 611.794 422.759, 605 424.311" fill="#D97757" fill-rule="evenodd" clip-rule="evenodd"/>
</svg>
