<?xml version="1.0" encoding="UTF-8"?>
<svg xmlns="http://www.w3.org/2000/svg" width="1024" height="1024" viewBox="0 0 1024 1024">
<rect x="9" y="5" width="1005" height="1013" rx="181" ry="181" fill="#D97757"/>
<path d="M 367.870 132.018 C 337.369 136.788, 310.512 163.149, 298.098 200.500 C 282.256 248.164, 285.641 299.464, 307.534 343.522 C 322.026 372.687, 344.551 395.652, 367.635 404.799 C 388.460 413.050, 401.934 413.681, 421.220 407.306 C 431.414 403.937, 439.255 398.842, 448.549 389.548 C 464.224 373.873, 474.484 353.690, 481.525 324.675 C 490.912 286, 484.063 237.626, 463.448 196.999 C 453.459 177.312, 439.557 159.888, 425.093 148.928 C 417.165 142.920, 402.628 135.549, 394.831 133.582 C 387.218 131.661, 374.767 130.939, 367.870 132.018 M 633.500 132.436 C 615.411 135.999, 599.787 145.159, 584.398 161.224 C 573.193 172.920, 564.979 184.786, 557.618 199.911 C 538.419 239.355, 532.379 282.846, 540.664 322 C 547.252 353.136, 557.779 373.914, 575.623 391 C 585.185 400.155, 590.861 403.697, 602.236 407.605 C 618.248 413.107, 631.904 412.738, 650.475 406.302 C 661.900 402.342, 667.506 399.160, 677.632 390.890 C 716.638 359.030, 738.773 299.398, 732.952 241.856 C 728.014 193.042, 706.654 154.291, 676.500 139.443 C 661.562 132.088, 647.172 129.743, 633.500 132.436 M 173.601 310.594 C 157.897 314.394, 145.391 324.523, 135.447 341.499 C 124.504 360.180, 120.364 377.968, 121.363 402 C 122.205 422.215, 126.057 437.539, 135.066 456.500 C 148.169 484.080, 169.934 505.153, 194.194 513.750 C 204.484 517.397, 222.596 518.084, 231.784 515.177 C 241.488 512.106, 251.123 505.712, 259.564 496.738 C 265.620 490.301, 268.181 486.523, 272.534 477.609 C 279.300 463.751, 280.954 456.479, 281.683 437.369 C 282.382 419.047, 280.723 407.353, 274.909 389.617 C 267.904 368.252, 258.230 351.715, 243.853 336.526 C 233.624 325.720, 226.191 319.942, 216.752 315.460 C 203.736 309.278, 186.890 307.378, 173.601 310.594 M 820.500 310.468 C 805.529 313.733, 794.713 320.152, 780.953 333.936 C 758.649 356.279, 744.307 387.632, 740.866 421.566 C 737.033 459.375, 752.174 494.815, 778.434 509.500 C 787.751 514.711, 796.495 517.003, 806.978 516.985 C 838.872 516.930, 869.264 493.836, 887.472 455.821 C 898.293 433.230, 901.612 417.211, 900.694 392 C 899.766 366.532, 895.263 352.830, 881.420 333.359 C 873.152 321.729, 862.610 314.353, 849.443 310.985 C 840.540 308.708, 829.473 308.510, 820.500 310.468 M 401 459.073 C 386.182 460.942, 373.729 465.160, 358.567 473.446 C 319.826 494.617, 285.719 531.992, 249.011 593.500 C 233.690 619.172, 219.862 651.494, 213.501 676.500 C 206.510 703.986, 204.555 741.548, 208.871 765.431 C 214.457 796.335, 229.553 827.890, 248.171 847.577 C 265.471 865.872, 290.016 879.105, 318 885.224 C 331.082 888.084, 362.438 888.311, 378.327 885.659 C 405.068 881.197, 438.892 870.721, 458.587 860.800 C 471.596 854.248, 484 845.809, 484 843.510 C 484 840.295, 471.241 827.169, 451 809.562 C 448.525 807.409, 439.750 799.486, 431.500 791.955 C 423.250 784.425, 408.637 771.117, 399.026 762.382 C 375.244 740.766, 349.077 715.098, 341.560 706.010 C 332.482 695.034, 329.324 690.031, 324.473 678.939 C 320.849 670.651, 320.407 668.997, 321.813 668.982 C 322.741 668.972, 327.419 668.552, 332.210 668.048 C 342.767 666.937, 348.332 664.051, 354.176 656.658 C 359.283 650.197, 362.098 644.572, 365.512 634 C 367.779 626.982, 368.345 623.107, 368.756 611.780 C 369.227 598.807, 367.879 581.469, 366.020 576.586 C 365.073 574.098, 364.910 574.908, 362.431 594.424 C 359.106 620.601, 353.693 635.910, 344.445 645.290 C 336.207 653.647, 328.564 655.133, 318.936 650.250 C 309.373 645.401, 304 634.406, 304 619.685 C 304 598.841, 314.771 575.021, 331.293 559.327 C 340.638 550.450, 345.885 546.860, 357.322 541.519 C 371.197 535.038, 378.744 533.497, 396.500 533.516 C 413.532 533.535, 420.007 534.824, 431.645 540.513 C 440.578 544.879, 447.697 551.214, 455.232 561.500 C 464.878 574.668, 469.648 577.465, 495.500 585.109 C 512.722 590.201, 514.501 591.090, 516.859 595.771 C 520.756 603.508, 520.449 613.684, 515.897 627.673 C 513.573 634.815, 505.616 646.665, 500.552 650.529 C 495.709 654.222, 487.035 656.704, 474.316 658.037 C 457.410 659.808, 449.030 661.674, 442.051 665.221 C 422.826 674.995, 417.430 699.895, 429.098 725 C 433.320 734.085, 440.977 743.712, 454.179 756.532 C 465.766 767.784, 509.087 804.249, 511.539 804.814 C 512.288 804.986, 517.310 801.151, 522.700 796.291 C 528.090 791.431, 535.200 785.215, 538.500 782.477 C 563.261 761.938, 582.228 743.139, 590.797 730.642 C 594.954 724.581, 595.500 723.166, 595.500 718.458 C 595.500 713.904, 595.065 712.676, 592.500 709.993 C 590.850 708.267, 584.299 703.775, 577.942 700.011 C 571.584 696.246, 564.810 691.425, 562.887 689.297 C 554.762 680.304, 548.996 665.702, 549.005 654.145 C 549.008 650.490, 549.954 641.200, 551.106 633.500 C 552.791 622.242, 553.080 616.954, 552.584 606.500 C 552.245 599.350, 551.692 587.650, 551.354 580.500 C 550.848 569.762, 551.024 566.828, 552.365 563.640 C 553.836 560.146, 554.251 559.846, 556.745 560.471 C 562.795 561.987, 571.433 568.248, 588.862 583.750 C 593.345 587.737, 597.606 591, 598.331 591 C 599.056 591, 602.991 589.797, 607.075 588.326 C 613.704 585.939, 615.947 585.648, 628 585.610 C 640.221 585.572, 642.218 585.825, 649.075 588.284 C 653.242 589.778, 657.071 591, 657.585 591 C 658.099 591, 664.133 586.070, 670.994 580.045 C 683.772 568.824, 692.589 562.829, 699.293 560.804 C 702.532 559.825, 703.336 559.907, 704.793 561.363 C 706.244 562.813, 706.498 565.204, 706.487 577.284 C 706.479 585.103, 706.087 597.350, 705.615 604.500 C 704.864 615.875, 705.038 619.242, 707.006 631.439 C 708.622 641.447, 709.114 647.792, 708.753 653.939 C 707.484 675.549, 695.094 696.115, 666.846 723.500 C 654.323 735.641, 621.606 765.333, 604.536 780.048 C 598.506 785.247, 590.179 792.650, 586.032 796.500 C 581.886 800.350, 573.094 808.276, 566.496 814.113 C 552.522 826.475, 539 840.373, 539 842.373 C 539 846.069, 553.588 855.840, 570.641 863.564 C 583.606 869.437, 610.888 878.327, 629 882.581 C 661.750 890.274, 697.905 889.426, 723.234 880.371 C 734.245 876.435, 750.835 867.642, 759.693 861.048 C 795.074 834.709, 818.003 780.019, 815.684 727.500 C 813.875 686.507, 802.104 646.493, 779.797 605.500 C 767.479 582.865, 756.712 566.334, 738.109 541.500 C 724.172 522.894, 696.021 494.573, 680.500 483.544 C 640.742 455.291, 603.564 451.111, 564.822 470.536 C 542.921 481.517, 526.602 496.328, 515.505 515.297 C 513.349 518.984, 511.248 522, 510.836 522 C 510.425 522, 508.253 518.857, 506.010 515.016 C 494.446 495.217, 474.867 477.664, 452.500 467.046 C 442.404 462.254, 435.201 460.354, 422.144 459.041 C 410.742 457.895, 410.340 457.895, 401 459.073 M 417.012 572.752 C 413.788 575.977, 413 577.485, 413 580.432 C 413 587.743, 418.047 593, 425.068 593 C 427.431 593, 429.253 591.982, 432.246 588.989 C 436.021 585.215, 436.227 584.705, 435.738 580.367 C 435.057 574.328, 431 570.078, 425.169 569.296 C 421.345 568.783, 420.715 569.050, 417.012 572.752" fill="#FFFFFF" fill-rule="evenodd" clip-rule="evenodd"/>
</svg>
