<?xml version="1.0" encoding="UTF-8"?>
<svg xmlns="http://www.w3.org/2000/svg" width="2397" height="811" viewBox="0 0 2397 811">
<path d="M 179.500 11.043 C 139.530 11.629, 136.418 11.979, 118.159 17.950 C 95.238 25.445, 77.371 36.550, 59.427 54.454 C 32.971 80.851, 18.858 111.485, 15.012 150.856 C 13.575 165.559, 13.628 651.689, 15.067 664.789 C 19.182 702.250, 31.842 729.062, 57.427 754.506 C 74.972 771.953, 92.015 782.569, 115 790.365 C 137.796 798.097, 113.650 797.500, 403.500 797.500 L 662.500 797.500 672.648 795.252 C 703.331 788.454, 728.046 775.087, 749 753.955 C 770.788 731.982, 784.842 703.253, 789.509 671.144 C 790.881 661.710, 791.022 631.103, 790.754 402 L 790.451 143.500 788.176 133.606 C 782.739 109.968, 773.974 89.692, 761.700 72.361 C 744.192 47.639, 717.236 27.967, 687.288 18.056 C 663.780 10.276, 681.662 10.803, 436 10.643 C 315.275 10.564, 199.850 10.744, 179.500 11.043 M 288.500 110.098 C 285.750 110.651, 279.750 112.911, 275.167 115.120 C 268.521 118.324, 265.181 120.803, 258.667 127.367 C 243.811 142.338, 235.473 160.570, 230.936 188 C 229.291 197.947, 229.271 221.512, 230.898 231.500 C 234.245 252.039, 243.187 274.896, 253.783 290 C 260.347 299.356, 273.443 311.989, 281.528 316.766 C 296.182 325.423, 311.778 328.585, 325.147 325.611 C 336.354 323.117, 344.208 318.949, 352.219 311.243 C 364.444 299.484, 372.340 285.494, 377.873 265.791 C 385.327 239.242, 384.213 211.082, 374.540 181.553 C 367.555 160.229, 357.096 143.105, 342.591 129.247 C 329.084 116.341, 316.409 110.249, 301.500 109.496 C 297.100 109.274, 291.250 109.544, 288.500 110.098 M 497 110.098 C 480.054 113.406, 461.993 126.644, 448.360 145.748 C 437.919 160.381, 428.318 185.107, 424.414 207.417 C 422.305 219.473, 422.330 240.052, 424.467 251.539 C 429.275 277.376, 436.658 294.148, 449.063 307.408 C 456.767 315.644, 463.839 320.442, 473.059 323.691 C 479.134 325.832, 482.336 326.320, 490.500 326.352 C 499.167 326.386, 501.668 325.981, 509.261 323.311 C 520.182 319.471, 527.206 315.253, 535.916 307.303 C 557.180 287.896, 570.997 258.313, 575.057 223.500 C 577.976 198.470, 571.764 165.502, 560.267 145 C 553.738 133.357, 540.112 119.508, 530.912 115.163 C 519.209 109.637, 507.964 107.957, 497 110.098 M 2027.877 176.634 C 2020.520 180.282, 2006.485 186.781, 1996.688 191.075 C 1986.892 195.369, 1976.860 200.064, 1974.396 201.508 C 1965.848 206.518, 1961.479 215.861, 1964.047 223.642 C 1964.741 225.746, 1968.466 230.751, 1972.730 235.311 C 1980.648 243.778, 1983.143 248.302, 1985.068 257.688 C 1986.607 265.197, 1987.538 481.889, 1986.179 516.500 C 1984.976 547.122, 1984.679 548.044, 1972.043 560.295 C 1965.060 567.064, 1962.834 569.902, 1961.960 573.150 C 1960.595 578.217, 1961.358 582.915, 1964.115 586.419 C 1968.603 592.124, 1967.221 592, 2026.216 592 C 2077.169 592, 2080.745 591.885, 2083.983 590.149 C 2089.415 587.236, 2091.508 583.696, 2091.449 577.524 C 2091.385 570.821, 2088.401 566.030, 2080.312 559.638 C 2073.239 554.049, 2070.640 550.335, 2068.318 542.500 C 2066.653 536.879, 2066.508 525.324, 2066.020 359.500 C 2065.636 228.838, 2065.198 181.846, 2064.346 180 C 2061.334 173.474, 2055.190 170, 2046.659 170 C 2042.006 170, 2039.392 170.924, 2027.877 176.634 M 856.619 198.010 C 852.682 199.222, 849.096 202.720, 846.890 207.500 C 842.976 215.980, 845.325 223.250, 854.937 232.407 C 863.461 240.527, 865.885 243.957, 868.077 250.998 C 871.566 262.211, 872.058 280.101, 872.282 404 C 872.519 534.770, 872.520 534.731, 867.082 546.541 C 864.988 551.090, 862.512 554.171, 857.052 559.024 C 853.065 562.567, 848.947 567.144, 847.901 569.193 C 845.329 574.236, 845.367 582.302, 847.980 585.972 C 852.347 592.105, 851.191 592, 914.167 592 C 968.078 592, 971.741 591.889, 975.016 590.148 C 979.523 587.753, 983 582.602, 983 578.320 C 983 572.226, 980.217 567.759, 970.653 558.500 C 962.636 550.739, 961.125 548.743, 959.680 544 C 956.855 534.726, 956.035 521.021, 956.017 482.750 C 956.003 453.020, 956.251 446, 957.316 446 C 958.040 446, 961.078 446.442, 964.066 446.983 C 987.066 451.142, 1021.393 452.239, 1042.500 449.489 C 1067.699 446.206, 1086.418 440.840, 1105.500 431.429 C 1137.885 415.457, 1159.507 388.202, 1166.447 354.603 C 1173.802 318.995, 1167.583 279.486, 1150.636 254.147 C 1135.280 231.188, 1105.878 212.459, 1071.092 203.475 C 1047.927 197.493, 1052.305 197.716, 952 197.407 C 900.084 197.248, 858.236 197.512, 856.619 198.010 M 987.965 228.058 C 972.365 229.734, 962.595 235.847, 959.657 245.770 C 956.361 256.899, 955.697 270.538, 955.680 327.500 C 955.662 385.795, 956.104 393.395, 959.946 400.863 C 962.542 405.910, 966.550 409.453, 973 412.401 C 983.447 417.177, 990.433 418.495, 1005 418.438 C 1019.641 418.381, 1028.801 416.518, 1039.625 411.397 C 1059.544 401.974, 1072.703 382.467, 1078.007 354.500 C 1079.816 344.963, 1080.409 319.694, 1079.089 308.350 C 1076.630 287.199, 1068.665 266.414, 1057.971 253.236 C 1043.416 235.302, 1015.151 225.137, 987.965 228.058 M 140.500 248.411 C 125.668 252.092, 114.203 263.064, 106.004 281.422 C 102.359 289.585, 100.985 295.601, 100.064 307.432 C 98.633 325.814, 101.785 342.841, 109.851 360.300 C 115.377 372.260, 121.057 380.289, 130.509 389.500 C 143.435 402.097, 158.529 408.931, 173.540 408.983 C 190.736 409.042, 207.995 396.951, 217.053 378.500 C 222.001 368.420, 223.910 361.022, 224.666 349 C 226.151 325.369, 217.397 297.029, 202.483 277.189 C 195.070 267.327, 182.767 256.441, 174.662 252.571 C 163.413 247.200, 151.315 245.727, 140.500 248.411 M 642 248.452 C 629.852 251.573, 620.472 257.464, 610.248 268.394 C 598.987 280.432, 591.519 293.373, 586.161 310.137 C 582.138 322.721, 581.017 330.046, 581.008 343.803 C 580.998 358.030, 582.913 366.882, 588.536 378.605 C 599.066 400.558, 619.337 411.941, 641.003 408.069 C 650.298 406.408, 663.438 399.813, 671.921 392.551 C 687.149 379.517, 700.176 355.777, 704.090 333.930 C 705.741 324.713, 705.765 305.502, 704.135 297.500 C 701.993 286.981, 698.121 277.738, 692.216 269.044 C 685.523 259.189, 678.107 252.948, 669.449 249.882 C 661.882 247.202, 649.395 246.552, 642 248.452 M 1282.967 308.454 C 1269.969 310.589, 1254.600 314.720, 1243.411 319.087 C 1227.845 325.164, 1216.901 332.102, 1206.482 342.500 C 1195.335 353.624, 1190.984 361.459, 1190.258 371.713 C 1189.319 384.973, 1194.278 394.337, 1205.174 399.877 C 1210.981 402.830, 1213.079 403.335, 1221.315 403.766 C 1229.177 404.177, 1232.009 403.888, 1238.026 402.061 C 1248.138 398.989, 1253.639 393.340, 1261.454 378 C 1269.722 361.770, 1274.315 354.827, 1280.551 349.128 C 1287.700 342.594, 1293.760 340.500, 1305.521 340.500 C 1313.696 340.500, 1315.168 340.808, 1321.206 343.781 C 1329.841 348.032, 1335.870 354.754, 1341.519 366.432 C 1346.591 376.915, 1350.238 388.903, 1352.969 404.070 C 1355.302 417.027, 1356.564 430, 1355.491 430 C 1355.060 430, 1350.435 428.632, 1345.214 426.959 C 1314.254 417.042, 1275.197 416.915, 1245.500 426.635 C 1221.284 434.561, 1201.853 447.592, 1190.422 463.572 C 1185.114 470.992, 1178.617 484.419, 1176.423 492.500 C 1173.906 501.774, 1173.377 523.782, 1175.424 534.090 C 1179.458 554.396, 1193.385 573.966, 1210.692 583.644 C 1237.526 598.651, 1271.161 601.843, 1303.549 592.458 C 1324.080 586.508, 1343.159 574.088, 1353.585 559.885 C 1355.595 557.146, 1357.450 555.117, 1357.707 555.374 C 1357.965 555.631, 1359.403 559.389, 1360.905 563.725 C 1365.135 575.942, 1371.092 583.454, 1381.290 589.430 C 1392.017 595.716, 1408.667 598.848, 1421.713 597.034 C 1453.235 592.649, 1471.426 572.508, 1478.915 533.700 C 1482.024 517.591, 1483.313 500.328, 1482.720 482.750 C 1482.427 474.087, 1482.355 467, 1482.559 467 C 1482.764 467, 1484.969 468.293, 1487.461 469.873 C 1495.007 474.659, 1505.015 477.386, 1512.290 476.639 C 1520.154 475.831, 1529.609 471.282, 1534.363 466.020 C 1539.083 460.796, 1543.643 451.600, 1545.655 443.250 C 1548.957 429.546, 1547.125 403.312, 1541.741 387.204 C 1539.275 379.828, 1537.423 378.556, 1534.193 382.023 C 1531.403 385.018, 1531.072 388.539, 1532.096 404.371 C 1533.841 431.378, 1530.031 446.010, 1519.574 452.461 C 1507.041 460.193, 1491.814 452.973, 1485.842 436.467 C 1482.482 427.177, 1482.102 409.310, 1484.980 395.855 C 1489.738 373.609, 1498.563 357.476, 1511.665 347.068 C 1528.729 333.514, 1552.698 332.827, 1569.751 345.404 C 1580.459 353.300, 1584.874 359.808, 1590.439 375.896 C 1598.017 397.806, 1603.827 403.877, 1624 410.966 C 1631.360 413.552, 1631.524 413.685, 1632.769 418.051 C 1633.467 420.498, 1635.611 425.533, 1637.533 429.241 L 1641.027 435.982 1638.928 442.241 C 1637.774 445.683, 1635.495 451.013, 1633.864 454.084 C 1626.030 468.835, 1619.372 472.444, 1596.222 474.485 C 1581.934 475.745, 1570.951 480.897, 1562.243 490.424 C 1546.273 507.898, 1543.090 532.389, 1551.143 575.817 C 1553.698 589.592, 1555.882 593, 1562.155 593 C 1566.423 593, 1569.763 591.634, 1571.718 589.087 C 1573.637 586.588, 1573.218 580.410, 1570.288 567.993 C 1567.907 557.904, 1567.571 554.423, 1567.542 539.500 C 1567.512 524.463, 1567.752 521.908, 1569.613 517.368 C 1574.897 504.485, 1582.064 500.112, 1603 496.995 C 1624.619 493.776, 1634.708 489.098, 1643.712 478.118 C 1654.156 465.382, 1662.978 438.059, 1662.994 418.399 C 1663.001 410.398, 1661.797 405.947, 1658.383 401.345 C 1654.925 396.683, 1650.690 394.474, 1638.480 390.966 C 1625.425 387.215, 1619.284 384.102, 1616.302 379.726 C 1615.094 377.952, 1612.687 372.450, 1610.955 367.500 C 1606.619 355.115, 1601.893 346.432, 1595.084 338.342 C 1587.627 329.484, 1580.476 324.031, 1569.687 318.975 C 1551.429 310.419, 1534.093 310.112, 1516.363 318.031 C 1494.023 328.009, 1478.353 347.078, 1468.678 376.060 C 1462.219 395.409, 1461.602 402.281, 1462.354 446.500 C 1463.266 500.154, 1461.771 520.364, 1455.872 534.075 C 1451.359 544.567, 1442.027 548.386, 1436.615 541.955 C 1431.093 535.391, 1430.114 524.554, 1429.577 464 C 1429.099 410.111, 1428.568 403.471, 1423.052 382.378 C 1419.964 370.567, 1414.171 357.698, 1408.494 350.032 C 1404.231 344.277, 1393.977 334.378, 1387.500 329.765 C 1375.499 321.218, 1357.871 314.132, 1338.288 309.983 C 1325.332 307.238, 1295.405 306.411, 1282.967 308.454 M 1650.993 318.887 C 1645.671 324.481, 1644.587 331.379, 1647.911 338.500 C 1648.938 340.700, 1652.290 345.425, 1655.360 349 C 1663.440 358.409, 1665.747 363.331, 1670.544 381.389 C 1672.904 390.273, 1680.698 417.108, 1687.865 441.021 C 1695.031 464.934, 1704.488 497.100, 1708.880 512.500 C 1720.022 551.564, 1726.630 573.375, 1728.832 578.352 C 1733.532 588.978, 1742.335 594.374, 1755 594.391 C 1763.855 594.403, 1769.510 592.244, 1776.014 586.368 C 1784.015 579.140, 1786.589 573.418, 1792.603 549.500 C 1794.538 541.800, 1798.995 524.925, 1802.506 512 C 1806.017 499.075, 1810.025 484.278, 1811.411 479.117 C 1812.798 473.956, 1814.162 469.504, 1814.443 469.224 C 1815.052 468.614, 1815.211 469.094, 1818.006 480 C 1820.395 489.318, 1830.270 523.824, 1838.182 550.500 C 1846.242 577.673, 1850.787 585.797, 1861.136 591.529 C 1866.028 594.239, 1867.335 594.500, 1876 594.500 C 1884.557 594.500, 1885.963 594.228, 1890.166 591.757 C 1892.732 590.248, 1896.441 587.134, 1898.408 584.836 C 1903.791 578.548, 1903.784 578.568, 1919.539 518 C 1929.985 477.841, 1945.268 416.909, 1952.022 388.500 C 1955.421 374.200, 1959.072 360.496, 1960.135 358.046 C 1961.198 355.596, 1963.886 351.184, 1966.107 348.242 C 1968.328 345.300, 1971.003 341.004, 1972.051 338.696 C 1975.775 330.493, 1973.746 321.708, 1967.102 317.270 L 1963.704 315 1897.302 315 C 1824.466 315, 1828.472 314.670, 1822.362 321.165 C 1817.519 326.312, 1816.418 329.275, 1811.033 351.652 C 1795.480 416.292, 1792.547 428.488, 1787.622 449 C 1773.579 507.499, 1771.458 515.984, 1770.882 515.992 C 1770.036 516.003, 1769.418 513.752, 1754.967 458 C 1750.048 439.025, 1743.299 413.150, 1739.969 400.500 C 1733.390 375.509, 1731.655 362.605, 1733.944 355.671 C 1734.613 353.644, 1737.081 349.401, 1739.429 346.243 C 1746.327 336.965, 1747.530 330.966, 1744.036 323.271 C 1742.928 320.829, 1740.718 318.189, 1738.808 317.024 C 1735.635 315.090, 1733.849 315.007, 1695.095 315.004 L 1654.690 315 1650.993 318.887 M 2098.170 315.704 C 2094.897 316.345, 2088.333 323.206, 2087.541 326.815 C 2086.131 333.231, 2088.540 337.909, 2097.936 347 C 2107.289 356.050, 2112.280 363.010, 2117.160 373.808 C 2121.463 383.332, 2141.474 432.128, 2150.045 454 C 2154.032 464.175, 2162.444 485.325, 2168.737 501 C 2196.779 570.839, 2198.786 575.409, 2204.055 581.410 C 2208.040 585.949, 2217.594 590.680, 2224.521 591.546 C 2228.188 592.004, 2230 592.688, 2230 593.613 C 2230 595.644, 2212.565 633.189, 2208.043 640.895 C 2202.881 649.692, 2197.790 655.453, 2192.373 658.627 C 2188.672 660.796, 2187.014 661.166, 2182.615 660.801 C 2174.585 660.135, 2171.912 657.654, 2166.066 645.445 C 2157.447 627.444, 2149.739 621.424, 2135.500 621.573 C 2126.003 621.673, 2119.472 624.609, 2113.003 631.687 C 2102.877 642.767, 2101.305 658.956, 2108.798 675 C 2112.343 682.593, 2120.912 690.902, 2129.349 694.928 C 2142.916 701.403, 2161.296 703.472, 2178.533 700.466 C 2201.552 696.452, 2218.902 684.309, 2234.921 661 C 2248.197 641.683, 2259.677 615.637, 2293.980 527 C 2300.685 509.675, 2309.481 487.175, 2313.527 477 C 2317.572 466.825, 2328.374 439.150, 2337.531 415.500 C 2346.687 391.850, 2355.820 369.350, 2357.826 365.500 C 2360.482 360.403, 2364.092 355.918, 2371.110 349 C 2376.411 343.775, 2381.254 338.517, 2381.874 337.316 C 2383.834 333.514, 2383.252 325.673, 2380.730 321.898 C 2376.187 315.098, 2375.577 315.003, 2336.218 315.002 C 2297.640 315, 2296.587 315.137, 2291.828 320.793 C 2288.588 324.643, 2287.591 329.766, 2289.036 335.134 C 2289.888 338.298, 2291.922 340.971, 2297.505 346.265 C 2306.947 355.217, 2309.343 360.329, 2309.334 371.500 C 2309.330 377.108, 2308.507 382.490, 2306.585 389.500 C 2302.341 404.971, 2302.640 404.143, 2261.751 513.900 L 2258.621 522.301 2257.328 519.400 C 2256.617 517.805, 2252.469 507.050, 2248.110 495.500 C 2243.751 483.950, 2233.218 456.725, 2224.703 435 C 2216.188 413.275, 2207.542 390.325, 2205.490 384 C 2199.021 364.068, 2200.258 355.224, 2210.737 346.464 C 2221.272 337.658, 2221.684 325.008, 2211.677 317.592 C 2208.900 315.534, 2207.983 315.498, 2154.677 315.374 C 2124.880 315.304, 2099.451 315.453, 2098.170 315.704 M 1876.117 351.078 C 1872.675 368.687, 1872.517 368.901, 1868.604 361.250 C 1866.301 356.747, 1858.581 348, 1856.910 348 C 1856.482 348, 1856.215 353.004, 1856.316 359.119 L 1856.500 370.238 1850 374.138 C 1838.260 381.182, 1834.814 386.148, 1831.015 401.500 C 1829.521 407.533, 1826.710 411.412, 1820.515 415.989 C 1816.662 418.836, 1815.049 420.659, 1815.362 421.816 C 1818.933 435.046, 1823.165 442.639, 1830.053 448.176 C 1832.789 450.374, 1835.667 451.391, 1842.553 452.591 C 1847.474 453.449, 1853.006 455.080, 1854.846 456.216 C 1862.253 460.788, 1866.779 471.261, 1865.716 481.367 C 1865.419 484.190, 1863.299 492.080, 1861.005 498.899 C 1855.200 516.154, 1856.260 520.922, 1865.614 519.639 C 1876.377 518.164, 1890.963 506.644, 1898.825 493.411 C 1903.997 484.706, 1907.364 476.458, 1910.777 464.138 C 1913.148 455.576, 1913.449 452.715, 1913.473 438.500 C 1913.505 419.526, 1912.864 416.871, 1903.458 397 C 1899.768 389.206, 1895.597 378.316, 1893.589 371.234 C 1889.858 358.080, 1885.508 348.231, 1881.095 342.944 L 1878.349 339.656 1876.117 351.078 M 313.831 363.954 C 293.176 367.747, 270.949 380.416, 250.717 399.926 C 229.142 420.733, 204.115 455.816, 188.245 487.500 C 183.507 496.959, 174.991 519.359, 172.036 530.135 C 166.399 550.689, 164.446 581.534, 167.608 600.074 C 173.226 633.018, 190.642 662.976, 212.881 677.955 C 239.275 695.731, 272.205 700.817, 309.966 692.949 C 319.339 690.996, 337.416 685.723, 347.964 681.866 C 360.283 677.361, 382 664.725, 382 662.062 C 382 660.276, 371.888 650.113, 355.032 634.959 C 316.399 600.226, 310.835 595.126, 293.757 578.802 C 283.998 569.474, 273.061 558.165, 269.452 553.671 C 263.351 546.073, 256.964 534.688, 255.475 528.755 C 254.839 526.221, 254.844 526.219, 262.755 525.860 C 269.494 525.553, 271.282 525.077, 274.782 522.651 C 287.385 513.917, 294.387 491.562, 291.889 468.036 C 290.460 454.581, 289.466 451.720, 288.576 458.500 C 286.869 471.506, 283.625 488.777, 282.003 493.491 C 279.676 500.255, 276.139 505.793, 271.600 509.778 C 267.295 513.558, 264.433 514.422, 258.447 513.747 C 248.710 512.649, 242.875 504.163, 242.191 490.103 C 241.694 479.891, 243.532 472.063, 249.252 460.021 C 252.590 452.992, 254.843 449.978, 262.421 442.399 C 270.214 434.607, 272.962 432.582, 281.032 428.689 C 296.237 421.352, 311.136 419.338, 327.304 422.431 C 340.679 424.990, 351.563 432.049, 358.983 442.976 C 365.746 452.934, 369.625 455.190, 391.641 461.970 C 407.142 466.744, 408.203 467.743, 408.819 478.129 C 409.482 489.306, 405.310 500.547, 397.335 509.072 C 391.731 515.065, 387.397 516.609, 370.703 518.564 C 350.381 520.945, 342.633 524.937, 337.314 535.770 C 334.810 540.869, 334.506 542.546, 334.555 551 C 334.600 558.891, 335.049 561.545, 337.203 566.672 C 340.651 574.876, 344.852 580.818, 353.949 590.353 C 362.606 599.428, 401.103 632.007, 403.142 631.985 C 403.889 631.977, 408.131 628.715, 412.569 624.735 C 417.007 620.756, 426.300 612.676, 433.220 606.779 C 446.195 595.724, 460.187 581.263, 465.157 573.772 C 467.171 570.736, 467.993 568.248, 467.996 565.173 C 468.001 559.716, 465.535 557.093, 454.323 550.626 C 444.653 545.048, 439.858 540.059, 435.769 531.319 C 431.847 522.938, 431.316 515.678, 433.476 499.969 C 434.880 489.761, 435.063 483.763, 434.484 466.893 C 433.712 444.393, 434.192 441.338, 438.311 442.546 C 442.132 443.666, 450.746 449.788, 460.087 458.023 C 465.064 462.410, 469.668 465.994, 470.318 465.987 C 470.968 465.980, 474.353 465.080, 477.839 463.987 C 486.671 461.219, 500.097 461.281, 509.730 464.137 L 516.960 466.279 523.564 460.390 C 533.939 451.137, 542.122 445.145, 546.888 443.311 C 551.222 441.644, 551.299 441.651, 553.138 443.922 C 555.383 446.694, 555.513 451.657, 553.862 471.500 C 552.854 483.613, 552.919 486.797, 554.348 495.124 C 556.217 506.015, 556.442 517.355, 554.921 524 C 552.504 534.556, 544.415 547.212, 531.204 561.106 C 522.107 570.673, 494.869 595.838, 473.837 614.107 C 440.587 642.987, 424 659.012, 424 662.253 C 424 663.728, 437.465 672.347, 446.327 676.545 C 458.689 682.401, 483.187 690.353, 499 693.642 C 509.411 695.808, 514.257 696.252, 528 696.301 C 537.075 696.333, 547.425 695.809, 551 695.136 C 571.652 691.251, 591.388 681.225, 605.064 667.672 C 619.147 653.715, 631.064 630.283, 636.686 605.500 C 638.138 599.097, 638.491 593.307, 638.453 576.500 C 638.410 557.523, 638.141 554.248, 635.658 542.500 C 630.067 516.052, 619.556 490.357, 603.340 463.500 C 576.655 419.304, 545.559 386.358, 517.500 372.553 C 503.889 365.857, 494.771 363.609, 481 363.555 C 467.920 363.503, 462.254 364.667, 450 369.923 C 432.498 377.429, 417.897 389.275, 408.433 403.645 C 405.407 408.240, 402.592 412, 402.178 412 C 401.765 412, 399.794 409.188, 397.800 405.750 C 387.757 388.438, 364.328 370.413, 345.500 365.513 C 338.313 363.642, 320.343 362.757, 313.831 363.954 M 331.420 450.145 C 328.856 451.389, 326 456.057, 326 459.004 C 326 462.141, 332.173 468, 335.477 468 C 339.546 468, 344 463.036, 344 458.500 C 344 455.795, 343.241 454.087, 341.077 451.923 C 338.065 448.911, 335.091 448.364, 331.420 450.145 M 1323.344 460.057 C 1315.039 461.669, 1311.059 464.525, 1301.276 475.892 L 1298.356 479.285 1293.588 473.216 C 1285.620 463.073, 1278.383 459.506, 1267.159 460.191 C 1263.496 460.414, 1258.844 461.398, 1256.821 462.379 C 1244.303 468.442, 1237.662 484.296, 1241.441 499.099 C 1243.899 508.731, 1248.248 515.125, 1261.980 529.296 C 1272.932 540.598, 1295.447 560.889, 1298.091 561.839 C 1299.426 562.319, 1317.379 546.670, 1331.139 533.034 C 1345.073 519.226, 1354.213 506.108, 1356.043 497.292 C 1357.372 490.891, 1356.723 482.666, 1354.461 477.253 C 1349.398 465.135, 1335.825 457.634, 1323.344 460.057" fill="#D97757" fill-rule="evenodd" clip-rule="evenodd"/>
<path d="M 288.500 110.098 C 285.750 110.651, 279.750 112.911, 275.167 115.120 C 268.521 118.324, 265.181 120.803, 258.667 127.367 C 243.811 142.338, 235.473 160.570, 230.936 188 C 229.291 197.947, 229.271 221.512, 230.898 231.500 C 234.245 252.039, 243.187 274.896, 253.783 290 C 260.347 299.356, 273.443 311.989, 281.528 316.766 C 296.182 325.423, 311.778 328.585, 325.147 325.611 C 336.354 323.117, 344.208 318.949, 352.219 311.243 C 364.444 299.484, 372.340 285.494, 377.873 265.791 C 385.327 239.242, 384.213 211.082, 374.540 181.553 C 367.555 160.229, 357.096 143.105, 342.591 129.247 C 329.084 116.341, 316.409 110.249, 301.500 109.496 C 297.100 109.274, 291.250 109.544, 288.500 110.098 M 497 110.098 C 480.054 113.406, 461.993 126.644, 448.360 145.748 C 437.919 160.381, 428.318 185.107, 424.414 207.417 C 422.305 219.473, 422.330 240.052, 424.467 251.539 C 429.275 277.376, 436.658 294.148, 449.063 307.408 C 456.767 315.644, 463.839 320.442, 473.059 323.691 C 479.134 325.832, 482.336 326.320, 490.500 326.352 C 499.167 326.386, 501.668 325.981, 509.261 323.311 C 520.182 319.471, 527.206 315.253, 535.916 307.303 C 557.180 287.896, 570.997 258.313, 575.057 223.500 C 577.976 198.470, 571.764 165.502, 560.267 145 C 553.738 133.357, 540.112 119.508, 530.912 115.163 C 519.209 109.637, 507.964 107.957, 497 110.098 M 140.500 248.411 C 125.668 252.092, 114.203 263.064, 106.004 281.422 C 102.359 289.585, 100.985 295.601, 100.064 307.432 C 98.633 325.814, 101.785 342.841, 109.851 360.300 C 115.377 372.260, 121.057 380.289, 130.509 389.500 C 143.435 402.097, 158.529 408.931, 173.540 408.983 C 190.736 409.042, 207.995 396.951, 217.053 378.500 C 222.001 368.420, 223.910 361.022, 224.666 349 C 226.151 325.369, 217.397 297.029, 202.483 277.189 C 195.070 267.327, 182.767 256.441, 174.662 252.571 C 163.413 247.200, 151.315 245.727, 140.500 248.411 M 642 248.452 C 629.852 251.573, 620.472 257.464, 610.248 268.394 C 598.987 280.432, 591.519 293.373, 586.161 310.137 C 582.138 322.721, 581.017 330.046, 581.008 343.803 C 580.998 358.030, 582.913 366.882, 588.536 378.605 C 599.066 400.558, 619.337 411.941, 641.003 408.069 C 650.298 406.408, 663.438 399.813, 671.921 392.551 C 687.149 379.517, 700.176 355.777, 704.090 333.930 C 705.741 324.713, 705.765 305.502, 704.135 297.500 C 701.993 286.981, 698.121 277.738, 692.216 269.044 C 685.523 259.189, 678.107 252.948, 669.449 249.882 C 661.882 247.202, 649.395 246.552, 642 248.452 M 313.831 363.954 C 293.176 367.747, 270.949 380.416, 250.717 399.926 C 229.142 420.733, 204.115 455.816, 188.245 487.500 C 183.507 496.959, 174.991 519.359, 172.036 530.135 C 166.399 550.689, 164.446 581.534, 167.608 600.074 C 173.226 633.018, 190.642 662.976, 212.881 677.955 C 239.275 695.731, 272.205 700.817, 309.966 692.949 C 319.339 690.996, 337.416 685.723, 347.964 681.866 C 360.283 677.361, 382 664.725, 382 662.062 C 382 660.276, 371.888 650.113, 355.032 634.959 C 316.399 600.226, 310.835 595.126, 293.757 578.802 C 283.998 569.474, 273.061 558.165, 269.452 553.671 C 263.351 546.073, 256.964 534.688, 255.475 528.755 C 254.839 526.221, 254.844 526.219, 262.755 525.860 C 269.494 525.553, 271.282 525.077, 274.782 522.651 C 287.385 513.917, 294.387 491.562, 291.889 468.036 C 290.460 454.581, 289.466 451.720, 288.576 458.500 C 286.869 471.506, 283.625 488.777, 282.003 493.491 C 279.676 500.255, 276.139 505.793, 271.600 509.778 C 267.295 513.558, 264.433 514.422, 258.447 513.747 C 248.710 512.649, 242.875 504.163, 242.191 490.103 C 241.694 479.891, 243.532 472.063, 249.252 460.021 C 252.590 452.992, 254.843 449.978, 262.421 442.399 C 270.214 434.607, 272.962 432.582, 281.032 428.689 C 296.237 421.352, 311.136 419.338, 327.304 422.431 C 340.679 424.990, 351.563 432.049, 358.983 442.976 C 365.746 452.934, 369.625 455.190, 391.641 461.970 C 407.142 466.744, 408.203 467.743, 408.819 478.129 C 409.482 489.306, 405.310 500.547, 397.335 509.072 C 391.731 515.065, 387.397 516.609, 370.703 518.564 C 350.381 520.945, 342.633 524.937, 337.314 535.770 C 334.810 540.869, 334.506 542.546, 334.555 551 C 334.600 558.891, 335.049 561.545, 337.203 566.672 C 340.651 574.876, 344.852 580.818, 353.949 590.353 C 362.606 599.428, 401.103 632.007, 403.142 631.985 C 403.889 631.977, 408.131 628.715, 412.569 624.735 C 417.007 620.756, 426.300 612.676, 433.220 606.779 C 446.195 595.724, 460.187 581.263, 465.157 573.772 C 467.171 570.736, 467.993 568.248, 467.996 565.173 C 468.001 559.716, 465.535 557.093, 454.323 550.626 C 444.653 545.048, 439.858 540.059, 435.769 531.319 C 431.847 522.938, 431.316 515.678, 433.476 499.969 C 434.880 489.761, 435.063 483.763, 434.484 466.893 C 433.712 444.393, 434.192 441.338, 438.311 442.546 C 442.132 443.666, 450.746 449.788, 460.087 458.023 C 465.064 462.410, 469.668 465.994, 470.318 465.987 C 470.968 465.980, 474.353 465.080, 477.839 463.987 C 486.671 461.219, 500.097 461.281, 509.730 464.137 L 516.960 466.279 523.564 460.390 C 533.939 451.137, 542.122 445.145, 546.888 443.311 C 551.222 441.644, 551.299 441.651, 553.138 443.922 C 555.383 446.694, 555.513 451.657, 553.862 471.500 C 552.854 483.613, 552.919 486.797, 554.348 495.124 C 556.217 506.015, 556.442 517.355, 554.921 524 C 552.504 534.556, 544.415 547.212, 531.204 561.106 C 522.107 570.673, 494.869 595.838, 473.837 614.107 C 440.587 642.987, 424 659.012, 424 662.253 C 424 663.728, 437.465 672.347, 446.327 676.545 C 458.689 682.401, 483.187 690.353, 499 693.642 C 509.411 695.808, 514.257 696.252, 528 696.301 C 537.075 696.333, 547.425 695.809, 551 695.136 C 571.652 691.251, 591.388 681.225, 605.064 667.672 C 619.147 653.715, 631.064 630.283, 636.686 605.500 C 638.138 599.097, 638.491 593.307, 638.453 576.500 C 638.410 557.523, 638.141 554.248, 635.658 542.500 C 630.067 516.052, 619.556 490.357, 603.340 463.500 C 576.655 419.304, 545.559 386.358, 517.500 372.553 C 503.889 365.857, 494.771 363.609, 481 363.555 C 467.920 363.503, 462.254 364.667, 450 369.923 C 432.498 377.429, 417.897 389.275, 408.433 403.645 C 405.407 408.240, 402.592 412, 402.178 412 C 401.765 412, 399.794 409.188, 397.800 405.750 C 387.757 388.438, 364.328 370.413, 345.500 365.513 C 338.313 363.642, 320.343 362.757, 313.831 363.954 M 331.420 450.145 C 328.856 451.389, 326 456.057, 326 459.004 C 326 462.141, 332.173 468, 335.477 468 C 339.546 468, 344 463.036, 344 458.500 C 344 455.795, 343.241 454.087, 341.077 451.923 C 338.065 448.911, 335.091 448.364, 331.420 450.145" fill="#FFFFFF" fill-rule="evenodd" clip-rule="evenodd"/>
</svg>
