<?xml version="1.0" encoding="UTF-8"?>
<svg xmlns="http://www.w3.org/2000/svg" width="1024" height="1024" viewBox="0 0 1024 1024">
<rect x="29" y="21" width="970" height="979" rx="177" ry="177" fill="#FAF9F6"/>
<path d="M 369.392 144.829 C 353.087 148.991, 336.981 159.756, 325.963 173.857 C 314.992 187.899, 305.139 210.630, 300.328 233 C 298.850 239.871, 298.500 246.003, 298.500 265 C 298.500 285.630, 298.778 289.817, 300.777 299.281 C 308.930 337.881, 324.739 368.550, 347.386 389.700 C 359.770 401.265, 369.236 406.621, 386 411.546 C 395.711 414.400, 413.032 414.205, 423 411.130 C 434.331 407.634, 443.005 402.616, 451.742 394.498 C 477.083 370.956, 490.437 331.714, 488.663 286 C 487.488 255.700, 481.554 232.401, 467.999 204.862 C 462.047 192.769, 457.848 186.430, 449.063 176.281 C 436.320 161.559, 422.699 152.257, 405.283 146.383 C 394.836 142.860, 379.677 142.203, 369.392 144.829 M 627.500 145.031 C 616.196 147.884, 600.907 155.643, 592.383 162.853 C 569.131 182.521, 551.049 215.262, 543.151 252 C 535.099 289.451, 539.300 332.772, 553.979 363.687 C 559.841 376.030, 563.268 381.126, 571.760 390.129 C 586.926 406.206, 607.974 415.147, 627.169 413.666 C 660.036 411.132, 686.893 390.828, 708.736 352 C 715.695 339.630, 722.941 318.586, 727.115 298.623 C 728.699 291.046, 729.356 283.471, 729.727 268.500 C 730.157 251.157, 729.940 246.839, 728.092 236 C 725.585 221.297, 718.584 199.793, 712.680 188.664 C 701.884 168.312, 684.652 153.143, 664.833 146.546 C 653.400 142.740, 638.908 142.152, 627.500 145.031 M 183.467 316.771 C 168.730 321.777, 159.951 329.318, 150.644 344.965 C 140.214 362.498, 136.411 379.577, 137.385 404.500 C 138.231 426.127, 141.482 440.031, 150.061 458.707 C 157.884 475.736, 173.751 494.724, 187.552 503.570 C 202.476 513.136, 224.834 518.023, 240.181 515.073 C 253.980 512.420, 267.797 503.046, 275.989 490.779 C 285.570 476.432, 290.280 462.693, 291.989 444.116 C 294.286 419.149, 289.052 392.936, 276.913 368.610 C 263.895 342.523, 239.404 320.842, 216.985 315.558 C 213.418 314.717, 206.225 314.032, 201 314.036 C 193.295 314.041, 189.982 314.558, 183.467 316.771 M 810 315.567 C 806.975 316.356, 800.309 319.061, 795.186 321.577 C 787.408 325.396, 784.140 327.819, 775.378 336.258 C 759.701 351.358, 750.517 366.265, 742.963 388.879 C 740.827 395.270, 738.300 404.775, 737.347 410 C 734.967 423.037, 734.969 445.644, 737.350 457 C 739.314 466.368, 744.909 481.279, 748.794 487.500 C 756.210 499.376, 767.116 508.436, 779.284 512.829 C 785.624 515.118, 788.018 515.432, 799 515.416 C 810.712 515.399, 812.143 515.175, 821.705 511.849 C 834.889 507.262, 841.369 503.316, 851.742 493.553 C 865.137 480.947, 874.389 467.386, 881.057 450.585 C 892.731 421.174, 893.681 383.041, 883.381 357.295 C 879.338 347.189, 873.220 337.308, 866.669 330.305 C 862.072 325.391, 858.797 323.003, 852.589 320.041 C 848.140 317.918, 842.115 315.690, 839.201 315.090 C 831.898 313.588, 816.628 313.837, 810 315.567 M 408.278 459.108 C 387.008 461.063, 364.166 470.966, 340.420 488.527 C 329.355 496.710, 308.103 518.166, 296.369 533 C 271.024 565.042, 251.350 597.674, 239.997 626.500 C 226.392 661.045, 220.899 685.505, 219.355 718.422 C 218.029 746.695, 224.407 778.980, 235.773 801.528 C 256.150 841.951, 288.021 865.562, 332.494 873.183 C 342.625 874.919, 347.155 875.154, 361.500 874.691 C 372.081 874.350, 382.654 873.371, 389.500 872.100 C 402.101 869.760, 430.902 861.598, 443.175 856.888 C 462.320 849.542, 482.187 838.871, 487.358 833.157 C 488.985 831.359, 489.011 830.927, 487.644 828.341 C 485.628 824.524, 471.002 810.283, 457.500 798.988 C 451.450 793.927, 441.325 785.175, 435 779.540 C 428.675 773.904, 415.400 762.087, 405.500 753.278 C 382.082 732.443, 358.186 708.700, 349.787 697.922 C 338.953 684.019, 330.239 665.827, 332.885 662.638 C 333.501 661.896, 336.890 661.019, 340.416 660.690 C 352.698 659.543, 361.602 652.996, 368.354 640.145 C 374.051 629.305, 376 620.134, 376 604.172 C 376 590.973, 374.605 578.395, 372.942 576.605 C 371.973 575.562, 371.740 576.495, 368.988 592.500 C 363.371 625.163, 358.439 635.475, 345.500 641.610 C 334.618 646.769, 324.079 643.013, 318.538 632 C 312.942 620.878, 312.749 608.053, 317.932 591.869 C 324.068 572.717, 337.829 554.605, 354.420 543.849 C 370.639 533.334, 386.620 529.274, 407.927 530.255 C 431.103 531.323, 446.361 539.608, 460.034 558.548 C 469.159 571.187, 473.356 573.647, 495.757 579.485 C 503.315 581.455, 511.195 583.799, 513.267 584.693 C 518.578 586.986, 521.003 591.360, 520.987 598.618 C 520.967 607.336, 517.570 622.352, 514.389 627.780 C 508.886 637.170, 498.365 646.549, 490.040 649.486 C 487.850 650.258, 480.533 651.384, 473.779 651.987 C 459.573 653.255, 451.957 654.965, 445.265 658.389 C 428.025 667.210, 422.336 689.602, 431.561 712.336 C 435.167 721.221, 444.463 734.453, 453.434 743.468 C 462.630 752.710, 482.769 770.124, 500.785 784.412 L 513.069 794.154 529.785 780.748 C 538.978 773.375, 551.385 762.878, 557.356 757.421 C 563.327 751.964, 569.099 746.859, 570.185 746.076 C 574.770 742.766, 589.142 725.403, 591.953 719.778 C 594.994 713.692, 596.075 705.241, 594.192 702.276 C 593.764 701.603, 589.834 699.298, 585.457 697.153 C 566.618 687.921, 557.111 677.042, 552.536 659.477 C 550.449 651.466, 550.605 643.096, 553.110 628.661 C 555.272 616.207, 555.320 608.269, 553.450 573.500 C 552.841 562.190, 553.892 558.695, 558.049 558.205 C 561.458 557.804, 570.376 563.760, 581.500 573.869 C 586.450 578.367, 592.164 583.206, 594.197 584.623 L 597.894 587.198 604.197 585.193 C 620.101 580.132, 628.438 579.776, 643.814 583.501 C 649.486 584.876, 655.069 586, 656.219 586 C 658.738 586, 663.016 582.835, 673 573.587 C 680.649 566.501, 694.170 557, 696.605 557 C 697.347 557, 698.668 558.090, 699.541 559.423 C 700.834 561.396, 701.115 564.834, 701.055 577.938 C 701.015 586.789, 700.542 598.271, 700.005 603.454 C 699.134 611.847, 699.300 614.323, 701.514 626.073 C 702.881 633.330, 703.997 641.345, 703.993 643.884 C 703.982 651.086, 700.304 664.715, 696 673.500 C 690.806 684.103, 684.012 692.917, 669.504 707.876 C 655.171 722.654, 597.890 774.609, 568.713 799.295 C 557.120 809.104, 543.513 822.512, 540.891 826.710 C 538.376 830.737, 539.202 832.534, 545.733 837.241 C 563.526 850.066, 607.919 866.634, 640.500 872.610 C 654.667 875.208, 686.991 875.250, 699 872.684 C 718.941 868.424, 738.557 860.009, 751.794 850.034 C 767.376 838.293, 781.537 820.796, 791.478 801 C 806.716 770.657, 811.284 733.012, 804.971 689.800 C 800.755 660.943, 790.424 630.235, 774.423 599 C 762.904 576.515, 735.784 537.897, 716.836 517 C 688.947 486.242, 658.897 466.540, 631.119 460.799 C 617.167 457.915, 596.211 458.638, 583.505 462.441 C 553.520 471.416, 530.481 489.796, 514.399 517.573 C 513.384 519.326, 513.157 519.202, 511.504 515.988 C 502.087 497.671, 481.712 478.652, 460.717 468.581 C 451.242 464.037, 437.492 460.123, 428.621 459.447 C 424.704 459.149, 420.375 458.780, 419 458.628 C 417.625 458.476, 412.800 458.692, 408.278 459.108 M 422.763 567.565 C 417.515 570.413, 415.599 577.391, 418.517 583.033 C 423.098 591.892, 437.077 590.191, 439.876 580.433 C 442.566 571.054, 431.571 562.786, 422.763 567.565" fill="#D97757" fill-rule="evenodd" clip-rule="evenodd"/>
</svg>
