<svg preserveAspectRatio="none" width="100%" height="100%" overflow="visible" style="display: block;" viewBox="0 0 113.147 39.1371" fill="none" xmlns="http://www.w3.org/2000/svg">
<path id="Vector" fill-rule="evenodd" clip-rule="evenodd" d="M87.9936 0.0344993C87.8804 0.0625352 87.3773 0.293087 86.8754 0.546746C86.3736 0.800456 85.5287 1.19496 84.9977 1.42351C83.0403 2.26603 82.7126 2.4593 82.4324 2.93648C82.2535 3.24123 82.2144 3.67445 82.3336 4.03255C82.4059 4.24985 82.5166 4.39399 82.9246 4.8021C83.5039 5.38151 83.693 5.71214 83.8375 6.39815C83.9241 6.80872 83.9295 7.42808 83.9295 16.8474C83.9295 26.0368 83.9224 26.8905 83.8433 27.2278C83.6887 27.8865 83.5469 28.1099 82.9027 28.7102C82.1993 29.3657 82.0751 29.587 82.1173 30.1104C82.1492 30.5072 82.3147 30.7434 82.6994 30.941L82.9521 31.0708H86.8361C89.9504 31.0708 90.7658 31.057 90.9508 31.0014C91.2556 30.9097 91.5909 30.575 91.6694 30.2841C91.8144 29.7466 91.5929 29.3008 90.8711 28.677C90.1535 28.057 90.0126 27.7778 89.8631 26.6806C89.8201 26.3654 89.7951 22.7123 89.7732 13.5355C89.7452 1.85925 89.7358 0.814371 89.6579 0.672856C89.4288 0.257092 89.0576 0.0345506 88.5421 0.00389594C88.3536 -0.0072979 88.1068 0.00646331 87.9936 0.0344993ZM0.950289 2.03024C0.689262 2.09365 0.480091 2.22669 0.286455 2.45247C0.0680753 2.70716 -0.00116835 2.92241 1.48627e-05 3.34295C0.00130096 3.82336 0.125898 4.03373 0.790607 4.67799C1.80287 5.6591 1.87273 5.94741 1.95422 9.47902C2.01534 12.1266 2.0157 24.4858 1.95473 25.6811C1.87314 27.2794 1.70106 27.8085 1.06738 28.4088C0.105115 29.3204 0.0281547 29.4376 0.0258398 29.9962C0.023782 30.4764 0.17086 30.714 0.600418 30.9246L0.898845 31.0708H5.04009H9.18134L9.45178 30.9488C9.94132 30.728 10.1769 30.318 10.1068 29.809C10.0547 29.4308 9.80463 29.0721 9.28685 28.633C8.5476 28.006 8.40489 27.7496 8.24331 26.7576C8.17324 26.3277 8.15904 25.7589 8.15606 23.2659C8.15354 21.1801 8.16892 20.2907 8.2074 20.2975C8.6082 20.3684 10.1471 20.5784 10.6218 20.6269C11.4113 20.7076 13.2266 20.7077 13.9914 20.627C17.256 20.2825 19.6719 19.3191 21.384 17.6789C22.3807 16.724 23.1349 15.4289 23.5091 14.0294C24.1233 11.7322 23.9102 9.09956 22.9426 7.02952C22.3433 5.74726 21.1407 4.52359 19.6571 3.68641C18.0357 2.77144 16.1741 2.2137 14.1457 2.03517C13.4662 1.97535 1.19501 1.97078 0.950289 2.03024ZM10.1588 4.31753C9.44437 4.44996 8.86398 4.74885 8.62687 5.10644C8.28997 5.61458 8.1913 6.29057 8.1274 8.52908C8.06598 10.6827 8.06588 12.976 8.1272 14.7679C8.18975 16.5968 8.27577 16.9616 8.75265 17.4221C9.34647 17.9954 10.6905 18.356 12.0108 18.2964C13.4434 18.2317 14.6178 17.7674 15.4809 16.9245C16.5557 15.8747 17.0847 14.496 17.2359 12.3508C17.3957 10.0829 16.9268 7.99804 15.9214 6.50649C14.9387 5.04852 13.2098 4.23193 11.1362 4.24646C10.7967 4.24888 10.3568 4.28082 10.1588 4.31753ZM33.0256 10.0949C31.469 10.2149 29.5372 10.7516 28.2992 11.4079C27.3436 11.9146 26.578 12.5256 26.0913 13.1703C25.5249 13.9205 25.3297 14.4792 25.3725 15.2276C25.4323 16.2743 26.0863 16.9573 27.2267 17.1639C27.7547 17.2597 28.4475 17.2253 28.9183 17.0802C29.6507 16.8544 30.0314 16.4518 30.6386 15.261C31.3574 13.8515 31.7457 13.3011 32.263 12.9583C33.2557 12.3006 34.7336 12.3962 35.6121 13.1748C36.385 13.8599 36.9678 15.2005 37.3208 17.1059C37.4564 17.8376 37.6132 19.0892 37.5742 19.1282C37.5623 19.14 37.2459 19.0533 36.871 18.9355C35.4064 18.4753 34.3823 18.3382 32.6936 18.3766C30.7809 18.42 29.622 18.6821 28.1127 19.4125C26.5289 20.179 25.5158 21.14 24.8076 22.5475C24.3678 23.4214 24.1726 24.3281 24.1726 25.4972C24.1726 27.1709 24.6427 28.3908 25.7269 29.53C26.6147 30.4629 28.0526 31.1366 29.6775 31.3811C30.3117 31.4766 31.6655 31.4755 32.3453 31.379C33.6964 31.1873 35.0212 30.6889 35.9829 30.0105C36.5073 29.6406 37.2539 28.9179 37.4789 28.5625C37.5619 28.4313 37.6548 28.3238 37.6853 28.3238C37.7159 28.3237 37.768 28.4412 37.8012 28.5847C38.1247 29.9836 39.0833 30.9295 40.5622 31.3094C40.9523 31.4095 41.1508 31.4279 41.8226 31.4257C42.7798 31.4226 43.173 31.3342 43.9575 30.9459C44.8608 30.4987 45.3593 29.9919 45.8786 28.9932C46.3191 28.1461 46.5426 27.3575 46.7598 25.8847C46.8911 24.9945 46.949 23.2348 46.8731 22.4455C46.8433 22.1355 46.8249 21.8758 46.8323 21.8685C46.8396 21.8612 47.1102 21.9886 47.4336 22.1518C48.2855 22.5815 48.781 22.6647 49.4546 22.4914C50.2303 22.2918 50.7844 21.8283 51.1613 21.064C51.5506 20.2747 51.6163 19.9423 51.6195 18.7473C51.6216 17.9699 51.5996 17.5956 51.5291 17.2069C51.4169 16.588 51.2032 15.7728 51.1021 15.5775C51.0108 15.4013 50.862 15.3941 50.6979 15.5578C50.4735 15.7818 50.4472 16.0211 50.5179 17.1983C50.6348 19.1451 50.4428 20.0574 49.7936 20.6399C49.3427 21.0446 48.8099 21.128 48.2386 20.8832C47.6994 20.6522 47.3352 20.2192 47.0851 19.5119C46.9462 19.1191 46.9418 19.0746 46.942 18.0541C46.9421 17.0731 46.9518 16.9632 47.085 16.4378C47.4945 14.8221 48.0967 13.757 49.0144 13.0252C49.6585 12.5115 50.3936 12.2532 51.2111 12.2534C52.0846 12.2537 52.8029 12.4988 53.4489 13.0172C54.1328 13.566 54.4114 14.0049 54.8358 15.2025C55.1858 16.1901 55.3123 16.4251 55.7268 16.8573C56.0825 17.2281 56.5617 17.4947 57.3207 17.744C57.6032 17.8368 57.8426 17.9463 57.868 17.9943C57.8928 18.0413 57.9509 18.2281 57.9972 18.4093C58.0434 18.5905 58.1732 18.9053 58.2858 19.1088C58.3984 19.3123 58.4897 19.5453 58.4888 19.6265C58.4863 19.8374 58.1878 20.593 57.9275 21.047C57.4042 21.9599 56.8921 22.2423 55.5353 22.366C54.7067 22.4415 54.2752 22.5437 53.7711 22.7839C52.8288 23.2329 52.0821 24.2138 51.7431 25.4483C51.6349 25.8421 51.6235 25.9873 51.6268 26.9373C51.6307 28.0785 51.7059 28.7864 51.953 30.0071C52.0323 30.3987 52.1364 30.7788 52.1844 30.852C52.2921 31.0159 52.5597 31.1478 52.7845 31.1478C53.0212 31.1478 53.3575 30.9726 53.4629 30.7944C53.5903 30.5791 53.5746 30.3353 53.3744 29.4185C53.1483 28.3832 53.0888 27.8957 53.0888 27.0777C53.0888 25.6616 53.4585 24.8324 54.2733 24.4209C54.6531 24.2292 54.8318 24.1855 55.8466 24.0361C56.8283 23.8916 57.1449 23.8104 57.5875 23.5897C58.6266 23.0713 59.2758 22.1702 59.7612 20.5725C60.2217 19.0567 60.2912 17.8881 59.9594 17.24C59.7124 16.7578 59.3149 16.5086 58.3944 16.2588C57.3673 15.9801 56.9532 15.7775 56.7182 15.4391C56.6387 15.3245 56.4631 14.9245 56.3279 14.55C55.9902 13.614 55.9063 13.4319 55.5886 12.9456C55.263 12.4468 54.5279 11.6846 54.092 11.3936C53.0466 10.6957 51.8205 10.3667 50.767 10.5012C49.2322 10.6972 47.7606 11.654 46.8507 13.0475C46.0305 14.3038 45.5049 15.9082 45.3685 17.5723C45.3241 18.1144 45.3255 18.7771 45.3745 20.3391C45.4744 23.5213 45.3909 25.2489 45.0863 26.3024C44.9257 26.8579 44.7292 27.2181 44.4746 27.4238C44.3098 27.557 44.2395 27.5791 43.9826 27.5791C43.738 27.5791 43.659 27.5568 43.553 27.4574C43.0921 27.0252 43.0135 26.2272 42.9827 21.6741C42.9599 18.2886 42.932 17.7039 42.745 16.6934C42.3849 14.7473 41.8147 13.5143 40.8241 12.5391C39.7301 11.4623 38.2277 10.7046 36.4462 10.3314C35.4617 10.1251 33.9707 10.0221 33.0256 10.0949ZM72.6458 10.6695C72.2391 10.7389 71.8548 11.0396 71.5845 11.5001C71.4446 11.7382 71.2074 12.6143 70.7561 14.5587C70.6289 15.1073 70.423 15.9738 70.2989 16.4842C70.1746 16.9947 69.9768 17.8166 69.8591 18.3109C69.7415 18.8051 69.4376 20.0644 69.1838 21.1093C68.9301 22.1542 68.5945 23.5406 68.438 24.1902C68.0924 25.6255 68.1158 25.5474 68.0612 25.4482C68.0198 25.3732 67.5253 23.5161 66.981 21.3917C66.8327 20.8128 66.5413 19.7037 66.3336 18.927C65.4747 15.717 65.2811 14.8715 65.2811 14.3312C65.2811 13.8424 65.4372 13.4217 65.7958 12.945C66.1566 12.4653 66.2849 12.1113 66.2434 11.7102C66.2125 11.411 66.0719 11.1015 65.8899 10.9321C65.5967 10.6591 65.6076 10.66 62.5595 10.66C60.6867 10.66 59.6829 10.6785 59.587 10.7147C59.2546 10.84 58.9697 11.2524 58.9187 11.6819C58.8729 12.0683 59.0098 12.4449 59.3442 12.8526C60.2455 13.9513 60.3263 14.1026 60.6291 15.2557C60.9234 16.3765 61.1611 17.2132 61.475 18.2338C61.6401 18.7704 61.9182 19.6947 62.0931 20.2877C62.268 20.8808 62.546 21.8166 62.7109 22.3673C62.8758 22.918 63.2086 24.0663 63.4505 24.9191C64.3065 27.9363 64.8247 29.6377 65.0029 30.016C65.2339 30.5064 65.4622 30.7821 65.7806 30.9551C66.7383 31.4753 67.9249 31.2752 68.6491 30.4712C69.1337 29.9332 69.2821 29.5579 69.7523 27.6818C69.8938 27.117 70.128 26.2274 70.2725 25.705C70.417 25.1825 70.698 24.1427 70.8968 23.3943C71.0956 22.6459 71.2769 22.014 71.2996 21.9901C71.3222 21.9662 71.3672 22.0702 71.3995 22.2212C71.4605 22.5062 72.9793 27.8194 73.2491 28.6918C73.4444 29.3229 73.6787 29.8851 73.8758 30.1952C74.0778 30.5132 74.4781 30.8929 74.759 31.0329C75.8049 31.5542 76.9721 31.2695 77.6106 30.337C77.9508 29.8402 77.8983 30.0271 79.9831 21.8795C80.3806 20.3263 80.8714 18.3622 81.0739 17.515C82.0252 13.5351 81.9214 13.8413 82.6668 12.8166C82.9441 12.4356 83.0458 12.1178 83.02 11.7134C82.9927 11.2857 82.7897 10.9454 82.4629 10.7793L82.2319 10.6619L77.5419 10.6481C74.9624 10.6406 72.7592 10.6502 72.6458 10.6695ZM92.2892 10.7081C91.894 10.7877 91.6155 11.0297 91.442 11.4442C91.3423 11.6822 91.343 11.8059 91.4458 12.1515C91.5199 12.4005 91.6012 12.5011 92.2315 13.1235C93.2911 14.17 93.2798 14.1475 95.4988 19.6716C95.8732 20.6035 96.2918 21.6549 96.4291 22.0079C96.6854 22.6667 97.5363 24.7894 98.2198 26.4752C99.4667 29.5501 99.6064 29.8549 99.9366 30.2215C100.348 30.6779 100.899 30.9443 101.595 31.0229C101.768 31.0424 101.909 31.0795 101.909 31.1053C101.909 31.1791 101.168 32.8281 100.726 33.7374C99.8905 35.458 99.255 36.1286 98.4605 36.1286C97.9125 36.1286 97.5252 35.7991 97.2072 35.0623C96.6332 33.7327 95.9859 33.2017 94.9386 33.2017C94.2772 33.2017 93.7587 33.4317 93.2791 33.9379C92.9978 34.2348 92.8927 34.4114 92.7484 34.83C92.3268 36.0533 92.915 37.6563 94.0566 38.3951C94.8937 38.9368 96.3068 39.2296 97.5114 39.1109C99.2224 38.9423 100.503 38.2686 101.603 36.9586C102.881 35.4357 103.446 34.2492 106.115 27.4765C106.315 26.9681 106.665 26.067 106.893 25.4739C107.12 24.8808 107.517 23.8641 107.774 23.2146C108.032 22.565 108.381 21.6754 108.551 21.2377C108.72 20.7999 109.035 19.9912 109.25 19.4405C109.465 18.8898 109.917 17.7229 110.254 16.8474C110.954 15.0265 111.362 14.155 111.719 13.7168C111.856 13.5483 112.176 13.232 112.43 13.0141C113.01 12.5174 113.151 12.2744 113.147 11.7824C113.144 11.4934 113.12 11.3992 112.99 11.1905C112.893 11.0333 112.753 10.8954 112.607 10.8141L112.378 10.6857H109.677H106.976L106.747 10.8141C106.401 11.0077 106.214 11.3075 106.189 11.7086C106.156 12.2261 106.226 12.3623 106.845 12.9707C107.601 13.7144 107.76 14.0881 107.709 14.9963C107.655 15.9563 107.298 17.0602 105.526 21.7512C105.295 22.3623 104.248 25.1945 104.059 25.7178C104.031 25.7954 103.99 25.859 103.968 25.859C103.946 25.859 103.806 25.5297 103.658 25.1273C103.383 24.3834 102.584 22.2999 102.126 21.135C100.272 16.4179 99.9041 15.4066 99.7992 14.7422C99.6825 14.0029 99.8457 13.5548 100.44 12.9836C100.928 12.5138 101.052 12.2841 101.055 11.841C101.059 11.259 100.721 10.8361 100.155 10.7151C99.8652 10.653 92.5945 10.6466 92.2892 10.7081ZM75.9814 12.5471C75.9811 12.7251 75.6025 14.3882 75.5558 14.4171C75.5163 14.4414 75.4324 14.3357 75.3149 14.1135C75.137 13.777 74.6695 13.2209 74.4794 13.1193C74.385 13.0689 74.3822 13.0954 74.3971 13.8995L74.4124 14.732L73.9512 14.9984C73.4152 15.3081 72.9999 15.6917 72.8254 16.0381C72.7578 16.1726 72.6534 16.4966 72.5936 16.7581C72.4236 17.5009 72.3946 17.5424 71.5242 18.2864L71.3426 18.4416L71.4276 18.7742C71.5493 19.2504 71.8716 19.8837 72.1558 20.2048C72.4342 20.5194 72.9088 20.7755 73.2138 20.7755C73.3185 20.7756 73.5268 20.8015 73.6768 20.8333C74.4506 20.9972 74.9214 21.5143 75.0601 22.3529C75.1362 22.813 75.0451 23.3033 74.7179 24.1942C74.5243 24.7212 74.4731 24.9279 74.469 25.1989C74.4649 25.4726 74.4841 25.5626 74.5667 25.654C74.7288 25.8334 75.142 25.7731 75.7376 25.4834C77.2474 24.7489 78.3258 22.8261 78.6085 20.3648C78.7561 19.0797 78.5279 18.0452 77.7609 16.5224C77.4681 15.941 77.3175 15.5323 77.0869 14.6921C76.9901 14.3399 76.8422 13.8904 76.7581 13.6931C76.5155 13.1241 75.9817 12.3365 75.9814 12.5471ZM30.7107 21.3563C30.1428 21.4858 29.5757 21.9217 29.3173 22.4273C29.1651 22.725 29.0645 23.1746 29.0645 23.5566C29.0645 24.5635 29.5046 25.332 30.8391 26.6549C31.4732 27.2834 33.0535 28.6828 33.2648 28.8028C33.3646 28.8594 33.4443 28.8029 34.2187 28.1266C36.0187 26.5546 36.9565 25.5004 37.4157 24.5331C37.5724 24.2029 37.5784 24.1655 37.5784 23.5227C37.5784 22.9093 37.5675 22.8322 37.4441 22.5727C37.0711 21.7888 36.3351 21.2917 35.5444 21.2896C35.2357 21.2888 34.7485 21.4186 34.4876 21.5712C34.2574 21.7059 33.8466 22.1114 33.5813 22.466C33.4879 22.5909 33.3847 22.7018 33.3521 22.7125C33.3194 22.7233 33.1597 22.5557 32.9971 22.3402C32.6652 21.9 32.282 21.5855 31.9016 21.4413C31.5619 21.3124 31.0602 21.2767 30.7107 21.3563Z" fill="#D97757"/>
</svg>
