<svg width="32" height="32" viewBox="0 0 32 32" fill="none" xmlns="http://www.w3.org/2000/svg">
<rect width="32" height="32" fill="#E8E8E8"/>
<g id="Pet Selector">
<path d="M-304 -184C-304 -185.105 -303.105 -186 -302 -186H254C255.105 -186 256 -185.105 256 -184V826C256 827.105 255.105 828 254 828H-302C-303.105 828 -304 827.105 -304 826V-184Z" fill="white"/>
<path d="M-302 -186V-185H254V-186V-187H-302V-186ZM256 -184H255V826H256H257V-184H256ZM254 828V827H-302V828V829H254V828ZM-304 826H-303V-184H-304H-305V826H-304ZM-302 828V827C-302.552 827 -303 826.552 -303 826H-304H-305C-305 827.657 -303.657 829 -302 829V828ZM256 826H255C255 826.552 254.552 827 254 827V828V829C255.657 829 257 827.657 257 826H256ZM254 -186V-185C254.552 -185 255 -184.552 255 -184H256H257C257 -185.657 255.657 -187 254 -187V-186ZM-302 -186V-187C-303.657 -187 -305 -185.657 -305 -184H-304H-303C-303 -184.552 -302.552 -185 -302 -185V-186Z" fill="black" fill-opacity="0.1"/>
<g id="Pet Profile Selector">
<rect x="-203.5" y="-35.5" width="271" height="125" rx="4.5" stroke="#8A38F5" stroke-dasharray="10 5"/>
<g id="State=add" opacity="0.6">
<g id="Frame 8">
<mask id="path-4-inside-1_154_5806" fill="white">
<path d="M-16 16C-16 -1.67311 -1.67311 -16 16 -16C33.6731 -16 48 -1.67311 48 16C48 33.6731 33.6731 48 16 48C-1.67311 48 -16 33.6731 -16 16Z"/>
</mask>
<path d="M16 48V47C14.9737 47 13.9593 46.9502 12.9591 46.8528L12.8622 47.8481L12.7654 48.8434C13.8299 48.947 14.9089 49 16 49V48ZM6.70774 46.63L6.9977 45.6729C5.03771 45.0791 3.15968 44.2963 1.38478 43.3456L0.912622 44.2272L0.440468 45.1087C2.33022 46.1209 4.3302 46.9545 6.41779 47.587L6.70774 46.63ZM-4.3009 40.7373L-3.66607 39.9646C-5.23516 38.6754 -6.67544 37.2352 -7.96463 35.6661L-8.73728 36.3009L-9.50994 36.9357C-8.13806 38.6054 -6.60545 40.1381 -4.93573 41.5099L-4.3009 40.7373ZM-12.2272 31.0874L-11.3457 30.6152C-12.2963 28.8403 -13.0791 26.9623 -13.6729 25.0023L-14.63 25.2923L-15.587 25.5822C-14.9545 27.6698 -14.1209 29.6698 -13.1087 31.5595L-12.2272 31.0874ZM-15.8481 19.1378L-14.8528 19.0409C-14.9502 18.0407 -15 17.0263 -15 16H-16H-17C-17 17.0911 -16.947 18.1701 -16.8434 19.2346L-15.8481 19.1378ZM-16 16H-15C-15 14.9737 -14.9502 13.9593 -14.8528 12.9591L-15.8481 12.8622L-16.8434 12.7654C-16.947 13.8299 -17 14.9089 -17 16H-16ZM-14.63 6.70774L-13.6729 6.9977C-13.0791 5.03771 -12.2963 3.15968 -11.3457 1.38478L-12.2272 0.912622L-13.1087 0.440468C-14.1209 2.33022 -14.9545 4.3302 -15.587 6.41779L-14.63 6.70774ZM-8.73728 -4.3009L-7.96463 -3.66607C-6.67544 -5.23516 -5.23515 -6.67544 -3.66607 -7.96463L-4.30089 -8.73728L-4.93572 -9.50994C-6.60545 -8.13806 -8.13805 -6.60545 -9.50993 -4.93573L-8.73728 -4.3009ZM0.912628 -12.2272L1.38478 -11.3457C3.15969 -12.2963 5.03771 -13.0791 6.9977 -13.6729L6.70774 -14.63L6.41779 -15.587C4.33021 -14.9545 2.33023 -14.1209 0.440472 -13.1087L0.912628 -12.2272ZM12.8622 -15.8481L12.9591 -14.8528C13.9593 -14.9502 14.9737 -15 16 -15V-16V-17C14.9089 -17 13.8299 -16.947 12.7654 -16.8434L12.8622 -15.8481ZM16 -16V-15C17.0263 -15 18.0407 -14.9502 19.0409 -14.8528L19.1378 -15.8481L19.2346 -16.8434C18.1701 -16.947 17.0911 -17 16 -17V-16ZM25.2923 -14.63L25.0023 -13.6729C26.9623 -13.0791 28.8403 -12.2963 30.6152 -11.3457L31.0874 -12.2272L31.5595 -13.1087C29.6698 -14.1209 27.6698 -14.9545 25.5822 -15.587L25.2923 -14.63ZM36.3009 -8.73728L35.6661 -7.96463C37.2352 -6.67544 38.6754 -5.23515 39.9646 -3.66607L40.7373 -4.30089L41.5099 -4.93572C40.1381 -6.60545 38.6055 -8.13805 36.9357 -9.50993L36.3009 -8.73728ZM44.2272 0.912628L43.3457 1.38478C44.2963 3.15969 45.0791 5.03771 45.6729 6.9977L46.63 6.70774L47.587 6.41779C46.9545 4.33021 46.1209 2.33023 45.1087 0.440472L44.2272 0.912628ZM47.8481 12.8622L46.8528 12.9591C46.9502 13.9593 47 14.9737 47 16H48H49C49 14.9089 48.947 13.8299 48.8434 12.7654L47.8481 12.8622ZM48 16H47C47 17.0263 46.9502 18.0407 46.8528 19.0409L47.8481 19.1378L48.8434 19.2346C48.947 18.1701 49 17.0911 49 16H48ZM46.63 25.2923L45.6729 25.0023C45.0791 26.9623 44.2963 28.8403 43.3456 30.6152L44.2272 31.0874L45.1087 31.5595C46.1209 29.6698 46.9545 27.6698 47.587 25.5822L46.63 25.2923ZM40.7373 36.3009L39.9646 35.6661C38.6754 37.2352 37.2352 38.6754 35.6661 39.9646L36.3009 40.7373L36.9357 41.5099C38.6054 40.1381 40.1381 38.6055 41.5099 36.9357L40.7373 36.3009ZM31.0874 44.2272L30.6152 43.3457C28.8403 44.2963 26.9623 45.0791 25.0023 45.6729L25.2923 46.63L25.5822 47.587C27.6698 46.9545 29.6698 46.1209 31.5595 45.1087L31.0874 44.2272ZM19.1378 47.8481L19.0409 46.8528C18.0407 46.9502 17.0263 47 16 47V48V49C17.0911 49 18.1701 48.947 19.2346 48.8434L19.1378 47.8481ZM16 48V46C15.0061 46 14.024 45.9517 13.056 45.8575L12.8622 47.8481L12.6685 49.8387C13.7651 49.9454 14.8765 50 16 50V48ZM6.70774 46.63L7.28765 44.7159C5.39146 44.1414 3.57441 43.384 1.85693 42.4641L0.912622 44.2272L-0.0316887 45.9902C1.9155 47.0331 3.97645 47.8923 6.12783 48.5441L6.70774 46.63ZM-4.3009 40.7373L-3.03125 39.192C-4.55001 37.9441 -5.94413 36.55 -7.19198 35.0312L-8.73728 36.3009L-10.2826 37.5705C-8.86937 39.2906 -7.2906 40.8694 -5.57056 42.2826L-4.3009 40.7373ZM-12.2272 31.0874L-10.4641 30.1431C-11.384 28.4256 -12.1414 26.6085 -12.7159 24.7123L-14.63 25.2923L-16.5441 25.8722C-15.8923 28.0235 -15.0331 30.0845 -13.9902 32.0317L-12.2272 31.0874ZM-15.8481 19.1378L-13.8575 18.944C-13.9517 17.976 -14 16.9939 -14 16H-16H-18C-18 17.1235 -17.9454 18.2349 -17.8387 19.3315L-15.8481 19.1378ZM-16 16H-14C-14 15.0061 -13.9517 14.024 -13.8575 13.056L-15.8481 12.8622L-17.8387 12.6685C-17.9454 13.7651 -18 14.8765 -18 16H-16ZM-14.63 6.70774L-12.7159 7.28765C-12.1414 5.39146 -11.384 3.57441 -10.4641 1.85693L-12.2272 0.912622L-13.9902 -0.0316887C-15.0331 1.9155 -15.8922 3.97645 -16.5441 6.12783L-14.63 6.70774ZM-8.73728 -4.3009L-7.19197 -3.03125C-5.94413 -4.55001 -4.55 -5.94413 -3.03124 -7.19198L-4.30089 -8.73728L-5.57055 -10.2826C-7.2906 -8.86937 -8.86936 -7.2906 -10.2826 -5.57056L-8.73728 -4.3009ZM0.912628 -12.2272L1.85694 -10.4641C3.57442 -11.384 5.39146 -12.1414 7.28765 -12.7159L6.70774 -14.63L6.12783 -16.5441C3.97645 -15.8923 1.9155 -15.0331 -0.031683 -13.9902L0.912628 -12.2272ZM12.8622 -15.8481L13.056 -13.8575C14.024 -13.9517 15.0061 -14 16 -14V-16V-18C14.8765 -18 13.7651 -17.9454 12.6685 -17.8387L12.8622 -15.8481ZM16 -16V-14C16.9939 -14 17.976 -13.9517 18.944 -13.8575L19.1378 -15.8481L19.3315 -17.8387C18.2349 -17.9454 17.1235 -18 16 -18V-16ZM25.2923 -14.63L24.7123 -12.7159C26.6085 -12.1414 28.4256 -11.384 30.1431 -10.4641L31.0874 -12.2272L32.0317 -13.9902C30.0845 -15.0331 28.0235 -15.8922 25.8722 -16.5441L25.2923 -14.63ZM36.3009 -8.73728L35.0312 -7.19197C36.55 -5.94413 37.9441 -4.55 39.192 -3.03124L40.7373 -4.30089L42.2826 -5.57055C40.8694 -7.2906 39.2906 -8.86936 37.5706 -10.2826L36.3009 -8.73728ZM44.2272 0.912628L42.4641 1.85694C43.384 3.57442 44.1414 5.39146 44.7159 7.28765L46.63 6.70774L48.5441 6.12783C47.8923 3.97645 47.0331 1.9155 45.9902 -0.031683L44.2272 0.912628ZM47.8481 12.8622L45.8575 13.056C45.9517 14.024 46 15.0061 46 16H48H50C50 14.8765 49.9454 13.7651 49.8387 12.6685L47.8481 12.8622ZM48 16H46C46 16.9939 45.9517 17.976 45.8575 18.944L47.8481 19.1378L49.8387 19.3315C49.9454 18.2349 50 17.1235 50 16H48ZM46.63 25.2923L44.7159 24.7123C44.1414 26.6085 43.384 28.4256 42.4641 30.1431L44.2272 31.0874L45.9902 32.0317C47.0331 30.0845 47.8923 28.0235 48.5441 25.8722L46.63 25.2923ZM40.7373 36.3009L39.192 35.0312C37.9441 36.55 36.55 37.9441 35.0312 39.192L36.3009 40.7373L37.5705 42.2826C39.2906 40.8694 40.8694 39.2906 42.2826 37.5706L40.7373 36.3009ZM31.0874 44.2272L30.1431 42.4641C28.4256 43.384 26.6085 44.1414 24.7123 44.7159L25.2923 46.63L25.8722 48.5441C28.0235 47.8923 30.0845 47.0331 32.0317 45.9902L31.0874 44.2272ZM19.1378 47.8481L18.944 45.8575C17.976 45.9517 16.9939 46 16 46V48V50C17.1235 50 18.2349 49.9454 19.3315 49.8387L19.1378 47.8481Z" fill="#9B543E" mask="url(#path-4-inside-1_154_5806)"/>
<g id="Add">
<path id="Vector" d="M24 17H8C7.45333 17 7 16.5467 7 16C7 15.4533 7.45333 15 8 15H24C24.5467 15 25 15.4533 25 16C25 16.5467 24.5467 17 24 17Z" fill="#9B543E"/>
<path id="Vector_2" d="M16 25C15.4533 25 15 24.5467 15 24V8C15 7.45333 15.4533 7 16 7C16.5467 7 17 7.45333 17 8V24C17 24.5467 16.5467 25 16 25Z" fill="#9B543E"/>
</g>
</g>
</g>
</g>
</g>
</svg>
