<svg width="20" height="20" viewBox="0 0 20 20" fill="none" xmlns="http://www.w3.org/2000/svg">
<rect width="20" height="20" fill="#E8E8E8"/>
<g id="Drawer Menu">
<path d="M-108 -183C-108 -184.105 -107.105 -185 -106 -185H362C363.105 -185 364 -184.105 364 -183V235C364 236.105 363.105 237 362 237H-106C-107.105 237 -108 236.105 -108 235V-183Z" fill="white"/>
<path d="M-106 -185V-184H362V-185V-186H-106V-185ZM364 -183H363V235H364H365V-183H364ZM362 237V236H-106V237V238H362V237ZM-108 235H-107V-183H-108H-109V235H-108ZM-106 237V236C-106.552 236 -107 235.552 -107 235H-108H-109C-109 236.657 -107.657 238 -106 238V237ZM364 235H363C363 235.552 362.552 236 362 236V237V238C363.657 238 365 236.657 365 235H364ZM362 -185V-184C362.552 -184 363 -183.552 363 -183H364H365C365 -184.657 363.657 -186 362 -186V-185ZM-106 -185V-186C-107.657 -186 -109 -184.657 -109 -183H-108H-107C-107 -183.552 -106.552 -184 -106 -184V-185Z" fill="black" fill-opacity="0.1"/>
<g id="Drawer Menu_2">
<g id="Link">
<g id="Line Duotone / Notifications / Bell">
<path id="Vector" d="M15.6243 8.09127V7.5041C15.6243 4.28015 13.1062 1.66663 10 1.66663C6.8938 1.66663 4.37573 4.28015 4.37573 7.5041V8.09127C4.37573 8.79592 4.17476 9.48481 3.79817 10.0711L2.8753 11.5079C2.03235 12.8202 2.67587 14.6041 4.14197 15.0191C7.97728 16.1047 12.0227 16.1047 15.858 15.0191C17.3241 14.6041 17.9676 12.8202 17.1247 11.5079L16.2018 10.0711C15.8252 9.48482 15.6243 8.79592 15.6243 8.09127Z" stroke="#55433D" stroke-width="1.5"/>
<path id="Vector_2" opacity="0.5" d="M6.25 15.8334C6.79586 17.2899 8.26871 18.3334 10 18.3334C11.7313 18.3334 13.2041 17.2899 13.75 15.8334" stroke="#55433D" stroke-width="1.5" stroke-linecap="round"/>
</g>
</g>
</g>
</g>
</svg>
