<svg width="20" height="20" viewBox="0 0 20 20" fill="none" xmlns="http://www.w3.org/2000/svg">
<rect width="20" height="20" fill="#E8E8E8"/>
<g id="Drawer Menu">
<path d="M-108 -131C-108 -132.105 -107.105 -133 -106 -133H362C363.105 -133 364 -132.105 364 -131V287C364 288.105 363.105 289 362 289H-106C-107.105 289 -108 288.105 -108 287V-131Z" fill="white"/>
<path d="M-106 -133V-132H362V-133V-134H-106V-133ZM364 -131H363V287H364H365V-131H364ZM362 289V288H-106V289V290H362V289ZM-108 287H-107V-131H-108H-109V287H-108ZM-106 289V288C-106.552 288 -107 287.552 -107 287H-108H-109C-109 288.657 -107.657 290 -106 290V289ZM364 287H363C363 287.552 362.552 288 362 288V289V290C363.657 290 365 288.657 365 287H364ZM362 -133V-132C362.552 -132 363 -131.552 363 -131H364H365C365 -132.657 363.657 -134 362 -134V-133ZM-106 -133V-134C-107.657 -134 -109 -132.657 -109 -131H-108H-107C-107 -131.552 -106.552 -132 -106 -132V-133Z" fill="black" fill-opacity="0.1"/>
<g id="Drawer Menu_2">
<g id="Link">
<g id="Line Duotone / Time / Calendar">
<path id="Vector" d="M1.66669 10C1.66669 6.85734 1.66669 5.286 2.643 4.30968C3.61931 3.33337 5.19066 3.33337 8.33335 3.33337H11.6667C14.8094 3.33337 16.3807 3.33337 17.357 4.30968C18.3334 5.286 18.3334 6.85734 18.3334 10V11.6667C18.3334 14.8094 18.3334 16.3808 17.357 17.3571C16.3807 18.3334 14.8094 18.3334 11.6667 18.3334H8.33335C5.19066 18.3334 3.61931 18.3334 2.643 17.3571C1.66669 16.3808 1.66669 14.8094 1.66669 11.6667V10Z" stroke="#55433D" stroke-width="1.5"/>
<path id="Vector_2" opacity="0.5" d="M5.83331 3.33337V2.08337" stroke="#55433D" stroke-width="1.5" stroke-linecap="round"/>
<path id="Vector_3" opacity="0.5" d="M14.1667 3.33337V2.08337" stroke="#55433D" stroke-width="1.5" stroke-linecap="round"/>
<path id="Vector_4" opacity="0.5" d="M2.08331 7.5H17.9166" stroke="#55433D" stroke-width="1.5" stroke-linecap="round"/>
<g id="Vector_5">
<path d="M15 14.1667C15 14.6269 14.6269 15 14.1666 15C13.7064 15 13.3333 14.6269 13.3333 14.1667C13.3333 13.7064 13.7064 13.3333 14.1666 13.3333C14.6269 13.3333 15 13.7064 15 14.1667Z" fill="#55433D"/>
<path d="M15 10.8333C15 11.2936 14.6269 11.6667 14.1666 11.6667C13.7064 11.6667 13.3333 11.2936 13.3333 10.8333C13.3333 10.3731 13.7064 10 14.1666 10C14.6269 10 15 10.3731 15 10.8333Z" fill="#55433D"/>
</g>
<g id="Vector_6">
<path d="M10.8334 14.1667C10.8334 14.6269 10.4603 15 10 15C9.53978 15 9.16669 14.6269 9.16669 14.1667C9.16669 13.7064 9.53978 13.3333 10 13.3333C10.4603 13.3333 10.8334 13.7064 10.8334 14.1667Z" fill="#55433D"/>
<path d="M10.8334 10.8333C10.8334 11.2936 10.4603 11.6667 10 11.6667C9.53978 11.6667 9.16669 11.2936 9.16669 10.8333C9.16669 10.3731 9.53978 10 10 10C10.4603 10 10.8334 10.3731 10.8334 10.8333Z" fill="#55433D"/>
</g>
<g id="Vector_7">
<path d="M6.66667 14.1667C6.66667 14.6269 6.29357 15 5.83333 15C5.3731 15 5 14.6269 5 14.1667C5 13.7064 5.3731 13.3333 5.83333 13.3333C6.29357 13.3333 6.66667 13.7064 6.66667 14.1667Z" fill="#55433D"/>
<path d="M6.66667 10.8333C6.66667 11.2936 6.29357 11.6667 5.83333 11.6667C5.3731 11.6667 5 11.2936 5 10.8333C5 10.3731 5.3731 10 5.83333 10C6.29357 10 6.66667 10.3731 6.66667 10.8333Z" fill="#55433D"/>
</g>
</g>
</g>
</g>
</g>
</svg>
