<svg width="20" height="20" viewBox="0 0 20 20" fill="none" xmlns="http://www.w3.org/2000/svg">
<rect width="20" height="20" fill="#E8E8E8"/>
<g id="Drawer Menu">
<path d="M-108 -244C-108 -245.105 -107.105 -246 -106 -246H362C363.105 -246 364 -245.105 364 -244V174C364 175.105 363.105 176 362 176H-106C-107.105 176 -108 175.105 -108 174V-244Z" fill="white"/>
<path d="M-106 -246V-245H362V-246V-247H-106V-246ZM364 -244H363V174H364H365V-244H364ZM362 176V175H-106V176V177H362V176ZM-108 174H-107V-244H-108H-109V174H-108ZM-106 176V175C-106.552 175 -107 174.552 -107 174H-108H-109C-109 175.657 -107.657 177 -106 177V176ZM364 174H363C363 174.552 362.552 175 362 175V176V177C363.657 177 365 175.657 365 174H364ZM362 -246V-245C362.552 -245 363 -244.552 363 -244H364H365C365 -245.657 363.657 -247 362 -247V-246ZM-106 -246V-247C-107.657 -247 -109 -245.657 -109 -244H-108H-107C-107 -244.552 -106.552 -245 -106 -245V-246Z" fill="black" fill-opacity="0.1"/>
<g id="Drawer Menu_2">
<g id="Link">
<g id="Line Duotone / Settings, Fine Tuning / Settings">
<circle id="Vector" cx="10" cy="10" r="2.5" stroke="#55433D" stroke-width="1.5"/>
<path id="Vector_2" opacity="0.5" d="M11.4711 1.79349C11.1648 1.66663 10.7765 1.66663 9.99997 1.66663C9.2234 1.66663 8.83512 1.66663 8.52883 1.79349C8.12045 1.96265 7.79599 2.28711 7.62684 2.69549C7.54962 2.88191 7.5194 3.09871 7.50757 3.41495C7.49019 3.87969 7.25186 4.30987 6.8491 4.5424C6.44634 4.77493 5.95464 4.76624 5.54347 4.54892C5.26368 4.40104 5.06082 4.31881 4.86076 4.29247C4.42251 4.23478 3.9793 4.35354 3.62861 4.62263C3.3656 4.82444 3.17146 5.16071 2.78317 5.83324C2.39489 6.50576 2.20075 6.84203 2.15747 7.17071C2.09978 7.60896 2.21854 8.05218 2.48763 8.40286C2.61045 8.56292 2.78307 8.69748 3.05097 8.86581C3.44481 9.11328 3.69822 9.53484 3.6982 9.99998C3.69817 10.4651 3.44477 10.8866 3.05097 11.134C2.78302 11.3024 2.61038 11.4369 2.48755 11.597C2.21846 11.9477 2.0997 12.3909 2.15739 12.8291C2.20066 13.1578 2.39481 13.4941 2.78309 14.1666C3.17138 14.8392 3.36552 15.1754 3.62853 15.3772C3.97922 15.6463 4.42243 15.7651 4.86068 15.7074C5.06072 15.6811 5.26358 15.5988 5.54335 15.451C5.95454 15.2336 6.44628 15.2249 6.84906 15.4575C7.25185 15.69 7.49019 16.1202 7.50758 16.585C7.5194 16.9012 7.54962 17.118 7.62684 17.3044C7.79599 17.7128 8.12045 18.0373 8.52883 18.2064C8.83512 18.3333 9.2234 18.3333 9.99997 18.3333C10.7765 18.3333 11.1648 18.3333 11.4711 18.2064C11.8795 18.0373 12.2039 17.7128 12.3731 17.3044C12.4503 17.118 12.4805 16.9012 12.4924 16.5849C12.5097 16.1202 12.7481 15.69 13.1508 15.4575C13.5536 15.2249 14.0453 15.2336 14.4565 15.4509C14.7363 15.5988 14.9391 15.681 15.1392 15.7073C15.5774 15.765 16.0206 15.6463 16.3713 15.3772C16.6343 15.1754 16.8285 14.8391 17.2168 14.1666C17.6051 13.494 17.7992 13.1578 17.8425 12.8291C17.9002 12.3908 17.7814 11.9476 17.5123 11.5969C17.3895 11.4369 17.2169 11.3023 16.9489 11.134C16.5551 10.8865 16.3017 10.465 16.3017 9.99988C16.3018 9.53483 16.5551 9.11336 16.9489 8.86595C17.2169 8.69758 17.3896 8.56301 17.5124 8.40292C17.7815 8.05223 17.9002 7.60902 17.8425 7.17077C17.7993 6.84209 17.6051 6.50582 17.2168 5.83329C16.8286 5.16076 16.6344 4.8245 16.3714 4.62268C16.0207 4.35359 15.5775 4.23483 15.1393 4.29253C14.9392 4.31887 14.7364 4.40109 14.4566 4.54896C14.0454 4.76629 13.5537 4.77497 13.1509 4.54243C12.7481 4.30988 12.5097 3.87968 12.4924 3.41491C12.4805 3.09869 12.4503 2.8819 12.3731 2.69549C12.2039 2.28711 11.8795 1.96265 11.4711 1.79349Z" stroke="#55433D" stroke-width="1.5"/>
</g>
</g>
</g>
</g>
</svg>
